solid OpenSCAD_Model
  facet normal -1 0 0
    outer loop
      vertex -40 0 0
      vertex -40 5 40
      vertex -40 5 0
    endloop
  endfacet
  facet normal -1 -0 0
    outer loop
      vertex -40 5 40
      vertex -40 0 0
      vertex -40 0 40
    endloop
  endfacet
  facet normal 0 0 1
    outer loop
      vertex 14.0528 14 40
      vertex 14 14 40
      vertex 14.0528 13.0269 40
    endloop
  endfacet
  facet normal 0 0 1
    outer loop
      vertex 23 5.03962 40
      vertex 21.544 5.11856 40
      vertex 23 5 40
    endloop
  endfacet
  facet normal -0 0 1
    outer loop
      vertex 23 5 40
      vertex 40 0 40
      vertex 40 5 40
    endloop
  endfacet
  facet normal 0 0 1
    outer loop
      vertex 21.544 5.11856 40
      vertex 40 0 40
      vertex 23 5 40
    endloop
  endfacet
  facet normal 0 0 1
    outer loop
      vertex 9 14 40
      vertex 14 14 40
      vertex 13.6941 16.9108 40
    endloop
  endfacet
  facet normal 0 0 1
    outer loop
      vertex 8.78958 15.9347 40
      vertex 13.6941 16.9108 40
      vertex 12.7896 19.6943 40
    endloop
  endfacet
  facet normal 0 0 1
    outer loop
      vertex 8.16818 17.779 40
      vertex 12.7896 19.6943 40
      vertex 11.3262 22.229 40
    endloop
  endfacet
  facet normal 0 -0 1
    outer loop
      vertex 9 14 40
      vertex 13.6941 16.9108 40
      vertex 8.78958 15.9347 40
    endloop
  endfacet
  facet normal 0 0 1
    outer loop
      vertex 7.16484 19.4466 40
      vertex 11.3262 22.229 40
      vertex 9.36783 24.404 40
    endloop
  endfacet
  facet normal 0 0 1
    outer loop
      vertex 14 14 40
      vertex 9 14 40
      vertex 14.0528 13.0269 40
    endloop
  endfacet
  facet normal 0 0 1
    outer loop
      vertex 14.0528 13.0269 40
      vertex 8.78958 12.0653 40
      vertex 14.4711 11.1263 40
    endloop
  endfacet
  facet normal 0 0 1
    outer loop
      vertex 8.16818 10.221 40
      vertex 14.4711 11.1263 40
      vertex 8.78958 12.0653 40
    endloop
  endfacet
  facet normal 0 0 1
    outer loop
      vertex 14.4711 11.1263 40
      vertex 8.16818 10.221 40
      vertex 15.2883 9.36001 40
    endloop
  endfacet
  facet normal 0 0 1
    outer loop
      vertex 7.16484 8.55343 40
      vertex 15.2883 9.36001 40
      vertex 8.16818 10.221 40
    endloop
  endfacet
  facet normal 0 0 1
    outer loop
      vertex 15.2883 9.36001 40
      vertex 7.16484 8.55343 40
      vertex 16.466 7.8107 40
    endloop
  endfacet
  facet normal 0 0 1
    outer loop
      vertex 5.82648 7.14054 40
      vertex 16.466 7.8107 40
      vertex 7.16484 8.55343 40
    endloop
  endfacet
  facet normal 0 0 1
    outer loop
      vertex 16.466 7.8107 40
      vertex 5.82648 7.14054 40
      vertex 17.9493 6.5508 40
    endloop
  endfacet
  facet normal 0 0 1
    outer loop
      vertex 4.21568 6.04839 40
      vertex 17.9493 6.5508 40
      vertex 5.82648 7.14054 40
    endloop
  endfacet
  facet normal 0 0 1
    outer loop
      vertex 17.9493 6.5508 40
      vertex 4.21568 6.04839 40
      vertex 19.6688 5.63921 40
    endloop
  endfacet
  facet normal 0 0 1
    outer loop
      vertex 2.40775 5.32805 40
      vertex 19.6688 5.63921 40
      vertex 4.21568 6.04839 40
    endloop
  endfacet
  facet normal 0 0 1
    outer loop
      vertex 19.6688 5.63921 40
      vertex 2.40775 5.32805 40
      vertex 21.544 5.11856 40
    endloop
  endfacet
  facet normal 0 0 1
    outer loop
      vertex 0.487249 5.0132 40
      vertex 21.544 5.11856 40
      vertex 2.40775 5.32805 40
    endloop
  endfacet
  facet normal 0 0 1
    outer loop
      vertex 21.544 5.11856 40
      vertex 0.487249 5.0132 40
      vertex 40 0 40
    endloop
  endfacet
  facet normal 0 0 1
    outer loop
      vertex -40 0 40
      vertex 0.487249 5.0132 40
      vertex -1.45604 5.11856 40
    endloop
  endfacet
  facet normal -0 0 1
    outer loop
      vertex -13.6941 16.9108 40
      vertex -8.52888 16.8737 40
      vertex -12.7896 19.6943 40
    endloop
  endfacet
  facet normal 0 0 1
    outer loop
      vertex -8.52888 16.8737 40
      vertex -13.6941 16.9108 40
      vertex -8.94724 14.9731 40
    endloop
  endfacet
  facet normal 0 0 1
    outer loop
      vertex -14 14 40
      vertex -8.94724 14.9731 40
      vertex -13.6941 16.9108 40
    endloop
  endfacet
  facet normal 0 0 1
    outer loop
      vertex -8.94724 14.9731 40
      vertex -14 14 40
      vertex -8.94724 13.0269 40
    endloop
  endfacet
  facet normal 0 0 1
    outer loop
      vertex -14.2104 12.0653 40
      vertex -8.94724 13.0269 40
      vertex -14 14 40
    endloop
  endfacet
  facet normal 0 0 1
    outer loop
      vertex -8.94724 13.0269 40
      vertex -14.2104 12.0653 40
      vertex -8.52888 11.1263 40
    endloop
  endfacet
  facet normal 0 0 1
    outer loop
      vertex -14.8318 10.221 40
      vertex -8.52888 11.1263 40
      vertex -14.2104 12.0653 40
    endloop
  endfacet
  facet normal 0 0 1
    outer loop
      vertex -8.52888 11.1263 40
      vertex -14.8318 10.221 40
      vertex -7.71171 9.36001 40
    endloop
  endfacet
  facet normal 0 0 1
    outer loop
      vertex -15.8352 8.55343 40
      vertex -7.71171 9.36001 40
      vertex -14.8318 10.221 40
    endloop
  endfacet
  facet normal 0 0 1
    outer loop
      vertex -7.71171 9.36001 40
      vertex -15.8352 8.55343 40
      vertex -6.53396 7.8107 40
    endloop
  endfacet
  facet normal 0 0 1
    outer loop
      vertex -17.1735 7.14054 40
      vertex -6.53396 7.8107 40
      vertex -15.8352 8.55343 40
    endloop
  endfacet
  facet normal 0 0 1
    outer loop
      vertex -6.53396 7.8107 40
      vertex -17.1735 7.14054 40
      vertex -5.05068 6.5508 40
    endloop
  endfacet
  facet normal 0 0 1
    outer loop
      vertex -18.7843 6.04839 40
      vertex -5.05068 6.5508 40
      vertex -17.1735 7.14054 40
    endloop
  endfacet
  facet normal 0 0 1
    outer loop
      vertex -5.05068 6.5508 40
      vertex -18.7843 6.04839 40
      vertex -3.33124 5.63921 40
    endloop
  endfacet
  facet normal 0 0 1
    outer loop
      vertex -20.5922 5.32805 40
      vertex -3.33124 5.63921 40
      vertex -18.7843 6.04839 40
    endloop
  endfacet
  facet normal 0 0 1
    outer loop
      vertex -3.33124 5.63921 40
      vertex -20.5922 5.32805 40
      vertex -1.45604 5.11856 40
    endloop
  endfacet
  facet normal 0 0 1
    outer loop
      vertex -22.5127 5.0132 40
      vertex -1.45604 5.11856 40
      vertex -20.5922 5.32805 40
    endloop
  endfacet
  facet normal 0 0 1
    outer loop
      vertex -1.45604 5.11856 40
      vertex -22.5127 5.0132 40
      vertex -40 0 40
    endloop
  endfacet
  facet normal 0 0 1
    outer loop
      vertex -23 5 40
      vertex -22.5127 5.0132 40
      vertex -23 5.03962 40
    endloop
  endfacet
  facet normal 0 0 1
    outer loop
      vertex -40 0 40
      vertex -22.5127 5.0132 40
      vertex -23 5 40
    endloop
  endfacet
  facet normal 0 0 1
    outer loop
      vertex -40 0 40
      vertex -23 5 40
      vertex -40 5 40
    endloop
  endfacet
  facet normal 0 0 1
    outer loop
      vertex 0.487249 5.0132 40
      vertex -40 0 40
      vertex 40 0 40
    endloop
  endfacet
  facet normal 0 0 1
    outer loop
      vertex 8.78958 12.0653 40
      vertex 14.0528 13.0269 40
      vertex 9 14 40
    endloop
  endfacet
  facet normal 0 0 1
    outer loop
      vertex 12.7896 19.6943 40
      vertex 8.16818 17.779 40
      vertex 8.78958 15.9347 40
    endloop
  endfacet
  facet normal 0 0 1
    outer loop
      vertex 11.3262 22.229 40
      vertex 7.16484 19.4466 40
      vertex 8.16818 17.779 40
    endloop
  endfacet
  facet normal 0 0 1
    outer loop
      vertex 5.82648 20.8595 40
      vertex 9.36783 24.404 40
      vertex 7 26.1244 40
    endloop
  endfacet
  facet normal 0 0 1
    outer loop
      vertex 9.36783 24.404 40
      vertex 5.82648 20.8595 40
      vertex 7.16484 19.4466 40
    endloop
  endfacet
  facet normal 0 0 1
    outer loop
      vertex 4.21568 21.9516 40
      vertex 7 26.1244 40
      vertex 4.32624 27.3148 40
    endloop
  endfacet
  facet normal 0 0 1
    outer loop
      vertex 7 26.1244 40
      vertex 4.21568 21.9516 40
      vertex 5.82648 20.8595 40
    endloop
  endfacet
  facet normal 0 0 1
    outer loop
      vertex 4.32624 27.3148 40
      vertex 2.40775 22.6719 40
      vertex 4.21568 21.9516 40
    endloop
  endfacet
  facet normal 0 0 1
    outer loop
      vertex 1.4634 27.9233 40
      vertex 2.40775 22.6719 40
      vertex 4.32624 27.3148 40
    endloop
  endfacet
  facet normal 0 0 1
    outer loop
      vertex 1.4634 27.9233 40
      vertex 0.487249 22.9868 40
      vertex 2.40775 22.6719 40
    endloop
  endfacet
  facet normal -0 0 1
    outer loop
      vertex -1.4634 27.9233 40
      vertex 0.487249 22.9868 40
      vertex 1.4634 27.9233 40
    endloop
  endfacet
  facet normal 0 0 1
    outer loop
      vertex 0.487249 22.9868 40
      vertex -1.4634 27.9233 40
      vertex -1.45604 22.8814 40
    endloop
  endfacet
  facet normal -0 0 1
    outer loop
      vertex -4.32624 27.3148 40
      vertex -1.45604 22.8814 40
      vertex -1.4634 27.9233 40
    endloop
  endfacet
  facet normal 0 0 1
    outer loop
      vertex -1.45604 22.8814 40
      vertex -4.32624 27.3148 40
      vertex -3.33124 22.3608 40
    endloop
  endfacet
  facet normal -0 0 1
    outer loop
      vertex -7 26.1244 40
      vertex -3.33124 22.3608 40
      vertex -4.32624 27.3148 40
    endloop
  endfacet
  facet normal 0 0 1
    outer loop
      vertex -3.33124 22.3608 40
      vertex -7 26.1244 40
      vertex -5.05068 21.4492 40
    endloop
  endfacet
  facet normal -0 0 1
    outer loop
      vertex -9.36783 24.404 40
      vertex -5.05068 21.4492 40
      vertex -7 26.1244 40
    endloop
  endfacet
  facet normal 0 0 1
    outer loop
      vertex -5.05068 21.4492 40
      vertex -9.36783 24.404 40
      vertex -6.53396 20.1893 40
    endloop
  endfacet
  facet normal -0 0 1
    outer loop
      vertex -11.3262 22.229 40
      vertex -6.53396 20.1893 40
      vertex -9.36783 24.404 40
    endloop
  endfacet
  facet normal 0 0 1
    outer loop
      vertex -6.53396 20.1893 40
      vertex -11.3262 22.229 40
      vertex -7.71171 18.64 40
    endloop
  endfacet
  facet normal 0 0 1
    outer loop
      vertex -7.71171 18.64 40
      vertex -12.7896 19.6943 40
      vertex -8.52888 16.8737 40
    endloop
  endfacet
  facet normal -0 0 1
    outer loop
      vertex -12.7896 19.6943 40
      vertex -7.71171 18.64 40
      vertex -11.3262 22.229 40
    endloop
  endfacet
  facet normal 1 -0 0
    outer loop
      vertex 40 0 40
      vertex 40 5 0
      vertex 40 5 40
    endloop
  endfacet
  facet normal 1 0 0
    outer loop
      vertex 40 5 0
      vertex 40 0 40
      vertex 40 0 0
    endloop
  endfacet
  facet normal 0 1 -0
    outer loop
      vertex 28.574 5 21.3858
      vertex 23 5 40
      vertex 40 5 40
    endloop
  endfacet
  facet normal 0 1 0
    outer loop
      vertex 23 5 40
      vertex 28.574 5 21.3858
      vertex 28 5 21.5
    endloop
  endfacet
  facet normal 0 1 0
    outer loop
      vertex 40 5 40
      vertex 29.0607 5 21.0607
      vertex 28.574 5 21.3858
    endloop
  endfacet
  facet normal 0 1 0
    outer loop
      vertex 40 5 40
      vertex 29.3858 5 20.574
      vertex 29.0607 5 21.0607
    endloop
  endfacet
  facet normal 0 1 0
    outer loop
      vertex 40 5 40
      vertex 29.5 5 20
      vertex 29.3858 5 20.574
    endloop
  endfacet
  facet normal 0 1 -0
    outer loop
      vertex 40 5 0
      vertex 29.5 5 20
      vertex 40 5 40
    endloop
  endfacet
  facet normal 0 1 0
    outer loop
      vertex 23 5 0
      vertex 28.574 5 18.6142
      vertex 40 5 0
    endloop
  endfacet
  facet normal 0 1 0
    outer loop
      vertex 29.0607 5 18.9393
      vertex 40 5 0
      vertex 28.574 5 18.6142
    endloop
  endfacet
  facet normal 0 1 0
    outer loop
      vertex 29.3858 5 19.426
      vertex 40 5 0
      vertex 29.0607 5 18.9393
    endloop
  endfacet
  facet normal 0 1 0
    outer loop
      vertex 29.5 5 20
      vertex 40 5 0
      vertex 29.3858 5 19.426
    endloop
  endfacet
  facet normal 0 1 -0
    outer loop
      vertex 27.426 5 21.3858
      vertex 23 5 40
      vertex 28 5 21.5
    endloop
  endfacet
  facet normal 0 1 -0
    outer loop
      vertex 26.9393 5 21.0607
      vertex 23 5 40
      vertex 27.426 5 21.3858
    endloop
  endfacet
  facet normal 0 1 -0
    outer loop
      vertex 26.6142 5 20.574
      vertex 23 5 40
      vertex 26.9393 5 21.0607
    endloop
  endfacet
  facet normal 0 1 -0
    outer loop
      vertex 26.5 5 20
      vertex 23 5 40
      vertex 26.6142 5 20.574
    endloop
  endfacet
  facet normal 0 1 0
    outer loop
      vertex 28.574 5 18.6142
      vertex 23 5 0
      vertex 28 5 18.5
    endloop
  endfacet
  facet normal 0 1 0
    outer loop
      vertex 28 5 18.5
      vertex 23 5 0
      vertex 27.426 5 18.6142
    endloop
  endfacet
  facet normal 0 1 0
    outer loop
      vertex 26.5 5 20
      vertex 23 5 0
      vertex 23 5 40
    endloop
  endfacet
  facet normal 0 1 0
    outer loop
      vertex 26.6142 5 19.426
      vertex 23 5 0
      vertex 26.5 5 20
    endloop
  endfacet
  facet normal 0 1 0
    outer loop
      vertex 26.9393 5 18.9393
      vertex 23 5 0
      vertex 26.6142 5 19.426
    endloop
  endfacet
  facet normal 0 1 0
    outer loop
      vertex 27.426 5 18.6142
      vertex 23 5 0
      vertex 26.9393 5 18.9393
    endloop
  endfacet
  facet normal 0 1 0
    outer loop
      vertex -28.574 5 21.3858
      vertex -23 5 40
      vertex -28 5 21.5
    endloop
  endfacet
  facet normal 0 1 0
    outer loop
      vertex -23 5 40
      vertex -27.426 5 21.3858
      vertex -28 5 21.5
    endloop
  endfacet
  facet normal 0 1 0
    outer loop
      vertex -23 5 40
      vertex -26.9393 5 21.0607
      vertex -27.426 5 21.3858
    endloop
  endfacet
  facet normal 0 1 0
    outer loop
      vertex -23 5 40
      vertex -26.6142 5 20.574
      vertex -26.9393 5 21.0607
    endloop
  endfacet
  facet normal 0 1 0
    outer loop
      vertex -23 5 40
      vertex -26.5 5 20
      vertex -26.6142 5 20.574
    endloop
  endfacet
  facet normal 0 1 0
    outer loop
      vertex -27.426 5 18.6142
      vertex -23 5 0
      vertex -28 5 18.5
    endloop
  endfacet
  facet normal 0 1 0
    outer loop
      vertex -26.9393 5 18.9393
      vertex -23 5 0
      vertex -27.426 5 18.6142
    endloop
  endfacet
  facet normal 0 1 0
    outer loop
      vertex -26.6142 5 19.426
      vertex -23 5 0
      vertex -26.9393 5 18.9393
    endloop
  endfacet
  facet normal 0 1 0
    outer loop
      vertex -26.5 5 20
      vertex -23 5 0
      vertex -26.6142 5 19.426
    endloop
  endfacet
  facet normal 0 1 -0
    outer loop
      vertex -23 5 0
      vertex -26.5 5 20
      vertex -23 5 40
    endloop
  endfacet
  facet normal 0 1 0
    outer loop
      vertex -23 5 40
      vertex -28.574 5 21.3858
      vertex -40 5 40
    endloop
  endfacet
  facet normal 0 1 -0
    outer loop
      vertex -29.0607 5 21.0607
      vertex -40 5 40
      vertex -28.574 5 21.3858
    endloop
  endfacet
  facet normal 0 1 -0
    outer loop
      vertex -29.3858 5 20.574
      vertex -40 5 40
      vertex -29.0607 5 21.0607
    endloop
  endfacet
  facet normal 0 1 -0
    outer loop
      vertex -29.5 5 20
      vertex -40 5 40
      vertex -29.3858 5 20.574
    endloop
  endfacet
  facet normal 0 1 0
    outer loop
      vertex -40 5 0
      vertex -29.5 5 20
      vertex -29.3858 5 19.426
    endloop
  endfacet
  facet normal 0 1 0
    outer loop
      vertex -23 5 0
      vertex -28.574 5 18.6142
      vertex -28 5 18.5
    endloop
  endfacet
  facet normal 0 1 0
    outer loop
      vertex -40 5 0
      vertex -28.574 5 18.6142
      vertex -23 5 0
    endloop
  endfacet
  facet normal 0 1 0
    outer loop
      vertex -28.574 5 18.6142
      vertex -40 5 0
      vertex -29.0607 5 18.9393
    endloop
  endfacet
  facet normal 0 1 0
    outer loop
      vertex -29.0607 5 18.9393
      vertex -40 5 0
      vertex -29.3858 5 19.426
    endloop
  endfacet
  facet normal 0 1 0
    outer loop
      vertex -29.5 5 20
      vertex -40 5 0
      vertex -40 5 40
    endloop
  endfacet
  facet normal 0 0 -1
    outer loop
      vertex 40 0 0
      vertex 23 5 0
      vertex 40 5 0
    endloop
  endfacet
  facet normal 0 0 -1
    outer loop
      vertex 23 5 0
      vertex 21.544 5.11856 0
      vertex 23 5.03962 0
    endloop
  endfacet
  facet normal 0 0 -1
    outer loop
      vertex 40 0 0
      vertex 21.544 5.11856 0
      vertex 23 5 0
    endloop
  endfacet
  facet normal 0 0 -1
    outer loop
      vertex 14.0528 13.0269 0
      vertex 14 14 0
      vertex 14.0528 14 0
    endloop
  endfacet
  facet normal 0 0 -1
    outer loop
      vertex 9 14 0
      vertex 14 14 0
      vertex 14.0528 13.0269 0
    endloop
  endfacet
  facet normal 0 0 -1
    outer loop
      vertex 14 14 0
      vertex 9 14 0
      vertex 13.6941 16.9108 0
    endloop
  endfacet
  facet normal -0 0 -1
    outer loop
      vertex 13.6941 16.9108 0
      vertex 8.78958 15.9347 0
      vertex 12.7896 19.6943 0
    endloop
  endfacet
  facet normal 0 0 -1
    outer loop
      vertex 8.78958 12.0653 0
      vertex 14.0528 13.0269 0
      vertex 14.4711 11.1263 0
    endloop
  endfacet
  facet normal 0 0 -1
    outer loop
      vertex 8.16818 17.779 0
      vertex 12.7896 19.6943 0
      vertex 8.78958 15.9347 0
    endloop
  endfacet
  facet normal 0 0 -1
    outer loop
      vertex 13.6941 16.9108 0
      vertex 9 14 0
      vertex 8.78958 15.9347 0
    endloop
  endfacet
  facet normal 0 0 -1
    outer loop
      vertex 8.16818 10.221 0
      vertex 14.4711 11.1263 0
      vertex 15.2883 9.36001 0
    endloop
  endfacet
  facet normal 0 0 -1
    outer loop
      vertex 7.16484 8.55343 0
      vertex 15.2883 9.36001 0
      vertex 16.466 7.8107 0
    endloop
  endfacet
  facet normal 0 0 -1
    outer loop
      vertex 5.82648 7.14054 0
      vertex 16.466 7.8107 0
      vertex 17.9493 6.5508 0
    endloop
  endfacet
  facet normal -0 0 -1
    outer loop
      vertex 14.0528 13.0269 0
      vertex 8.78958 12.0653 0
      vertex 9 14 0
    endloop
  endfacet
  facet normal -0 0 -1
    outer loop
      vertex 14.4711 11.1263 0
      vertex 8.16818 10.221 0
      vertex 8.78958 12.0653 0
    endloop
  endfacet
  facet normal 0 0 -1
    outer loop
      vertex 4.21568 6.04839 0
      vertex 17.9493 6.5508 0
      vertex 19.6688 5.63921 0
    endloop
  endfacet
  facet normal -0 0 -1
    outer loop
      vertex 15.2883 9.36001 0
      vertex 7.16484 8.55343 0
      vertex 8.16818 10.221 0
    endloop
  endfacet
  facet normal 0 0 -1
    outer loop
      vertex 2.40775 5.32805 0
      vertex 19.6688 5.63921 0
      vertex 21.544 5.11856 0
    endloop
  endfacet
  facet normal 0 0 -1
    outer loop
      vertex 0.487249 5.0132 0
      vertex 21.544 5.11856 0
      vertex 40 0 0
    endloop
  endfacet
  facet normal -0 0 -1
    outer loop
      vertex 16.466 7.8107 0
      vertex 5.82648 7.14054 0
      vertex 7.16484 8.55343 0
    endloop
  endfacet
  facet normal -0 0 -1
    outer loop
      vertex 17.9493 6.5508 0
      vertex 4.21568 6.04839 0
      vertex 5.82648 7.14054 0
    endloop
  endfacet
  facet normal -0 0 -1
    outer loop
      vertex 19.6688 5.63921 0
      vertex 2.40775 5.32805 0
      vertex 4.21568 6.04839 0
    endloop
  endfacet
  facet normal -0 0 -1
    outer loop
      vertex 21.544 5.11856 0
      vertex 0.487249 5.0132 0
      vertex 2.40775 5.32805 0
    endloop
  endfacet
  facet normal 0 0 -1
    outer loop
      vertex -40 0 0
      vertex 0.487249 5.0132 0
      vertex 40 0 0
    endloop
  endfacet
  facet normal 0 0 -1
    outer loop
      vertex -14 14 0
      vertex -8.94724 14.9731 0
      vertex -8.94724 13.0269 0
    endloop
  endfacet
  facet normal 0 0 -1
    outer loop
      vertex -8.94724 14.9731 0
      vertex -11.3262 22.229 0
      vertex -9.36783 24.404 0
    endloop
  endfacet
  facet normal 0 0 -1
    outer loop
      vertex -14.2104 12.0653 0
      vertex -8.94724 13.0269 0
      vertex -8.52888 11.1263 0
    endloop
  endfacet
  facet normal 0 0 -1
    outer loop
      vertex -8.94724 14.9731 0
      vertex -12.7896 19.6943 0
      vertex -11.3262 22.229 0
    endloop
  endfacet
  facet normal 0 0 -1
    outer loop
      vertex -14.8318 10.221 0
      vertex -8.52888 11.1263 0
      vertex -7.71171 9.36001 0
    endloop
  endfacet
  facet normal 0 0 -1
    outer loop
      vertex -8.94724 14.9731 0
      vertex -13.6941 16.9108 0
      vertex -12.7896 19.6943 0
    endloop
  endfacet
  facet normal 0 0 -1
    outer loop
      vertex -15.8352 8.55343 0
      vertex -7.71171 9.36001 0
      vertex -6.53396 7.8107 0
    endloop
  endfacet
  facet normal -0 0 -1
    outer loop
      vertex -8.94724 14.9731 0
      vertex -14 14 0
      vertex -13.6941 16.9108 0
    endloop
  endfacet
  facet normal 0 0 -1
    outer loop
      vertex -17.1735 7.14054 0
      vertex -6.53396 7.8107 0
      vertex -5.05068 6.5508 0
    endloop
  endfacet
  facet normal -0 0 -1
    outer loop
      vertex -8.94724 13.0269 0
      vertex -14.2104 12.0653 0
      vertex -14 14 0
    endloop
  endfacet
  facet normal -0 0 -1
    outer loop
      vertex -8.52888 11.1263 0
      vertex -14.8318 10.221 0
      vertex -14.2104 12.0653 0
    endloop
  endfacet
  facet normal 0 0 -1
    outer loop
      vertex -18.7843 6.04839 0
      vertex -5.05068 6.5508 0
      vertex -3.33124 5.63921 0
    endloop
  endfacet
  facet normal -0 0 -1
    outer loop
      vertex -7.71171 9.36001 0
      vertex -15.8352 8.55343 0
      vertex -14.8318 10.221 0
    endloop
  endfacet
  facet normal 0 0 -1
    outer loop
      vertex -20.5922 5.32805 0
      vertex -3.33124 5.63921 0
      vertex -1.45604 5.11856 0
    endloop
  endfacet
  facet normal -0 0 -1
    outer loop
      vertex -6.53396 7.8107 0
      vertex -17.1735 7.14054 0
      vertex -15.8352 8.55343 0
    endloop
  endfacet
  facet normal -0 0 -1
    outer loop
      vertex -5.05068 6.5508 0
      vertex -18.7843 6.04839 0
      vertex -17.1735 7.14054 0
    endloop
  endfacet
  facet normal -0 0 -1
    outer loop
      vertex 0.487249 5.0132 0
      vertex -40 0 0
      vertex -1.45604 5.11856 0
    endloop
  endfacet
  facet normal -0 0 -1
    outer loop
      vertex -3.33124 5.63921 0
      vertex -20.5922 5.32805 0
      vertex -18.7843 6.04839 0
    endloop
  endfacet
  facet normal 0 -0 -1
    outer loop
      vertex -22.5127 5.0132 0
      vertex -1.45604 5.11856 0
      vertex -40 0 0
    endloop
  endfacet
  facet normal -0 0 -1
    outer loop
      vertex -1.45604 5.11856 0
      vertex -22.5127 5.0132 0
      vertex -20.5922 5.32805 0
    endloop
  endfacet
  facet normal 0 0 -1
    outer loop
      vertex -22.5127 5.0132 0
      vertex -40 0 0
      vertex -23 5 0
    endloop
  endfacet
  facet normal -0 0 -1
    outer loop
      vertex -23 5 0
      vertex -40 0 0
      vertex -40 5 0
    endloop
  endfacet
  facet normal -0 0 -1
    outer loop
      vertex 12.7896 19.6943 0
      vertex 8.16818 17.779 0
      vertex 11.3262 22.229 0
    endloop
  endfacet
  facet normal 0 0 -1
    outer loop
      vertex 7.16484 19.4466 0
      vertex 11.3262 22.229 0
      vertex 8.16818 17.779 0
    endloop
  endfacet
  facet normal -0 0 -1
    outer loop
      vertex 11.3262 22.229 0
      vertex 7.16484 19.4466 0
      vertex 9.36783 24.404 0
    endloop
  endfacet
  facet normal 0 0 -1
    outer loop
      vertex 5.82648 20.8595 0
      vertex 9.36783 24.404 0
      vertex 7.16484 19.4466 0
    endloop
  endfacet
  facet normal -0 0 -1
    outer loop
      vertex 9.36783 24.404 0
      vertex 5.82648 20.8595 0
      vertex 7 26.1244 0
    endloop
  endfacet
  facet normal 0 0 -1
    outer loop
      vertex 4.21568 21.9516 0
      vertex 7 26.1244 0
      vertex 5.82648 20.8595 0
    endloop
  endfacet
  facet normal -0 0 -1
    outer loop
      vertex 7 26.1244 0
      vertex 4.21568 21.9516 0
      vertex 4.32624 27.3148 0
    endloop
  endfacet
  facet normal 0 0 -1
    outer loop
      vertex 2.40775 22.6719 0
      vertex 4.32624 27.3148 0
      vertex 4.21568 21.9516 0
    endloop
  endfacet
  facet normal 0 0 -1
    outer loop
      vertex 2.40775 22.6719 0
      vertex 1.4634 27.9233 0
      vertex 4.32624 27.3148 0
    endloop
  endfacet
  facet normal 0 0 -1
    outer loop
      vertex 0.487249 22.9868 0
      vertex 1.4634 27.9233 0
      vertex 2.40775 22.6719 0
    endloop
  endfacet
  facet normal 0 0 -1
    outer loop
      vertex -1.4634 27.9233 0
      vertex 0.487249 22.9868 0
      vertex -1.45604 22.8814 0
    endloop
  endfacet
  facet normal 0 0 -1
    outer loop
      vertex 0.487249 22.9868 0
      vertex -1.4634 27.9233 0
      vertex 1.4634 27.9233 0
    endloop
  endfacet
  facet normal 0 0 -1
    outer loop
      vertex -4.32624 27.3148 0
      vertex -1.45604 22.8814 0
      vertex -3.33124 22.3608 0
    endloop
  endfacet
  facet normal 0 0 -1
    outer loop
      vertex -1.45604 22.8814 0
      vertex -4.32624 27.3148 0
      vertex -1.4634 27.9233 0
    endloop
  endfacet
  facet normal 0 0 -1
    outer loop
      vertex -7 26.1244 0
      vertex -3.33124 22.3608 0
      vertex -5.05068 21.4492 0
    endloop
  endfacet
  facet normal 0 0 -1
    outer loop
      vertex -9.36783 24.404 0
      vertex -5.05068 21.4492 0
      vertex -6.53396 20.1893 0
    endloop
  endfacet
  facet normal 0 0 -1
    outer loop
      vertex -3.33124 22.3608 0
      vertex -7 26.1244 0
      vertex -4.32624 27.3148 0
    endloop
  endfacet
  facet normal 0 0 -1
    outer loop
      vertex -9.36783 24.404 0
      vertex -6.53396 20.1893 0
      vertex -7.71171 18.64 0
    endloop
  endfacet
  facet normal 0 0 -1
    outer loop
      vertex -9.36783 24.404 0
      vertex -7.71171 18.64 0
      vertex -8.52888 16.8737 0
    endloop
  endfacet
  facet normal 0 0 -1
    outer loop
      vertex -9.36783 24.404 0
      vertex -8.52888 16.8737 0
      vertex -8.94724 14.9731 0
    endloop
  endfacet
  facet normal 0 0 -1
    outer loop
      vertex -5.05068 21.4492 0
      vertex -9.36783 24.404 0
      vertex -7 26.1244 0
    endloop
  endfacet
  facet normal -0 0 -1
    outer loop
      vertex -22.5127 5.0132 0
      vertex -23 5 0
      vertex -23 5.03962 0
    endloop
  endfacet
  facet normal 0 -1 0
    outer loop
      vertex -40 0 40
      vertex -26.9393 0 21.0607
      vertex 40 0 40
    endloop
  endfacet
  facet normal 0 -1 0
    outer loop
      vertex 40 0 40
      vertex 27.426 0 21.3858
      vertex 28 0 21.5
    endloop
  endfacet
  facet normal 0 -1 0
    outer loop
      vertex 26.9393 0 21.0607
      vertex 40 0 40
      vertex -26.9393 0 21.0607
    endloop
  endfacet
  facet normal 0 -1 0
    outer loop
      vertex 40 0 40
      vertex 26.9393 0 21.0607
      vertex 27.426 0 21.3858
    endloop
  endfacet
  facet normal 0 -1 0
    outer loop
      vertex -26.6142 0 20.574
      vertex 26.9393 0 21.0607
      vertex -26.9393 0 21.0607
    endloop
  endfacet
  facet normal 0 -1 0
    outer loop
      vertex -26.6142 0 20.574
      vertex 26.6142 0 20.574
      vertex 26.9393 0 21.0607
    endloop
  endfacet
  facet normal 0 -1 0
    outer loop
      vertex -26.5 0 20
      vertex 26.6142 0 20.574
      vertex -26.6142 0 20.574
    endloop
  endfacet
  facet normal 0 -1 0
    outer loop
      vertex -26.5 0 20
      vertex 26.5 0 20
      vertex 26.6142 0 20.574
    endloop
  endfacet
  facet normal 0 -1 0
    outer loop
      vertex -26.6142 0 19.426
      vertex 26.5 0 20
      vertex -26.5 0 20
    endloop
  endfacet
  facet normal 0 -1 0
    outer loop
      vertex -26.6142 0 19.426
      vertex 26.6142 0 19.426
      vertex 26.5 0 20
    endloop
  endfacet
  facet normal 0 -1 0
    outer loop
      vertex -26.9393 0 18.9393
      vertex 26.6142 0 19.426
      vertex -26.6142 0 19.426
    endloop
  endfacet
  facet normal 0 -1 0
    outer loop
      vertex -26.9393 0 18.9393
      vertex 26.9393 0 18.9393
      vertex 26.6142 0 19.426
    endloop
  endfacet
  facet normal 0 -1 0
    outer loop
      vertex -40 0 0
      vertex -26.9393 0 18.9393
      vertex -27.426 0 18.6142
    endloop
  endfacet
  facet normal 0 -1 -0
    outer loop
      vertex -26.9393 0 18.9393
      vertex -40 0 0
      vertex 26.9393 0 18.9393
    endloop
  endfacet
  facet normal 0 -1 0
    outer loop
      vertex -40 0 0
      vertex -27.426 0 18.6142
      vertex -28 0 18.5
    endloop
  endfacet
  facet normal 0 -1 0
    outer loop
      vertex 40 0 0
      vertex 26.9393 0 18.9393
      vertex -40 0 0
    endloop
  endfacet
  facet normal 0 -1 0
    outer loop
      vertex -27.426 0 21.3858
      vertex -40 0 40
      vertex -28 0 21.5
    endloop
  endfacet
  facet normal 0 -1 0
    outer loop
      vertex -40 0 40
      vertex -28.574 0 21.3858
      vertex -28 0 21.5
    endloop
  endfacet
  facet normal 0 -1 0
    outer loop
      vertex -40 0 40
      vertex -29.0607 0 21.0607
      vertex -28.574 0 21.3858
    endloop
  endfacet
  facet normal 0 -1 0
    outer loop
      vertex -40 0 40
      vertex -29.3858 0 20.574
      vertex -29.0607 0 21.0607
    endloop
  endfacet
  facet normal 0 -1 0
    outer loop
      vertex -40 0 40
      vertex -29.5 0 20
      vertex -29.3858 0 20.574
    endloop
  endfacet
  facet normal 0 -1 0
    outer loop
      vertex -40 0 0
      vertex -29.5 0 20
      vertex -40 0 40
    endloop
  endfacet
  facet normal 0 -1 0
    outer loop
      vertex 26.9393 0 18.9393
      vertex 40 0 0
      vertex 27.426 0 18.6142
    endloop
  endfacet
  facet normal 0 -1 -0
    outer loop
      vertex -28.574 0 18.6142
      vertex -40 0 0
      vertex -28 0 18.5
    endloop
  endfacet
  facet normal 0 -1 -0
    outer loop
      vertex -29.0607 0 18.9393
      vertex -40 0 0
      vertex -28.574 0 18.6142
    endloop
  endfacet
  facet normal 0 -1 -0
    outer loop
      vertex -29.3858 0 19.426
      vertex -40 0 0
      vertex -29.0607 0 18.9393
    endloop
  endfacet
  facet normal 0 -1 -0
    outer loop
      vertex -29.5 0 20
      vertex -40 0 0
      vertex -29.3858 0 19.426
    endloop
  endfacet
  facet normal 0 -1 0
    outer loop
      vertex -26.9393 0 21.0607
      vertex -40 0 40
      vertex -27.426 0 21.3858
    endloop
  endfacet
  facet normal 0 -1 0
    outer loop
      vertex 28.574 0 21.3858
      vertex 40 0 40
      vertex 28 0 21.5
    endloop
  endfacet
  facet normal 0 -1 0
    outer loop
      vertex 29.0607 0 21.0607
      vertex 40 0 40
      vertex 28.574 0 21.3858
    endloop
  endfacet
  facet normal 0 -1 0
    outer loop
      vertex 29.3858 0 20.574
      vertex 40 0 40
      vertex 29.0607 0 21.0607
    endloop
  endfacet
  facet normal 0 -1 0
    outer loop
      vertex 29.5 0 20
      vertex 40 0 40
      vertex 29.3858 0 20.574
    endloop
  endfacet
  facet normal 0 -1 0
    outer loop
      vertex 40 0 0
      vertex 29.5 0 20
      vertex 29.3858 0 19.426
    endloop
  endfacet
  facet normal 0 -1 0
    outer loop
      vertex 27.426 0 18.6142
      vertex 40 0 0
      vertex 28 0 18.5
    endloop
  endfacet
  facet normal 0 -1 0
    outer loop
      vertex 29.5 0 20
      vertex 40 0 0
      vertex 40 0 40
    endloop
  endfacet
  facet normal 0 -1 0
    outer loop
      vertex 29.0607 0 18.9393
      vertex 40 0 0
      vertex 29.3858 0 19.426
    endloop
  endfacet
  facet normal 0 -1 0
    outer loop
      vertex 28.574 0 18.6142
      vertex 40 0 0
      vertex 29.0607 0 18.9393
    endloop
  endfacet
  facet normal 0 -1 0
    outer loop
      vertex 28 0 18.5
      vertex 40 0 0
      vertex 28.574 0 18.6142
    endloop
  endfacet
  facet normal -1 0 0
    outer loop
      vertex -23 5 0
      vertex -23 5.03962 40
      vertex -23 5.03962 0
    endloop
  endfacet
  facet normal -1 -0 0
    outer loop
      vertex -23 5.03962 40
      vertex -23 5 0
      vertex -23 5 40
    endloop
  endfacet
  facet normal 1 -0 0
    outer loop
      vertex 23 5 40
      vertex 23 5.03962 0
      vertex 23 5.03962 40
    endloop
  endfacet
  facet normal 1 0 0
    outer loop
      vertex 23 5.03962 0
      vertex 23 5 40
      vertex 23 5 0
    endloop
  endfacet
  facet normal 0 1 -0
    outer loop
      vertex 14.0528 14 0
      vertex 14 14 40
      vertex 14.0528 14 40
    endloop
  endfacet
  facet normal 0 1 0
    outer loop
      vertex 14 14 40
      vertex 14.0528 14 0
      vertex 14 14 0
    endloop
  endfacet
  facet normal -0.161782 0.986827 0
    outer loop
      vertex -20.5922 5.32805 0
      vertex -22.5127 5.0132 40
      vertex -20.5922 5.32805 40
    endloop
  endfacet
  facet normal -0.161782 0.986827 0
    outer loop
      vertex -22.5127 5.0132 40
      vertex -20.5922 5.32805 0
      vertex -22.5127 5.0132 0
    endloop
  endfacet
  facet normal -0.994138 0.108119 0
    outer loop
      vertex -14.2104 12.0653 0
      vertex -14 14 40
      vertex -14 14 0
    endloop
  endfacet
  facet normal -0.994138 0.108119 0
    outer loop
      vertex -14 14 40
      vertex -14.2104 12.0653 0
      vertex -14.2104 12.0653 40
    endloop
  endfacet
  facet normal -0.947653 0.319301 0
    outer loop
      vertex -14.8318 10.221 0
      vertex -14.2104 12.0653 40
      vertex -14.2104 12.0653 0
    endloop
  endfacet
  facet normal -0.947653 0.319301 0
    outer loop
      vertex -14.2104 12.0653 40
      vertex -14.8318 10.221 0
      vertex -14.8318 10.221 40
    endloop
  endfacet
  facet normal -0.725996 0.687699 0
    outer loop
      vertex -17.1735 7.14054 0
      vertex -15.8352 8.55343 40
      vertex -15.8352 8.55343 0
    endloop
  endfacet
  facet normal -0.725996 0.687699 0
    outer loop
      vertex -15.8352 8.55343 40
      vertex -17.1735 7.14054 0
      vertex -17.1735 7.14054 40
    endloop
  endfacet
  facet normal -0.561187 0.827689 0
    outer loop
      vertex -17.1735 7.14054 0
      vertex -18.7843 6.04839 40
      vertex -17.1735 7.14054 40
    endloop
  endfacet
  facet normal -0.561187 0.827689 0
    outer loop
      vertex -18.7843 6.04839 40
      vertex -17.1735 7.14054 0
      vertex -18.7843 6.04839 0
    endloop
  endfacet
  facet normal -0.370139 0.928977 0
    outer loop
      vertex -18.7843 6.04839 0
      vertex -20.5922 5.32805 40
      vertex -18.7843 6.04839 40
    endloop
  endfacet
  facet normal -0.370139 0.928977 0
    outer loop
      vertex -20.5922 5.32805 40
      vertex -18.7843 6.04839 0
      vertex -20.5922 5.32805 0
    endloop
  endfacet
  facet normal -0.856857 0.515554 0
    outer loop
      vertex -15.8352 8.55343 0
      vertex -14.8318 10.221 40
      vertex -14.8318 10.221 0
    endloop
  endfacet
  facet normal -0.856857 0.515554 0
    outer loop
      vertex -14.8318 10.221 40
      vertex -15.8352 8.55343 0
      vertex -15.8352 8.55343 40
    endloop
  endfacet
  facet normal 0.0541384 0.998533 -0
    outer loop
      vertex -22.5127 5.0132 0
      vertex -23 5.03962 40
      vertex -22.5127 5.0132 40
    endloop
  endfacet
  facet normal 0.0541384 0.998533 0
    outer loop
      vertex -23 5.03962 40
      vertex -22.5127 5.0132 0
      vertex -23 5.03962 0
    endloop
  endfacet
  facet normal 1 -0 0
    outer loop
      vertex 14.0528 13.0269 40
      vertex 14.0528 14 0
      vertex 14.0528 14 40
    endloop
  endfacet
  facet normal 1 0 0
    outer loop
      vertex 14.0528 14 0
      vertex 14.0528 13.0269 40
      vertex 14.0528 13.0269 0
    endloop
  endfacet
  facet normal 0.976621 0.21497 0
    outer loop
      vertex 14.4711 11.1263 40
      vertex 14.0528 13.0269 0
      vertex 14.0528 13.0269 40
    endloop
  endfacet
  facet normal 0.976621 0.21497 0
    outer loop
      vertex 14.0528 13.0269 0
      vertex 14.4711 11.1263 40
      vertex 14.4711 11.1263 0
    endloop
  endfacet
  facet normal 0.796093 0.605174 0
    outer loop
      vertex 16.466 7.8107 40
      vertex 15.2883 9.36001 0
      vertex 15.2883 9.36001 40
    endloop
  endfacet
  facet normal 0.796093 0.605174 0
    outer loop
      vertex 15.2883 9.36001 0
      vertex 16.466 7.8107 40
      vertex 16.466 7.8107 0
    endloop
  endfacet
  facet normal 0.907575 0.419889 0
    outer loop
      vertex 15.2883 9.36001 40
      vertex 14.4711 11.1263 0
      vertex 14.4711 11.1263 40
    endloop
  endfacet
  facet normal 0.907575 0.419889 0
    outer loop
      vertex 14.4711 11.1263 0
      vertex 15.2883 9.36001 40
      vertex 15.2883 9.36001 0
    endloop
  endfacet
  facet normal 0.647386 0.762162 -0
    outer loop
      vertex 17.9493 6.5508 0
      vertex 16.466 7.8107 40
      vertex 17.9493 6.5508 40
    endloop
  endfacet
  facet normal 0.647386 0.762162 0
    outer loop
      vertex 16.466 7.8107 40
      vertex 17.9493 6.5508 0
      vertex 16.466 7.8107 0
    endloop
  endfacet
  facet normal 0.0541389 0.998533 -0
    outer loop
      vertex 23 5.03962 0
      vertex 21.544 5.11856 40
      vertex 23 5.03962 40
    endloop
  endfacet
  facet normal 0.0541389 0.998533 0
    outer loop
      vertex 21.544 5.11856 40
      vertex 23 5.03962 0
      vertex 21.544 5.11856 0
    endloop
  endfacet
  facet normal 0.267528 0.96355 -0
    outer loop
      vertex 21.544 5.11856 0
      vertex 19.6688 5.63921 40
      vertex 21.544 5.11856 40
    endloop
  endfacet
  facet normal 0.267528 0.96355 0
    outer loop
      vertex 19.6688 5.63921 40
      vertex 21.544 5.11856 0
      vertex 19.6688 5.63921 0
    endloop
  endfacet
  facet normal 0.468408 0.883512 -0
    outer loop
      vertex 19.6688 5.63921 0
      vertex 17.9493 6.5508 40
      vertex 19.6688 5.63921 40
    endloop
  endfacet
  facet normal 0.468408 0.883512 0
    outer loop
      vertex 17.9493 6.5508 40
      vertex 19.6688 5.63921 0
      vertex 17.9493 6.5508 0
    endloop
  endfacet
  facet normal 0.994522 0.104529 0
    outer loop
      vertex 14 14 40
      vertex 13.6941 16.9108 0
      vertex 13.6941 16.9108 40
    endloop
  endfacet
  facet normal 0.994522 0.104529 0
    outer loop
      vertex 13.6941 16.9108 0
      vertex 14 14 40
      vertex 14 14 0
    endloop
  endfacet
  facet normal 0 1 -0
    outer loop
      vertex 1.4634 27.9233 0
      vertex -1.4634 27.9233 40
      vertex 1.4634 27.9233 40
    endloop
  endfacet
  facet normal 0 1 0
    outer loop
      vertex -1.4634 27.9233 40
      vertex 1.4634 27.9233 0
      vertex -1.4634 27.9233 0
    endloop
  endfacet
  facet normal 0.587786 0.809017 -0
    outer loop
      vertex 9.36783 24.404 0
      vertex 7 26.1244 40
      vertex 9.36783 24.404 40
    endloop
  endfacet
  facet normal 0.587786 0.809017 0
    outer loop
      vertex 7 26.1244 40
      vertex 9.36783 24.404 0
      vertex 7 26.1244 0
    endloop
  endfacet
  facet normal -0.743145 0.669131 0
    outer loop
      vertex -11.3262 22.229 0
      vertex -9.36783 24.404 40
      vertex -9.36783 24.404 0
    endloop
  endfacet
  facet normal -0.743145 0.669131 0
    outer loop
      vertex -9.36783 24.404 40
      vertex -11.3262 22.229 0
      vertex -11.3262 22.229 40
    endloop
  endfacet
  facet normal -0.406737 0.913545 0
    outer loop
      vertex -4.32624 27.3148 0
      vertex -7 26.1244 40
      vertex -4.32624 27.3148 40
    endloop
  endfacet
  facet normal -0.406737 0.913545 0
    outer loop
      vertex -7 26.1244 40
      vertex -4.32624 27.3148 0
      vertex -7 26.1244 0
    endloop
  endfacet
  facet normal 0.866025 0.5 0
    outer loop
      vertex 12.7896 19.6943 40
      vertex 11.3262 22.229 0
      vertex 11.3262 22.229 40
    endloop
  endfacet
  facet normal 0.866025 0.5 0
    outer loop
      vertex 11.3262 22.229 0
      vertex 12.7896 19.6943 40
      vertex 12.7896 19.6943 0
    endloop
  endfacet
  facet normal 0.951057 0.309017 0
    outer loop
      vertex 13.6941 16.9108 40
      vertex 12.7896 19.6943 0
      vertex 12.7896 19.6943 40
    endloop
  endfacet
  facet normal 0.951057 0.309017 0
    outer loop
      vertex 12.7896 19.6943 0
      vertex 13.6941 16.9108 40
      vertex 13.6941 16.9108 0
    endloop
  endfacet
  facet normal 0.743145 0.669131 0
    outer loop
      vertex 11.3262 22.229 40
      vertex 9.36783 24.404 0
      vertex 9.36783 24.404 40
    endloop
  endfacet
  facet normal 0.743145 0.669131 0
    outer loop
      vertex 9.36783 24.404 0
      vertex 11.3262 22.229 40
      vertex 11.3262 22.229 0
    endloop
  endfacet
  facet normal 0.207912 0.978148 -0
    outer loop
      vertex 4.32624 27.3148 0
      vertex 1.4634 27.9233 40
      vertex 4.32624 27.3148 40
    endloop
  endfacet
  facet normal 0.207912 0.978148 0
    outer loop
      vertex 1.4634 27.9233 40
      vertex 4.32624 27.3148 0
      vertex 1.4634 27.9233 0
    endloop
  endfacet
  facet normal 0.406737 0.913545 -0
    outer loop
      vertex 7 26.1244 0
      vertex 4.32624 27.3148 40
      vertex 7 26.1244 40
    endloop
  endfacet
  facet normal 0.406737 0.913545 0
    outer loop
      vertex 4.32624 27.3148 40
      vertex 7 26.1244 0
      vertex 4.32624 27.3148 0
    endloop
  endfacet
  facet normal -0.951057 0.309017 0
    outer loop
      vertex -13.6941 16.9108 0
      vertex -12.7896 19.6943 40
      vertex -12.7896 19.6943 0
    endloop
  endfacet
  facet normal -0.951057 0.309017 0
    outer loop
      vertex -12.7896 19.6943 40
      vertex -13.6941 16.9108 0
      vertex -13.6941 16.9108 40
    endloop
  endfacet
  facet normal -0.866025 0.5 0
    outer loop
      vertex -12.7896 19.6943 0
      vertex -11.3262 22.229 40
      vertex -11.3262 22.229 0
    endloop
  endfacet
  facet normal -0.866025 0.5 0
    outer loop
      vertex -11.3262 22.229 40
      vertex -12.7896 19.6943 0
      vertex -12.7896 19.6943 40
    endloop
  endfacet
  facet normal -0.994522 0.104529 0
    outer loop
      vertex -14 14 0
      vertex -13.6941 16.9108 40
      vertex -13.6941 16.9108 0
    endloop
  endfacet
  facet normal -0.994522 0.104529 0
    outer loop
      vertex -13.6941 16.9108 40
      vertex -14 14 0
      vertex -14 14 40
    endloop
  endfacet
  facet normal -0.587785 0.809017 0
    outer loop
      vertex -7 26.1244 0
      vertex -9.36783 24.404 40
      vertex -7 26.1244 40
    endloop
  endfacet
  facet normal -0.587785 0.809017 0
    outer loop
      vertex -9.36783 24.404 40
      vertex -7 26.1244 0
      vertex -9.36783 24.404 0
    endloop
  endfacet
  facet normal -0.207912 0.978148 0
    outer loop
      vertex -1.4634 27.9233 0
      vertex -4.32624 27.3148 40
      vertex -1.4634 27.9233 40
    endloop
  endfacet
  facet normal -0.207912 0.978148 0
    outer loop
      vertex -4.32624 27.3148 40
      vertex -1.4634 27.9233 0
      vertex -4.32624 27.3148 0
    endloop
  endfacet
  facet normal -0.994138 -0.108119 0
    outer loop
      vertex 9 14 0
      vertex 8.78958 15.9347 40
      vertex 8.78958 15.9347 0
    endloop
  endfacet
  facet normal -0.994138 -0.108119 0
    outer loop
      vertex 8.78958 15.9347 40
      vertex 9 14 0
      vertex 9 14 40
    endloop
  endfacet
  facet normal 0.976621 -0.21497 0
    outer loop
      vertex -8.94724 14.9731 40
      vertex -8.52888 16.8737 0
      vertex -8.52888 16.8737 40
    endloop
  endfacet
  facet normal 0.976621 -0.21497 0
    outer loop
      vertex -8.52888 16.8737 0
      vertex -8.94724 14.9731 40
      vertex -8.94724 14.9731 0
    endloop
  endfacet
  facet normal -0.856857 -0.515554 0
    outer loop
      vertex 8.16818 17.779 0
      vertex 7.16484 19.4466 40
      vertex 7.16484 19.4466 0
    endloop
  endfacet
  facet normal -0.856857 -0.515554 0
    outer loop
      vertex 7.16484 19.4466 40
      vertex 8.16818 17.779 0
      vertex 8.16818 17.779 40
    endloop
  endfacet
  facet normal -0.947653 -0.319301 0
    outer loop
      vertex 8.78958 15.9347 0
      vertex 8.16818 17.779 40
      vertex 8.16818 17.779 0
    endloop
  endfacet
  facet normal -0.947653 -0.319301 0
    outer loop
      vertex 8.16818 17.779 40
      vertex 8.78958 15.9347 0
      vertex 8.78958 15.9347 40
    endloop
  endfacet
  facet normal -0.370139 -0.928976 0
    outer loop
      vertex 2.40775 22.6719 0
      vertex 4.21568 21.9516 40
      vertex 2.40775 22.6719 40
    endloop
  endfacet
  facet normal -0.370139 -0.928976 -0
    outer loop
      vertex 4.21568 21.9516 40
      vertex 2.40775 22.6719 0
      vertex 4.21568 21.9516 0
    endloop
  endfacet
  facet normal 0.267529 -0.96355 0
    outer loop
      vertex -3.33124 22.3608 0
      vertex -1.45604 22.8814 40
      vertex -3.33124 22.3608 40
    endloop
  endfacet
  facet normal 0.267529 -0.96355 0
    outer loop
      vertex -1.45604 22.8814 40
      vertex -3.33124 22.3608 0
      vertex -1.45604 22.8814 0
    endloop
  endfacet
  facet normal 0.907575 -0.41989 0
    outer loop
      vertex -8.52888 16.8737 40
      vertex -7.71171 18.64 0
      vertex -7.71171 18.64 40
    endloop
  endfacet
  facet normal 0.907575 -0.41989 0
    outer loop
      vertex -7.71171 18.64 0
      vertex -8.52888 16.8737 40
      vertex -8.52888 16.8737 0
    endloop
  endfacet
  facet normal -0.370138 0.928977 0
    outer loop
      vertex 4.21568 6.04839 0
      vertex 2.40775 5.32805 40
      vertex 4.21568 6.04839 40
    endloop
  endfacet
  facet normal -0.370138 0.928977 0
    outer loop
      vertex 2.40775 5.32805 40
      vertex 4.21568 6.04839 0
      vertex 2.40775 5.32805 0
    endloop
  endfacet
  facet normal -0.725996 -0.687699 0
    outer loop
      vertex 7.16484 19.4466 0
      vertex 5.82648 20.8595 40
      vertex 5.82648 20.8595 0
    endloop
  endfacet
  facet normal -0.725996 -0.687699 0
    outer loop
      vertex 5.82648 20.8595 40
      vertex 7.16484 19.4466 0
      vertex 7.16484 19.4466 40
    endloop
  endfacet
  facet normal 0.0541389 -0.998533 0
    outer loop
      vertex -1.45604 22.8814 0
      vertex 0.487249 22.9868 40
      vertex -1.45604 22.8814 40
    endloop
  endfacet
  facet normal 0.0541389 -0.998533 0
    outer loop
      vertex 0.487249 22.9868 40
      vertex -1.45604 22.8814 0
      vertex 0.487249 22.9868 0
    endloop
  endfacet
  facet normal -0.561186 -0.82769 0
    outer loop
      vertex 4.21568 21.9516 0
      vertex 5.82648 20.8595 40
      vertex 4.21568 21.9516 40
    endloop
  endfacet
  facet normal -0.561186 -0.82769 -0
    outer loop
      vertex 5.82648 20.8595 40
      vertex 4.21568 21.9516 0
      vertex 5.82648 20.8595 0
    endloop
  endfacet
  facet normal 1 -0 0
    outer loop
      vertex -8.94724 13.0269 40
      vertex -8.94724 14.9731 0
      vertex -8.94724 14.9731 40
    endloop
  endfacet
  facet normal 1 0 0
    outer loop
      vertex -8.94724 14.9731 0
      vertex -8.94724 13.0269 40
      vertex -8.94724 13.0269 0
    endloop
  endfacet
  facet normal 0.796093 -0.605174 0
    outer loop
      vertex -7.71171 18.64 40
      vertex -6.53396 20.1893 0
      vertex -6.53396 20.1893 40
    endloop
  endfacet
  facet normal 0.796093 -0.605174 0
    outer loop
      vertex -6.53396 20.1893 0
      vertex -7.71171 18.64 40
      vertex -7.71171 18.64 0
    endloop
  endfacet
  facet normal 0.468409 -0.883512 0
    outer loop
      vertex -5.05068 21.4492 0
      vertex -3.33124 22.3608 40
      vertex -5.05068 21.4492 40
    endloop
  endfacet
  facet normal 0.468409 -0.883512 0
    outer loop
      vertex -3.33124 22.3608 40
      vertex -5.05068 21.4492 0
      vertex -3.33124 22.3608 0
    endloop
  endfacet
  facet normal 0.647386 -0.762162 0
    outer loop
      vertex -6.53396 20.1893 0
      vertex -5.05068 21.4492 40
      vertex -6.53396 20.1893 40
    endloop
  endfacet
  facet normal 0.647386 -0.762162 0
    outer loop
      vertex -5.05068 21.4492 40
      vertex -6.53396 20.1893 0
      vertex -5.05068 21.4492 0
    endloop
  endfacet
  facet normal -0.947653 0.319301 0
    outer loop
      vertex 8.16818 10.221 0
      vertex 8.78958 12.0653 40
      vertex 8.78958 12.0653 0
    endloop
  endfacet
  facet normal -0.947653 0.319301 0
    outer loop
      vertex 8.78958 12.0653 40
      vertex 8.16818 10.221 0
      vertex 8.16818 10.221 40
    endloop
  endfacet
  facet normal 0.0541389 0.998533 -0
    outer loop
      vertex 0.487249 5.0132 0
      vertex -1.45604 5.11856 40
      vertex 0.487249 5.0132 40
    endloop
  endfacet
  facet normal 0.0541389 0.998533 0
    outer loop
      vertex -1.45604 5.11856 40
      vertex 0.487249 5.0132 0
      vertex -1.45604 5.11856 0
    endloop
  endfacet
  facet normal 0.976621 0.21497 0
    outer loop
      vertex -8.52888 11.1263 40
      vertex -8.94724 13.0269 0
      vertex -8.94724 13.0269 40
    endloop
  endfacet
  facet normal 0.976621 0.21497 0
    outer loop
      vertex -8.94724 13.0269 0
      vertex -8.52888 11.1263 40
      vertex -8.52888 11.1263 0
    endloop
  endfacet
  facet normal -0.725996 0.687699 0
    outer loop
      vertex 5.82648 7.14054 0
      vertex 7.16484 8.55343 40
      vertex 7.16484 8.55343 0
    endloop
  endfacet
  facet normal -0.725996 0.687699 0
    outer loop
      vertex 7.16484 8.55343 40
      vertex 5.82648 7.14054 0
      vertex 5.82648 7.14054 40
    endloop
  endfacet
  facet normal -0.994138 0.108119 0
    outer loop
      vertex 8.78958 12.0653 0
      vertex 9 14 40
      vertex 9 14 0
    endloop
  endfacet
  facet normal -0.994138 0.108119 0
    outer loop
      vertex 9 14 40
      vertex 8.78958 12.0653 0
      vertex 8.78958 12.0653 40
    endloop
  endfacet
  facet normal -0.161782 -0.986826 0
    outer loop
      vertex 0.487249 22.9868 0
      vertex 2.40775 22.6719 40
      vertex 0.487249 22.9868 40
    endloop
  endfacet
  facet normal -0.161782 -0.986826 -0
    outer loop
      vertex 2.40775 22.6719 40
      vertex 0.487249 22.9868 0
      vertex 2.40775 22.6719 0
    endloop
  endfacet
  facet normal 0.267528 0.96355 -0
    outer loop
      vertex -1.45604 5.11856 0
      vertex -3.33124 5.63921 40
      vertex -1.45604 5.11856 40
    endloop
  endfacet
  facet normal 0.267528 0.96355 0
    outer loop
      vertex -3.33124 5.63921 40
      vertex -1.45604 5.11856 0
      vertex -3.33124 5.63921 0
    endloop
  endfacet
  facet normal -0.856857 0.515554 0
    outer loop
      vertex 7.16484 8.55343 0
      vertex 8.16818 10.221 40
      vertex 8.16818 10.221 0
    endloop
  endfacet
  facet normal -0.856857 0.515554 0
    outer loop
      vertex 8.16818 10.221 40
      vertex 7.16484 8.55343 0
      vertex 7.16484 8.55343 40
    endloop
  endfacet
  facet normal 0.796093 0.605174 0
    outer loop
      vertex -6.53396 7.8107 40
      vertex -7.71171 9.36001 0
      vertex -7.71171 9.36001 40
    endloop
  endfacet
  facet normal 0.796093 0.605174 0
    outer loop
      vertex -7.71171 9.36001 0
      vertex -6.53396 7.8107 40
      vertex -6.53396 7.8107 0
    endloop
  endfacet
  facet normal 0.907575 0.419889 0
    outer loop
      vertex -7.71171 9.36001 40
      vertex -8.52888 11.1263 0
      vertex -8.52888 11.1263 40
    endloop
  endfacet
  facet normal 0.907575 0.419889 0
    outer loop
      vertex -8.52888 11.1263 0
      vertex -7.71171 9.36001 40
      vertex -7.71171 9.36001 0
    endloop
  endfacet
  facet normal 0.647386 0.762162 -0
    outer loop
      vertex -5.05068 6.5508 0
      vertex -6.53396 7.8107 40
      vertex -5.05068 6.5508 40
    endloop
  endfacet
  facet normal 0.647386 0.762162 0
    outer loop
      vertex -6.53396 7.8107 40
      vertex -5.05068 6.5508 0
      vertex -6.53396 7.8107 0
    endloop
  endfacet
  facet normal -0.161782 0.986827 0
    outer loop
      vertex 2.40775 5.32805 0
      vertex 0.487249 5.0132 40
      vertex 2.40775 5.32805 40
    endloop
  endfacet
  facet normal -0.161782 0.986827 0
    outer loop
      vertex 0.487249 5.0132 40
      vertex 2.40775 5.32805 0
      vertex 0.487249 5.0132 0
    endloop
  endfacet
  facet normal 0.468408 0.883512 -0
    outer loop
      vertex -3.33124 5.63921 0
      vertex -5.05068 6.5508 40
      vertex -3.33124 5.63921 40
    endloop
  endfacet
  facet normal 0.468408 0.883512 0
    outer loop
      vertex -5.05068 6.5508 40
      vertex -3.33124 5.63921 0
      vertex -5.05068 6.5508 0
    endloop
  endfacet
  facet normal -0.561187 0.827689 0
    outer loop
      vertex 5.82648 7.14054 0
      vertex 4.21568 6.04839 40
      vertex 5.82648 7.14054 40
    endloop
  endfacet
  facet normal -0.561187 0.827689 0
    outer loop
      vertex 4.21568 6.04839 40
      vertex 5.82648 7.14054 0
      vertex 4.21568 6.04839 0
    endloop
  endfacet
  facet normal -0.980785 0 -0.195092
    outer loop
      vertex -26.5 0 20
      vertex -26.6142 5 20.574
      vertex -26.5 5 20
    endloop
  endfacet
  facet normal -0.980785 -0 -0.195092
    outer loop
      vertex -26.6142 5 20.574
      vertex -26.5 0 20
      vertex -26.6142 0 20.574
    endloop
  endfacet
  facet normal -0.831471 0 -0.555568
    outer loop
      vertex -26.6142 0 20.574
      vertex -26.9393 5 21.0607
      vertex -26.6142 5 20.574
    endloop
  endfacet
  facet normal -0.831471 -0 -0.555568
    outer loop
      vertex -26.9393 5 21.0607
      vertex -26.6142 0 20.574
      vertex -26.9393 0 21.0607
    endloop
  endfacet
  facet normal 0.980785 0 -0.195092
    outer loop
      vertex -29.3858 0 20.574
      vertex -29.5 5 20
      vertex -29.3858 5 20.574
    endloop
  endfacet
  facet normal 0.980785 0 -0.195092
    outer loop
      vertex -29.5 5 20
      vertex -29.3858 0 20.574
      vertex -29.5 0 20
    endloop
  endfacet
  facet normal -0.195092 0 -0.980785
    outer loop
      vertex -28 0 21.5
      vertex -27.426 5 21.3858
      vertex -27.426 0 21.3858
    endloop
  endfacet
  facet normal -0.195092 0 -0.980785
    outer loop
      vertex -27.426 5 21.3858
      vertex -28 0 21.5
      vertex -28 5 21.5
    endloop
  endfacet
  facet normal -0.980785 0 0.195092
    outer loop
      vertex -26.6142 0 19.426
      vertex -26.5 5 20
      vertex -26.6142 5 19.426
    endloop
  endfacet
  facet normal -0.980785 0 0.195092
    outer loop
      vertex -26.5 5 20
      vertex -26.6142 0 19.426
      vertex -26.5 0 20
    endloop
  endfacet
  facet normal 0.195092 0 0.980785
    outer loop
      vertex -28.574 5 18.6142
      vertex -28 0 18.5
      vertex -28 5 18.5
    endloop
  endfacet
  facet normal 0.195092 0 0.980785
    outer loop
      vertex -28 0 18.5
      vertex -28.574 5 18.6142
      vertex -28.574 0 18.6142
    endloop
  endfacet
  facet normal 0.55557 0 -0.83147
    outer loop
      vertex -29.0607 0 21.0607
      vertex -28.574 5 21.3858
      vertex -28.574 0 21.3858
    endloop
  endfacet
  facet normal 0.55557 0 -0.83147
    outer loop
      vertex -28.574 5 21.3858
      vertex -29.0607 0 21.0607
      vertex -29.0607 5 21.0607
    endloop
  endfacet
  facet normal -0.555566 0 0.831472
    outer loop
      vertex -27.426 5 18.6142
      vertex -26.9393 0 18.9393
      vertex -26.9393 5 18.9393
    endloop
  endfacet
  facet normal -0.555566 0 0.831472
    outer loop
      vertex -26.9393 0 18.9393
      vertex -27.426 5 18.6142
      vertex -27.426 0 18.6142
    endloop
  endfacet
  facet normal -0.195092 0 0.980785
    outer loop
      vertex -28 5 18.5
      vertex -27.426 0 18.6142
      vertex -27.426 5 18.6142
    endloop
  endfacet
  facet normal -0.195092 0 0.980785
    outer loop
      vertex -27.426 0 18.6142
      vertex -28 5 18.5
      vertex -28 0 18.5
    endloop
  endfacet
  facet normal -0.831472 0 0.555566
    outer loop
      vertex -26.9393 0 18.9393
      vertex -26.6142 5 19.426
      vertex -26.9393 5 18.9393
    endloop
  endfacet
  facet normal -0.831472 0 0.555566
    outer loop
      vertex -26.6142 5 19.426
      vertex -26.9393 0 18.9393
      vertex -26.6142 0 19.426
    endloop
  endfacet
  facet normal -0.555569 0 -0.831471
    outer loop
      vertex -27.426 0 21.3858
      vertex -26.9393 5 21.0607
      vertex -26.9393 0 21.0607
    endloop
  endfacet
  facet normal -0.555569 0 -0.831471
    outer loop
      vertex -26.9393 5 21.0607
      vertex -27.426 0 21.3858
      vertex -27.426 5 21.3858
    endloop
  endfacet
  facet normal 0.83147 0 -0.55557
    outer loop
      vertex -29.0607 0 21.0607
      vertex -29.3858 5 20.574
      vertex -29.0607 5 21.0607
    endloop
  endfacet
  facet normal 0.83147 0 -0.55557
    outer loop
      vertex -29.3858 5 20.574
      vertex -29.0607 0 21.0607
      vertex -29.3858 0 20.574
    endloop
  endfacet
  facet normal 0.195092 0 -0.980785
    outer loop
      vertex -28.574 0 21.3858
      vertex -28 5 21.5
      vertex -28 0 21.5
    endloop
  endfacet
  facet normal 0.195092 0 -0.980785
    outer loop
      vertex -28 5 21.5
      vertex -28.574 0 21.3858
      vertex -28.574 5 21.3858
    endloop
  endfacet
  facet normal 0.555568 0 0.831471
    outer loop
      vertex -29.0607 5 18.9393
      vertex -28.574 0 18.6142
      vertex -28.574 5 18.6142
    endloop
  endfacet
  facet normal 0.555568 0 0.831471
    outer loop
      vertex -28.574 0 18.6142
      vertex -29.0607 5 18.9393
      vertex -29.0607 0 18.9393
    endloop
  endfacet
  facet normal 0.980785 -0 0.195092
    outer loop
      vertex -29.5 0 20
      vertex -29.3858 5 19.426
      vertex -29.5 5 20
    endloop
  endfacet
  facet normal 0.980785 0 0.195092
    outer loop
      vertex -29.3858 5 19.426
      vertex -29.5 0 20
      vertex -29.3858 0 19.426
    endloop
  endfacet
  facet normal 0.831471 -0 0.555569
    outer loop
      vertex -29.3858 0 19.426
      vertex -29.0607 5 18.9393
      vertex -29.3858 5 19.426
    endloop
  endfacet
  facet normal 0.831471 0 0.555569
    outer loop
      vertex -29.0607 5 18.9393
      vertex -29.3858 0 19.426
      vertex -29.0607 0 18.9393
    endloop
  endfacet
  facet normal -0.980785 0 -0.195092
    outer loop
      vertex 29.5 0 20
      vertex 29.3858 5 20.574
      vertex 29.5 5 20
    endloop
  endfacet
  facet normal -0.980785 -0 -0.195092
    outer loop
      vertex 29.3858 5 20.574
      vertex 29.5 0 20
      vertex 29.3858 0 20.574
    endloop
  endfacet
  facet normal -0.83147 0 -0.55557
    outer loop
      vertex 29.3858 0 20.574
      vertex 29.0607 5 21.0607
      vertex 29.3858 5 20.574
    endloop
  endfacet
  facet normal -0.83147 -0 -0.55557
    outer loop
      vertex 29.0607 5 21.0607
      vertex 29.3858 0 20.574
      vertex 29.0607 0 21.0607
    endloop
  endfacet
  facet normal 0.195092 0 -0.980785
    outer loop
      vertex 27.426 0 21.3858
      vertex 28 5 21.5
      vertex 28 0 21.5
    endloop
  endfacet
  facet normal 0.195092 0 -0.980785
    outer loop
      vertex 28 5 21.5
      vertex 27.426 0 21.3858
      vertex 27.426 5 21.3858
    endloop
  endfacet
  facet normal -0.55557 0 -0.83147
    outer loop
      vertex 28.574 0 21.3858
      vertex 29.0607 5 21.0607
      vertex 29.0607 0 21.0607
    endloop
  endfacet
  facet normal -0.55557 0 -0.83147
    outer loop
      vertex 29.0607 5 21.0607
      vertex 28.574 0 21.3858
      vertex 28.574 5 21.3858
    endloop
  endfacet
  facet normal 0.831471 0 -0.555568
    outer loop
      vertex 26.9393 0 21.0607
      vertex 26.6142 5 20.574
      vertex 26.9393 5 21.0607
    endloop
  endfacet
  facet normal 0.831471 0 -0.555568
    outer loop
      vertex 26.6142 5 20.574
      vertex 26.9393 0 21.0607
      vertex 26.6142 0 20.574
    endloop
  endfacet
  facet normal 0.555569 0 -0.831471
    outer loop
      vertex 26.9393 0 21.0607
      vertex 27.426 5 21.3858
      vertex 27.426 0 21.3858
    endloop
  endfacet
  facet normal 0.555569 0 -0.831471
    outer loop
      vertex 27.426 5 21.3858
      vertex 26.9393 0 21.0607
      vertex 26.9393 5 21.0607
    endloop
  endfacet
  facet normal -0.831471 0 0.555569
    outer loop
      vertex 29.0607 0 18.9393
      vertex 29.3858 5 19.426
      vertex 29.0607 5 18.9393
    endloop
  endfacet
  facet normal -0.831471 0 0.555569
    outer loop
      vertex 29.3858 5 19.426
      vertex 29.0607 0 18.9393
      vertex 29.3858 0 19.426
    endloop
  endfacet
  facet normal -0.980785 0 0.195092
    outer loop
      vertex 29.3858 0 19.426
      vertex 29.5 5 20
      vertex 29.3858 5 19.426
    endloop
  endfacet
  facet normal -0.980785 0 0.195092
    outer loop
      vertex 29.5 5 20
      vertex 29.3858 0 19.426
      vertex 29.5 0 20
    endloop
  endfacet
  facet normal 0.831472 -0 0.555566
    outer loop
      vertex 26.6142 0 19.426
      vertex 26.9393 5 18.9393
      vertex 26.6142 5 19.426
    endloop
  endfacet
  facet normal 0.831472 0 0.555566
    outer loop
      vertex 26.9393 5 18.9393
      vertex 26.6142 0 19.426
      vertex 26.9393 0 18.9393
    endloop
  endfacet
  facet normal -0.195092 0 -0.980785
    outer loop
      vertex 28 0 21.5
      vertex 28.574 5 21.3858
      vertex 28.574 0 21.3858
    endloop
  endfacet
  facet normal -0.195092 0 -0.980785
    outer loop
      vertex 28.574 5 21.3858
      vertex 28 0 21.5
      vertex 28 5 21.5
    endloop
  endfacet
  facet normal 0.980785 0 -0.195092
    outer loop
      vertex 26.6142 0 20.574
      vertex 26.5 5 20
      vertex 26.6142 5 20.574
    endloop
  endfacet
  facet normal 0.980785 0 -0.195092
    outer loop
      vertex 26.5 5 20
      vertex 26.6142 0 20.574
      vertex 26.5 0 20
    endloop
  endfacet
  facet normal 0.980785 -0 0.195092
    outer loop
      vertex 26.5 0 20
      vertex 26.6142 5 19.426
      vertex 26.5 5 20
    endloop
  endfacet
  facet normal 0.980785 0 0.195092
    outer loop
      vertex 26.6142 5 19.426
      vertex 26.5 0 20
      vertex 26.6142 0 19.426
    endloop
  endfacet
  facet normal -0.555568 0 0.831471
    outer loop
      vertex 28.574 5 18.6142
      vertex 29.0607 0 18.9393
      vertex 29.0607 5 18.9393
    endloop
  endfacet
  facet normal -0.555568 0 0.831471
    outer loop
      vertex 29.0607 0 18.9393
      vertex 28.574 5 18.6142
      vertex 28.574 0 18.6142
    endloop
  endfacet
  facet normal -0.195092 0 0.980785
    outer loop
      vertex 28 5 18.5
      vertex 28.574 0 18.6142
      vertex 28.574 5 18.6142
    endloop
  endfacet
  facet normal -0.195092 0 0.980785
    outer loop
      vertex 28.574 0 18.6142
      vertex 28 5 18.5
      vertex 28 0 18.5
    endloop
  endfacet
  facet normal 0.555566 0 0.831472
    outer loop
      vertex 26.9393 5 18.9393
      vertex 27.426 0 18.6142
      vertex 27.426 5 18.6142
    endloop
  endfacet
  facet normal 0.555566 0 0.831472
    outer loop
      vertex 27.426 0 18.6142
      vertex 26.9393 5 18.9393
      vertex 26.9393 0 18.9393
    endloop
  endfacet
  facet normal 0.195092 0 0.980785
    outer loop
      vertex 27.426 5 18.6142
      vertex 28 0 18.5
      vertex 28 5 18.5
    endloop
  endfacet
  facet normal 0.195092 0 0.980785
    outer loop
      vertex 28 0 18.5
      vertex 27.426 5 18.6142
      vertex 27.426 0 18.6142
    endloop
  endfacet
endsolid OpenSCAD_Model
