solid OpenSCAD_Model
  facet normal 0.671559 0.740951 -0
    outer loop
      vertex 5.65685 5.65685 0
      vertex 5.07515 6.18408 60
      vertex 5.65685 5.65685 60
    endloop
  endfacet
  facet normal 0.671559 0.740951 0
    outer loop
      vertex 5.07515 6.18408 60
      vertex 5.65685 5.65685 0
      vertex 5.07515 6.18408 0
    endloop
  endfacet
  facet normal -0.33689 0.941544 0
    outer loop
      vertex -2.32228 7.65552 0
      vertex -3.06147 7.39104 60
      vertex -2.32228 7.65552 60
    endloop
  endfacet
  facet normal -0.33689 0.941544 0
    outer loop
      vertex -3.06147 7.39104 60
      vertex -2.32228 7.65552 0
      vertex -3.06147 7.39104 0
    endloop
  endfacet
  facet normal -0.903989 0.427556 0
    outer loop
      vertex -7.39104 3.06147 0
      vertex -7.05537 3.77117 60
      vertex -7.05537 3.77117 0
    endloop
  endfacet
  facet normal -0.903989 0.427556 0
    outer loop
      vertex -7.05537 3.77117 60
      vertex -7.39104 3.06147 0
      vertex -7.39104 3.06147 60
    endloop
  endfacet
  facet normal 0.903989 -0.427556 0
    outer loop
      vertex 7.05537 -3.77117 60
      vertex 7.39104 -3.06147 0
      vertex 7.39104 -3.06147 60
    endloop
  endfacet
  facet normal 0.903989 -0.427556 0
    outer loop
      vertex 7.39104 -3.06147 0
      vertex 7.05537 -3.77117 60
      vertex 7.05537 -3.77117 0
    endloop
  endfacet
  facet normal -0.427556 -0.903989 0
    outer loop
      vertex -3.77117 -7.05537 0
      vertex -3.06147 -7.39104 60
      vertex -3.77117 -7.05537 60
    endloop
  endfacet
  facet normal -0.427556 -0.903989 -0
    outer loop
      vertex -3.06147 -7.39104 60
      vertex -3.77117 -7.05537 0
      vertex -3.06147 -7.39104 0
    endloop
  endfacet
  facet normal 0.941544 0.33689 0
    outer loop
      vertex 7.65552 2.32228 60
      vertex 7.39104 3.06147 0
      vertex 7.39104 3.06147 60
    endloop
  endfacet
  facet normal 0.941544 0.33689 0
    outer loop
      vertex 7.39104 3.06147 0
      vertex 7.65552 2.32228 60
      vertex 7.65552 2.32228 0
    endloop
  endfacet
  facet normal 0.989177 0.14673 0
    outer loop
      vertex 7.96148 0.784137 60
      vertex 7.84628 1.56072 0
      vertex 7.84628 1.56072 60
    endloop
  endfacet
  facet normal 0.989177 0.14673 0
    outer loop
      vertex 7.84628 1.56072 0
      vertex 7.96148 0.784137 60
      vertex 7.96148 0.784137 0
    endloop
  endfacet
  facet normal 0.903989 0.427556 0
    outer loop
      vertex 7.39104 3.06147 60
      vertex 7.05537 3.77117 0
      vertex 7.05537 3.77117 60
    endloop
  endfacet
  facet normal 0.903989 0.427556 0
    outer loop
      vertex 7.05537 3.77117 0
      vertex 7.39104 3.06147 60
      vertex 7.39104 3.06147 0
    endloop
  endfacet
  facet normal 0.427556 0.903989 -0
    outer loop
      vertex 3.77117 7.05537 0
      vertex 3.06147 7.39104 60
      vertex 3.77117 7.05537 60
    endloop
  endfacet
  facet normal 0.427556 0.903989 0
    outer loop
      vertex 3.06147 7.39104 60
      vertex 3.77117 7.05537 0
      vertex 3.06147 7.39104 0
    endloop
  endfacet
  facet normal 0.14673 0.989177 -0
    outer loop
      vertex 1.56072 7.84628 0
      vertex 0.784137 7.96148 60
      vertex 1.56072 7.84628 60
    endloop
  endfacet
  facet normal 0.14673 0.989177 0
    outer loop
      vertex 0.784137 7.96148 60
      vertex 1.56072 7.84628 0
      vertex 0.784137 7.96148 0
    endloop
  endfacet
  facet normal -0.989177 0.14673 0
    outer loop
      vertex -7.96148 0.784137 0
      vertex -7.84628 1.56072 60
      vertex -7.84628 1.56072 0
    endloop
  endfacet
  facet normal -0.989177 0.14673 0
    outer loop
      vertex -7.84628 1.56072 60
      vertex -7.96148 0.784137 0
      vertex -7.96148 0.784137 60
    endloop
  endfacet
  facet normal -0.740951 0.671559 0
    outer loop
      vertex -6.18408 5.07515 0
      vertex -5.65685 5.65685 60
      vertex -5.65685 5.65685 0
    endloop
  endfacet
  facet normal -0.740951 0.671559 0
    outer loop
      vertex -5.65685 5.65685 60
      vertex -6.18408 5.07515 0
      vertex -6.18408 5.07515 60
    endloop
  endfacet
  facet normal -0.14673 0.989177 0
    outer loop
      vertex -0.784137 7.96148 0
      vertex -1.56072 7.84628 60
      vertex -0.784137 7.96148 60
    endloop
  endfacet
  facet normal -0.14673 0.989177 0
    outer loop
      vertex -1.56072 7.84628 60
      vertex -0.784137 7.96148 0
      vertex -1.56072 7.84628 0
    endloop
  endfacet
  facet normal 0.989177 -0.14673 0
    outer loop
      vertex 7.84628 -1.56072 60
      vertex 7.96148 -0.784137 0
      vertex 7.96148 -0.784137 60
    endloop
  endfacet
  facet normal 0.989177 -0.14673 0
    outer loop
      vertex 7.96148 -0.784137 0
      vertex 7.84628 -1.56072 60
      vertex 7.84628 -1.56072 0
    endloop
  endfacet
  facet normal 0.740951 -0.671559 0
    outer loop
      vertex 5.65685 -5.65685 60
      vertex 6.18408 -5.07515 0
      vertex 6.18408 -5.07515 60
    endloop
  endfacet
  facet normal 0.740951 -0.671559 0
    outer loop
      vertex 6.18408 -5.07515 0
      vertex 5.65685 -5.65685 60
      vertex 5.65685 -5.65685 0
    endloop
  endfacet
  facet normal -0.14673 -0.989177 0
    outer loop
      vertex -1.56072 -7.84628 0
      vertex -0.784137 -7.96148 60
      vertex -1.56072 -7.84628 60
    endloop
  endfacet
  facet normal -0.14673 -0.989177 -0
    outer loop
      vertex -0.784137 -7.96148 60
      vertex -1.56072 -7.84628 0
      vertex -0.784137 -7.96148 0
    endloop
  endfacet
  facet normal -0.671559 -0.740951 0
    outer loop
      vertex -5.65685 -5.65685 0
      vertex -5.07515 -6.18408 60
      vertex -5.65685 -5.65685 60
    endloop
  endfacet
  facet normal -0.671559 -0.740951 -0
    outer loop
      vertex -5.07515 -6.18408 60
      vertex -5.65685 -5.65685 0
      vertex -5.07515 -6.18408 0
    endloop
  endfacet
  facet normal 0 0 -1
    outer loop
      vertex 5 0 0
      vertex 8 0 0
      vertex 7.96148 -0.784137 0
    endloop
  endfacet
  facet normal 0 0 -1
    outer loop
      vertex 5 0 0
      vertex 7.96148 -0.784137 0
      vertex 7.84628 -1.56072 0
    endloop
  endfacet
  facet normal 0 0 -1
    outer loop
      vertex 8 0 0
      vertex 5 0 0
      vertex 7.96148 0.784137 0
    endloop
  endfacet
  facet normal 0 0 -1
    outer loop
      vertex 4.6194 -1.91342 0
      vertex 7.84628 -1.56072 0
      vertex 7.65552 -2.32228 0
    endloop
  endfacet
  facet normal -0 0 -1
    outer loop
      vertex 7.96148 0.784137 0
      vertex 5 0 0
      vertex 7.84628 1.56072 0
    endloop
  endfacet
  facet normal 0 0 -1
    outer loop
      vertex 4.6194 -1.91342 0
      vertex 7.65552 -2.32228 0
      vertex 7.39104 -3.06147 0
    endloop
  endfacet
  facet normal 0 0 -1
    outer loop
      vertex 4.6194 1.91342 0
      vertex 7.84628 1.56072 0
      vertex 5 0 0
    endloop
  endfacet
  facet normal 0 0 -1
    outer loop
      vertex 4.6194 -1.91342 0
      vertex 7.39104 -3.06147 0
      vertex 7.05537 -3.77117 0
    endloop
  endfacet
  facet normal 0 0 -1
    outer loop
      vertex 7.84628 1.56072 0
      vertex 4.6194 1.91342 0
      vertex 7.65552 2.32228 0
    endloop
  endfacet
  facet normal 0 0 -1
    outer loop
      vertex 4.6194 -1.91342 0
      vertex 7.05537 -3.77117 0
      vertex 6.65176 -4.44456 0
    endloop
  endfacet
  facet normal -0 0 -1
    outer loop
      vertex 7.65552 2.32228 0
      vertex 4.6194 1.91342 0
      vertex 7.39104 3.06147 0
    endloop
  endfacet
  facet normal 0 0 -1
    outer loop
      vertex 3.53553 -3.53553 0
      vertex 6.65176 -4.44456 0
      vertex 6.18408 -5.07515 0
    endloop
  endfacet
  facet normal -0 0 -1
    outer loop
      vertex 7.39104 3.06147 0
      vertex 4.6194 1.91342 0
      vertex 7.05537 3.77117 0
    endloop
  endfacet
  facet normal 0 0 -1
    outer loop
      vertex 3.53553 -3.53553 0
      vertex 6.18408 -5.07515 0
      vertex 5.65685 -5.65685 0
    endloop
  endfacet
  facet normal -0 0 -1
    outer loop
      vertex 7.05537 3.77117 0
      vertex 4.6194 1.91342 0
      vertex 6.65176 4.44456 0
    endloop
  endfacet
  facet normal 0 0 -1
    outer loop
      vertex 3.53553 -3.53553 0
      vertex 5.65685 -5.65685 0
      vertex 5.07515 -6.18408 0
    endloop
  endfacet
  facet normal 0 0 -1
    outer loop
      vertex 3.53553 3.53553 0
      vertex 6.65176 4.44456 0
      vertex 4.6194 1.91342 0
    endloop
  endfacet
  facet normal -0 0 -1
    outer loop
      vertex 6.65176 4.44456 0
      vertex 3.53553 3.53553 0
      vertex 6.18408 5.07515 0
    endloop
  endfacet
  facet normal -0 0 -1
    outer loop
      vertex 7.84628 -1.56072 0
      vertex 4.6194 -1.91342 0
      vertex 5 0 0
    endloop
  endfacet
  facet normal 0 0 -1
    outer loop
      vertex 3.53553 -3.53553 0
      vertex 5.07515 -6.18408 0
      vertex 4.44456 -6.65176 0
    endloop
  endfacet
  facet normal 0 0 -1
    outer loop
      vertex 1.91342 -4.6194 0
      vertex 4.44456 -6.65176 0
      vertex 3.77117 -7.05537 0
    endloop
  endfacet
  facet normal 0 0 -1
    outer loop
      vertex 6.65176 -4.44456 0
      vertex 3.53553 -3.53553 0
      vertex 4.6194 -1.91342 0
    endloop
  endfacet
  facet normal 0 0 -1
    outer loop
      vertex 1.91342 -4.6194 0
      vertex 3.77117 -7.05537 0
      vertex 3.06147 -7.39104 0
    endloop
  endfacet
  facet normal 0 0 -1
    outer loop
      vertex 1.91342 -4.6194 0
      vertex 3.06147 -7.39104 0
      vertex 2.32228 -7.65552 0
    endloop
  endfacet
  facet normal 0 0 -1
    outer loop
      vertex 4.44456 -6.65176 0
      vertex 1.91342 -4.6194 0
      vertex 3.53553 -3.53553 0
    endloop
  endfacet
  facet normal 0 0 -1
    outer loop
      vertex 1.56072 -7.84628 0
      vertex 1.91342 -4.6194 0
      vertex 2.32228 -7.65552 0
    endloop
  endfacet
  facet normal 0 0 -1
    outer loop
      vertex 0 -5 0
      vertex 1.56072 -7.84628 0
      vertex 0.784137 -7.96148 0
    endloop
  endfacet
  facet normal 0 0 -1
    outer loop
      vertex 0 -5 0
      vertex 0.784137 -7.96148 0
      vertex 0 -8 0
    endloop
  endfacet
  facet normal 0 0 -1
    outer loop
      vertex 1.56072 -7.84628 0
      vertex 0 -5 0
      vertex 1.91342 -4.6194 0
    endloop
  endfacet
  facet normal 0 0 -1
    outer loop
      vertex -0.784137 -7.96148 0
      vertex 0 -5 0
      vertex 0 -8 0
    endloop
  endfacet
  facet normal 0 0 -1
    outer loop
      vertex -1.56072 -7.84628 0
      vertex 0 -5 0
      vertex -0.784137 -7.96148 0
    endloop
  endfacet
  facet normal 0 0 -1
    outer loop
      vertex -1.56072 -7.84628 0
      vertex -1.91342 -4.6194 0
      vertex 0 -5 0
    endloop
  endfacet
  facet normal 0 0 -1
    outer loop
      vertex -2.32228 -7.65552 0
      vertex -1.91342 -4.6194 0
      vertex -1.56072 -7.84628 0
    endloop
  endfacet
  facet normal 0 0 -1
    outer loop
      vertex -3.06147 -7.39104 0
      vertex -1.91342 -4.6194 0
      vertex -2.32228 -7.65552 0
    endloop
  endfacet
  facet normal 0 0 -1
    outer loop
      vertex -3.77117 -7.05537 0
      vertex -1.91342 -4.6194 0
      vertex -3.06147 -7.39104 0
    endloop
  endfacet
  facet normal 0 0 -1
    outer loop
      vertex -4.44456 -6.65176 0
      vertex -1.91342 -4.6194 0
      vertex -3.77117 -7.05537 0
    endloop
  endfacet
  facet normal -0 0 -1
    outer loop
      vertex -1.91342 -4.6194 0
      vertex -4.44456 -6.65176 0
      vertex -3.53553 -3.53553 0
    endloop
  endfacet
  facet normal 0 0 -1
    outer loop
      vertex -5.07515 -6.18408 0
      vertex -3.53553 -3.53553 0
      vertex -4.44456 -6.65176 0
    endloop
  endfacet
  facet normal 0 0 -1
    outer loop
      vertex -5.65685 -5.65685 0
      vertex -3.53553 -3.53553 0
      vertex -5.07515 -6.18408 0
    endloop
  endfacet
  facet normal 0 0 -1
    outer loop
      vertex -6.18408 -5.07515 0
      vertex -3.53553 -3.53553 0
      vertex -5.65685 -5.65685 0
    endloop
  endfacet
  facet normal -0 0 -1
    outer loop
      vertex 6.18408 5.07515 0
      vertex 3.53553 3.53553 0
      vertex 5.65685 5.65685 0
    endloop
  endfacet
  facet normal -0 0 -1
    outer loop
      vertex 5.65685 5.65685 0
      vertex 3.53553 3.53553 0
      vertex 5.07515 6.18408 0
    endloop
  endfacet
  facet normal -0 0 -1
    outer loop
      vertex 5.07515 6.18408 0
      vertex 3.53553 3.53553 0
      vertex 4.44456 6.65176 0
    endloop
  endfacet
  facet normal 0 0 -1
    outer loop
      vertex 1.91342 4.6194 0
      vertex 4.44456 6.65176 0
      vertex 3.53553 3.53553 0
    endloop
  endfacet
  facet normal -0 0 -1
    outer loop
      vertex 4.44456 6.65176 0
      vertex 1.91342 4.6194 0
      vertex 3.77117 7.05537 0
    endloop
  endfacet
  facet normal -0 0 -1
    outer loop
      vertex 3.77117 7.05537 0
      vertex 1.91342 4.6194 0
      vertex 3.06147 7.39104 0
    endloop
  endfacet
  facet normal -0 0 -1
    outer loop
      vertex 3.06147 7.39104 0
      vertex 1.91342 4.6194 0
      vertex 2.32228 7.65552 0
    endloop
  endfacet
  facet normal 0 0 -1
    outer loop
      vertex 1.91342 4.6194 0
      vertex 1.56072 7.84628 0
      vertex 2.32228 7.65552 0
    endloop
  endfacet
  facet normal 0 0 -1
    outer loop
      vertex 0 5 0
      vertex 1.56072 7.84628 0
      vertex 1.91342 4.6194 0
    endloop
  endfacet
  facet normal -0 0 -1
    outer loop
      vertex 1.56072 7.84628 0
      vertex 0 5 0
      vertex 0.784137 7.96148 0
    endloop
  endfacet
  facet normal 0 0 -1
    outer loop
      vertex 0 5 0
      vertex 0 8 0
      vertex 0.784137 7.96148 0
    endloop
  endfacet
  facet normal 0 0 -1
    outer loop
      vertex 0 5 0
      vertex -0.784137 7.96148 0
      vertex 0 8 0
    endloop
  endfacet
  facet normal 0 0 -1
    outer loop
      vertex 0 5 0
      vertex -1.56072 7.84628 0
      vertex -0.784137 7.96148 0
    endloop
  endfacet
  facet normal 0 0 -1
    outer loop
      vertex -1.91342 4.6194 0
      vertex -1.56072 7.84628 0
      vertex 0 5 0
    endloop
  endfacet
  facet normal 0 0 -1
    outer loop
      vertex -1.91342 4.6194 0
      vertex -2.32228 7.65552 0
      vertex -1.56072 7.84628 0
    endloop
  endfacet
  facet normal 0 0 -1
    outer loop
      vertex -1.91342 4.6194 0
      vertex -3.06147 7.39104 0
      vertex -2.32228 7.65552 0
    endloop
  endfacet
  facet normal 0 0 -1
    outer loop
      vertex -4.44456 6.65176 0
      vertex -1.91342 4.6194 0
      vertex -3.53553 3.53553 0
    endloop
  endfacet
  facet normal 0 0 -1
    outer loop
      vertex -1.91342 4.6194 0
      vertex -3.77117 7.05537 0
      vertex -3.06147 7.39104 0
    endloop
  endfacet
  facet normal 0 0 -1
    outer loop
      vertex -1.91342 4.6194 0
      vertex -4.44456 6.65176 0
      vertex -3.77117 7.05537 0
    endloop
  endfacet
  facet normal 0 0 -1
    outer loop
      vertex -6.65176 4.44456 0
      vertex -3.53553 3.53553 0
      vertex -4.6194 1.91342 0
    endloop
  endfacet
  facet normal 0 0 -1
    outer loop
      vertex -7.84628 1.56072 0
      vertex -4.6194 1.91342 0
      vertex -5 0 0
    endloop
  endfacet
  facet normal 0 0 -1
    outer loop
      vertex -3.53553 3.53553 0
      vertex -5.07515 6.18408 0
      vertex -4.44456 6.65176 0
    endloop
  endfacet
  facet normal 0 0 -1
    outer loop
      vertex -6.65176 -4.44456 0
      vertex -3.53553 -3.53553 0
      vertex -6.18408 -5.07515 0
    endloop
  endfacet
  facet normal -0 0 -1
    outer loop
      vertex -3.53553 -3.53553 0
      vertex -6.65176 -4.44456 0
      vertex -4.6194 -1.91342 0
    endloop
  endfacet
  facet normal 0 0 -1
    outer loop
      vertex -3.53553 3.53553 0
      vertex -5.65685 5.65685 0
      vertex -5.07515 6.18408 0
    endloop
  endfacet
  facet normal 0 0 -1
    outer loop
      vertex -7.05537 -3.77117 0
      vertex -4.6194 -1.91342 0
      vertex -6.65176 -4.44456 0
    endloop
  endfacet
  facet normal 0 0 -1
    outer loop
      vertex -3.53553 3.53553 0
      vertex -6.18408 5.07515 0
      vertex -5.65685 5.65685 0
    endloop
  endfacet
  facet normal 0 0 -1
    outer loop
      vertex -7.39104 -3.06147 0
      vertex -4.6194 -1.91342 0
      vertex -7.05537 -3.77117 0
    endloop
  endfacet
  facet normal 0 0 -1
    outer loop
      vertex -3.53553 3.53553 0
      vertex -6.65176 4.44456 0
      vertex -6.18408 5.07515 0
    endloop
  endfacet
  facet normal 0 0 -1
    outer loop
      vertex -7.65552 -2.32228 0
      vertex -4.6194 -1.91342 0
      vertex -7.39104 -3.06147 0
    endloop
  endfacet
  facet normal 0 0 -1
    outer loop
      vertex -4.6194 1.91342 0
      vertex -7.05537 3.77117 0
      vertex -6.65176 4.44456 0
    endloop
  endfacet
  facet normal 0 0 -1
    outer loop
      vertex -7.84628 -1.56072 0
      vertex -4.6194 -1.91342 0
      vertex -7.65552 -2.32228 0
    endloop
  endfacet
  facet normal 0 0 -1
    outer loop
      vertex -4.6194 1.91342 0
      vertex -7.39104 3.06147 0
      vertex -7.05537 3.77117 0
    endloop
  endfacet
  facet normal 0 0 -1
    outer loop
      vertex -4.6194 -1.91342 0
      vertex -7.84628 -1.56072 0
      vertex -5 0 0
    endloop
  endfacet
  facet normal 0 0 -1
    outer loop
      vertex -4.6194 1.91342 0
      vertex -7.65552 2.32228 0
      vertex -7.39104 3.06147 0
    endloop
  endfacet
  facet normal 0 0 -1
    outer loop
      vertex -7.96148 -0.784137 0
      vertex -5 0 0
      vertex -7.84628 -1.56072 0
    endloop
  endfacet
  facet normal -0 0 -1
    outer loop
      vertex -4.6194 1.91342 0
      vertex -7.84628 1.56072 0
      vertex -7.65552 2.32228 0
    endloop
  endfacet
  facet normal 0 0 -1
    outer loop
      vertex -8 0 0
      vertex -5 0 0
      vertex -7.96148 -0.784137 0
    endloop
  endfacet
  facet normal 0 0 -1
    outer loop
      vertex -5 0 0
      vertex -7.96148 0.784137 0
      vertex -7.84628 1.56072 0
    endloop
  endfacet
  facet normal 0 0 -1
    outer loop
      vertex -5 0 0
      vertex -8 0 0
      vertex -7.96148 0.784137 0
    endloop
  endfacet
  facet normal 0.970031 0.24298 0
    outer loop
      vertex 7.84628 1.56072 60
      vertex 7.65552 2.32228 0
      vertex 7.65552 2.32228 60
    endloop
  endfacet
  facet normal 0.970031 0.24298 0
    outer loop
      vertex 7.65552 2.32228 0
      vertex 7.84628 1.56072 60
      vertex 7.84628 1.56072 0
    endloop
  endfacet
  facet normal 0.803208 0.595699 0
    outer loop
      vertex 6.65176 4.44456 60
      vertex 6.18408 5.07515 0
      vertex 6.18408 5.07515 60
    endloop
  endfacet
  facet normal 0.803208 0.595699 0
    outer loop
      vertex 6.18408 5.07515 0
      vertex 6.65176 4.44456 60
      vertex 6.65176 4.44456 0
    endloop
  endfacet
  facet normal 0.857729 0.514103 0
    outer loop
      vertex 7.05537 3.77117 60
      vertex 6.65176 4.44456 0
      vertex 6.65176 4.44456 60
    endloop
  endfacet
  facet normal 0.857729 0.514103 0
    outer loop
      vertex 6.65176 4.44456 0
      vertex 7.05537 3.77117 60
      vertex 7.05537 3.77117 0
    endloop
  endfacet
  facet normal 0.740951 0.671559 0
    outer loop
      vertex 6.18408 5.07515 60
      vertex 5.65685 5.65685 0
      vertex 5.65685 5.65685 60
    endloop
  endfacet
  facet normal 0.740951 0.671559 0
    outer loop
      vertex 5.65685 5.65685 0
      vertex 6.18408 5.07515 60
      vertex 6.18408 5.07515 0
    endloop
  endfacet
  facet normal 0.595699 0.803208 -0
    outer loop
      vertex 5.07515 6.18408 0
      vertex 4.44456 6.65176 60
      vertex 5.07515 6.18408 60
    endloop
  endfacet
  facet normal 0.595699 0.803208 0
    outer loop
      vertex 4.44456 6.65176 60
      vertex 5.07515 6.18408 0
      vertex 4.44456 6.65176 0
    endloop
  endfacet
  facet normal 0.0490684 0.998795 -0
    outer loop
      vertex 0.784137 7.96148 0
      vertex 0 8 60
      vertex 0.784137 7.96148 60
    endloop
  endfacet
  facet normal 0.0490684 0.998795 0
    outer loop
      vertex 0 8 60
      vertex 0.784137 7.96148 0
      vertex 0 8 0
    endloop
  endfacet
  facet normal 0.514103 0.857729 -0
    outer loop
      vertex 4.44456 6.65176 0
      vertex 3.77117 7.05537 60
      vertex 4.44456 6.65176 60
    endloop
  endfacet
  facet normal 0.514103 0.857729 0
    outer loop
      vertex 3.77117 7.05537 60
      vertex 4.44456 6.65176 0
      vertex 3.77117 7.05537 0
    endloop
  endfacet
  facet normal 0.33689 0.941544 -0
    outer loop
      vertex 3.06147 7.39104 0
      vertex 2.32228 7.65552 60
      vertex 3.06147 7.39104 60
    endloop
  endfacet
  facet normal 0.33689 0.941544 0
    outer loop
      vertex 2.32228 7.65552 60
      vertex 3.06147 7.39104 0
      vertex 2.32228 7.65552 0
    endloop
  endfacet
  facet normal 0.24298 0.970031 -0
    outer loop
      vertex 2.32228 7.65552 0
      vertex 1.56072 7.84628 60
      vertex 2.32228 7.65552 60
    endloop
  endfacet
  facet normal 0.24298 0.970031 0
    outer loop
      vertex 1.56072 7.84628 60
      vertex 2.32228 7.65552 0
      vertex 1.56072 7.84628 0
    endloop
  endfacet
  facet normal -0.998795 0.0490684 0
    outer loop
      vertex -8 0 0
      vertex -7.96148 0.784137 60
      vertex -7.96148 0.784137 0
    endloop
  endfacet
  facet normal -0.998795 0.0490684 0
    outer loop
      vertex -7.96148 0.784137 60
      vertex -8 0 0
      vertex -8 0 60
    endloop
  endfacet
  facet normal 0 0 1
    outer loop
      vertex 5 0 60
      vertex 8 0 60
      vertex 7.96148 0.784137 60
    endloop
  endfacet
  facet normal 0 0 1
    outer loop
      vertex 5 0 60
      vertex 7.96148 0.784137 60
      vertex 7.84628 1.56072 60
    endloop
  endfacet
  facet normal 0 0 1
    outer loop
      vertex 8 0 60
      vertex 5 0 60
      vertex 7.96148 -0.784137 60
    endloop
  endfacet
  facet normal -0 0 1
    outer loop
      vertex 4.6194 1.91342 60
      vertex 7.84628 1.56072 60
      vertex 7.65552 2.32228 60
    endloop
  endfacet
  facet normal 0 0 1
    outer loop
      vertex 7.96148 -0.784137 60
      vertex 5 0 60
      vertex 7.84628 -1.56072 60
    endloop
  endfacet
  facet normal 0 0 1
    outer loop
      vertex 4.6194 1.91342 60
      vertex 7.65552 2.32228 60
      vertex 7.39104 3.06147 60
    endloop
  endfacet
  facet normal 0 0 1
    outer loop
      vertex 4.6194 -1.91342 60
      vertex 7.84628 -1.56072 60
      vertex 5 0 60
    endloop
  endfacet
  facet normal 0 0 1
    outer loop
      vertex 4.6194 1.91342 60
      vertex 7.39104 3.06147 60
      vertex 7.05537 3.77117 60
    endloop
  endfacet
  facet normal 0 0 1
    outer loop
      vertex 7.84628 -1.56072 60
      vertex 4.6194 -1.91342 60
      vertex 7.65552 -2.32228 60
    endloop
  endfacet
  facet normal 0 0 1
    outer loop
      vertex 4.6194 1.91342 60
      vertex 7.05537 3.77117 60
      vertex 6.65176 4.44456 60
    endloop
  endfacet
  facet normal 0 0 1
    outer loop
      vertex 7.65552 -2.32228 60
      vertex 4.6194 -1.91342 60
      vertex 7.39104 -3.06147 60
    endloop
  endfacet
  facet normal 0 0 1
    outer loop
      vertex 3.53553 3.53553 60
      vertex 6.65176 4.44456 60
      vertex 6.18408 5.07515 60
    endloop
  endfacet
  facet normal 0 0 1
    outer loop
      vertex 7.39104 -3.06147 60
      vertex 4.6194 -1.91342 60
      vertex 7.05537 -3.77117 60
    endloop
  endfacet
  facet normal 0 0 1
    outer loop
      vertex 3.53553 3.53553 60
      vertex 6.18408 5.07515 60
      vertex 5.65685 5.65685 60
    endloop
  endfacet
  facet normal 0 0 1
    outer loop
      vertex 7.05537 -3.77117 60
      vertex 4.6194 -1.91342 60
      vertex 6.65176 -4.44456 60
    endloop
  endfacet
  facet normal 0 0 1
    outer loop
      vertex 3.53553 3.53553 60
      vertex 5.65685 5.65685 60
      vertex 5.07515 6.18408 60
    endloop
  endfacet
  facet normal -0 0 1
    outer loop
      vertex 3.53553 -3.53553 60
      vertex 6.65176 -4.44456 60
      vertex 4.6194 -1.91342 60
    endloop
  endfacet
  facet normal 0 0 1
    outer loop
      vertex 6.65176 -4.44456 60
      vertex 3.53553 -3.53553 60
      vertex 6.18408 -5.07515 60
    endloop
  endfacet
  facet normal 0 0 1
    outer loop
      vertex 7.84628 1.56072 60
      vertex 4.6194 1.91342 60
      vertex 5 0 60
    endloop
  endfacet
  facet normal 0 0 1
    outer loop
      vertex 3.53553 3.53553 60
      vertex 5.07515 6.18408 60
      vertex 4.44456 6.65176 60
    endloop
  endfacet
  facet normal 0 0 1
    outer loop
      vertex 1.91342 4.6194 60
      vertex 4.44456 6.65176 60
      vertex 3.77117 7.05537 60
    endloop
  endfacet
  facet normal 0 0 1
    outer loop
      vertex 6.65176 4.44456 60
      vertex 3.53553 3.53553 60
      vertex 4.6194 1.91342 60
    endloop
  endfacet
  facet normal 0 0 1
    outer loop
      vertex 1.91342 4.6194 60
      vertex 3.77117 7.05537 60
      vertex 3.06147 7.39104 60
    endloop
  endfacet
  facet normal 0 0 1
    outer loop
      vertex 1.91342 4.6194 60
      vertex 3.06147 7.39104 60
      vertex 2.32228 7.65552 60
    endloop
  endfacet
  facet normal 0 0 1
    outer loop
      vertex 4.44456 6.65176 60
      vertex 1.91342 4.6194 60
      vertex 3.53553 3.53553 60
    endloop
  endfacet
  facet normal 0 0 1
    outer loop
      vertex 1.56072 7.84628 60
      vertex 1.91342 4.6194 60
      vertex 2.32228 7.65552 60
    endloop
  endfacet
  facet normal 0 0 1
    outer loop
      vertex 0 5 60
      vertex 1.56072 7.84628 60
      vertex 0.784137 7.96148 60
    endloop
  endfacet
  facet normal 0 0 1
    outer loop
      vertex 0 5 60
      vertex 0.784137 7.96148 60
      vertex 0 8 60
    endloop
  endfacet
  facet normal 0 0 1
    outer loop
      vertex 1.56072 7.84628 60
      vertex 0 5 60
      vertex 1.91342 4.6194 60
    endloop
  endfacet
  facet normal -0 0 1
    outer loop
      vertex -0.784137 7.96148 60
      vertex 0 5 60
      vertex 0 8 60
    endloop
  endfacet
  facet normal -0 0 1
    outer loop
      vertex -1.56072 7.84628 60
      vertex 0 5 60
      vertex -0.784137 7.96148 60
    endloop
  endfacet
  facet normal 0 0 1
    outer loop
      vertex -1.56072 7.84628 60
      vertex -1.91342 4.6194 60
      vertex 0 5 60
    endloop
  endfacet
  facet normal -0 0 1
    outer loop
      vertex -2.32228 7.65552 60
      vertex -1.91342 4.6194 60
      vertex -1.56072 7.84628 60
    endloop
  endfacet
  facet normal -0 0 1
    outer loop
      vertex -3.06147 7.39104 60
      vertex -1.91342 4.6194 60
      vertex -2.32228 7.65552 60
    endloop
  endfacet
  facet normal -0 0 1
    outer loop
      vertex -3.77117 7.05537 60
      vertex -1.91342 4.6194 60
      vertex -3.06147 7.39104 60
    endloop
  endfacet
  facet normal -0 0 1
    outer loop
      vertex -4.44456 6.65176 60
      vertex -1.91342 4.6194 60
      vertex -3.77117 7.05537 60
    endloop
  endfacet
  facet normal 0 0 1
    outer loop
      vertex -1.91342 4.6194 60
      vertex -4.44456 6.65176 60
      vertex -3.53553 3.53553 60
    endloop
  endfacet
  facet normal -0 0 1
    outer loop
      vertex -5.07515 6.18408 60
      vertex -3.53553 3.53553 60
      vertex -4.44456 6.65176 60
    endloop
  endfacet
  facet normal -0 0 1
    outer loop
      vertex -5.65685 5.65685 60
      vertex -3.53553 3.53553 60
      vertex -5.07515 6.18408 60
    endloop
  endfacet
  facet normal -0 0 1
    outer loop
      vertex -6.18408 5.07515 60
      vertex -3.53553 3.53553 60
      vertex -5.65685 5.65685 60
    endloop
  endfacet
  facet normal 0 0 1
    outer loop
      vertex 6.18408 -5.07515 60
      vertex 3.53553 -3.53553 60
      vertex 5.65685 -5.65685 60
    endloop
  endfacet
  facet normal 0 0 1
    outer loop
      vertex 5.65685 -5.65685 60
      vertex 3.53553 -3.53553 60
      vertex 5.07515 -6.18408 60
    endloop
  endfacet
  facet normal 0 0 1
    outer loop
      vertex 5.07515 -6.18408 60
      vertex 3.53553 -3.53553 60
      vertex 4.44456 -6.65176 60
    endloop
  endfacet
  facet normal -0 0 1
    outer loop
      vertex 1.91342 -4.6194 60
      vertex 4.44456 -6.65176 60
      vertex 3.53553 -3.53553 60
    endloop
  endfacet
  facet normal 0 0 1
    outer loop
      vertex 4.44456 -6.65176 60
      vertex 1.91342 -4.6194 60
      vertex 3.77117 -7.05537 60
    endloop
  endfacet
  facet normal 0 0 1
    outer loop
      vertex 3.77117 -7.05537 60
      vertex 1.91342 -4.6194 60
      vertex 3.06147 -7.39104 60
    endloop
  endfacet
  facet normal 0 0 1
    outer loop
      vertex 3.06147 -7.39104 60
      vertex 1.91342 -4.6194 60
      vertex 2.32228 -7.65552 60
    endloop
  endfacet
  facet normal 0 0 1
    outer loop
      vertex 1.91342 -4.6194 60
      vertex 1.56072 -7.84628 60
      vertex 2.32228 -7.65552 60
    endloop
  endfacet
  facet normal -0 0 1
    outer loop
      vertex 0 -5 60
      vertex 1.56072 -7.84628 60
      vertex 1.91342 -4.6194 60
    endloop
  endfacet
  facet normal 0 0 1
    outer loop
      vertex 1.56072 -7.84628 60
      vertex 0 -5 60
      vertex 0.784137 -7.96148 60
    endloop
  endfacet
  facet normal 0 0 1
    outer loop
      vertex 0 -5 60
      vertex 0 -8 60
      vertex 0.784137 -7.96148 60
    endloop
  endfacet
  facet normal 0 0 1
    outer loop
      vertex 0 -5 60
      vertex -0.784137 -7.96148 60
      vertex 0 -8 60
    endloop
  endfacet
  facet normal 0 0 1
    outer loop
      vertex 0 -5 60
      vertex -1.56072 -7.84628 60
      vertex -0.784137 -7.96148 60
    endloop
  endfacet
  facet normal 0 0 1
    outer loop
      vertex -1.91342 -4.6194 60
      vertex -1.56072 -7.84628 60
      vertex 0 -5 60
    endloop
  endfacet
  facet normal 0 0 1
    outer loop
      vertex -1.91342 -4.6194 60
      vertex -2.32228 -7.65552 60
      vertex -1.56072 -7.84628 60
    endloop
  endfacet
  facet normal 0 0 1
    outer loop
      vertex -1.91342 -4.6194 60
      vertex -3.06147 -7.39104 60
      vertex -2.32228 -7.65552 60
    endloop
  endfacet
  facet normal 0 0 1
    outer loop
      vertex -4.44456 -6.65176 60
      vertex -1.91342 -4.6194 60
      vertex -3.53553 -3.53553 60
    endloop
  endfacet
  facet normal 0 0 1
    outer loop
      vertex -1.91342 -4.6194 60
      vertex -3.77117 -7.05537 60
      vertex -3.06147 -7.39104 60
    endloop
  endfacet
  facet normal 0 0 1
    outer loop
      vertex -1.91342 -4.6194 60
      vertex -4.44456 -6.65176 60
      vertex -3.77117 -7.05537 60
    endloop
  endfacet
  facet normal 0 0 1
    outer loop
      vertex -6.65176 -4.44456 60
      vertex -3.53553 -3.53553 60
      vertex -4.6194 -1.91342 60
    endloop
  endfacet
  facet normal -0 0 1
    outer loop
      vertex -7.84628 -1.56072 60
      vertex -4.6194 -1.91342 60
      vertex -5 0 60
    endloop
  endfacet
  facet normal 0 0 1
    outer loop
      vertex -3.53553 -3.53553 60
      vertex -5.07515 -6.18408 60
      vertex -4.44456 -6.65176 60
    endloop
  endfacet
  facet normal -0 0 1
    outer loop
      vertex -6.65176 4.44456 60
      vertex -3.53553 3.53553 60
      vertex -6.18408 5.07515 60
    endloop
  endfacet
  facet normal 0 0 1
    outer loop
      vertex -3.53553 3.53553 60
      vertex -6.65176 4.44456 60
      vertex -4.6194 1.91342 60
    endloop
  endfacet
  facet normal 0 0 1
    outer loop
      vertex -3.53553 -3.53553 60
      vertex -5.65685 -5.65685 60
      vertex -5.07515 -6.18408 60
    endloop
  endfacet
  facet normal -0 0 1
    outer loop
      vertex -7.05537 3.77117 60
      vertex -4.6194 1.91342 60
      vertex -6.65176 4.44456 60
    endloop
  endfacet
  facet normal 0 0 1
    outer loop
      vertex -3.53553 -3.53553 60
      vertex -6.18408 -5.07515 60
      vertex -5.65685 -5.65685 60
    endloop
  endfacet
  facet normal -0 0 1
    outer loop
      vertex -7.39104 3.06147 60
      vertex -4.6194 1.91342 60
      vertex -7.05537 3.77117 60
    endloop
  endfacet
  facet normal 0 0 1
    outer loop
      vertex -3.53553 -3.53553 60
      vertex -6.65176 -4.44456 60
      vertex -6.18408 -5.07515 60
    endloop
  endfacet
  facet normal -0 0 1
    outer loop
      vertex -7.65552 2.32228 60
      vertex -4.6194 1.91342 60
      vertex -7.39104 3.06147 60
    endloop
  endfacet
  facet normal 0 0 1
    outer loop
      vertex -4.6194 -1.91342 60
      vertex -7.05537 -3.77117 60
      vertex -6.65176 -4.44456 60
    endloop
  endfacet
  facet normal 0 0 1
    outer loop
      vertex -7.84628 1.56072 60
      vertex -4.6194 1.91342 60
      vertex -7.65552 2.32228 60
    endloop
  endfacet
  facet normal 0 0 1
    outer loop
      vertex -4.6194 -1.91342 60
      vertex -7.39104 -3.06147 60
      vertex -7.05537 -3.77117 60
    endloop
  endfacet
  facet normal 0 0 1
    outer loop
      vertex -4.6194 1.91342 60
      vertex -7.84628 1.56072 60
      vertex -5 0 60
    endloop
  endfacet
  facet normal 0 0 1
    outer loop
      vertex -4.6194 -1.91342 60
      vertex -7.65552 -2.32228 60
      vertex -7.39104 -3.06147 60
    endloop
  endfacet
  facet normal -0 0 1
    outer loop
      vertex -7.96148 0.784137 60
      vertex -5 0 60
      vertex -7.84628 1.56072 60
    endloop
  endfacet
  facet normal 0 0 1
    outer loop
      vertex -4.6194 -1.91342 60
      vertex -7.84628 -1.56072 60
      vertex -7.65552 -2.32228 60
    endloop
  endfacet
  facet normal 0 0 1
    outer loop
      vertex -8 0 60
      vertex -5 0 60
      vertex -7.96148 0.784137 60
    endloop
  endfacet
  facet normal 0 0 1
    outer loop
      vertex -5 0 60
      vertex -7.96148 -0.784137 60
      vertex -7.84628 -1.56072 60
    endloop
  endfacet
  facet normal 0 0 1
    outer loop
      vertex -5 0 60
      vertex -8 0 60
      vertex -7.96148 -0.784137 60
    endloop
  endfacet
  facet normal -0.941544 0.33689 0
    outer loop
      vertex -7.65552 2.32228 0
      vertex -7.39104 3.06147 60
      vertex -7.39104 3.06147 0
    endloop
  endfacet
  facet normal -0.941544 0.33689 0
    outer loop
      vertex -7.39104 3.06147 60
      vertex -7.65552 2.32228 0
      vertex -7.65552 2.32228 60
    endloop
  endfacet
  facet normal -0.970031 0.24298 0
    outer loop
      vertex -7.84628 1.56072 0
      vertex -7.65552 2.32228 60
      vertex -7.65552 2.32228 0
    endloop
  endfacet
  facet normal -0.970031 0.24298 0
    outer loop
      vertex -7.65552 2.32228 60
      vertex -7.84628 1.56072 0
      vertex -7.84628 1.56072 60
    endloop
  endfacet
  facet normal -0.857729 0.514103 0
    outer loop
      vertex -7.05537 3.77117 0
      vertex -6.65176 4.44456 60
      vertex -6.65176 4.44456 0
    endloop
  endfacet
  facet normal -0.857729 0.514103 0
    outer loop
      vertex -6.65176 4.44456 60
      vertex -7.05537 3.77117 0
      vertex -7.05537 3.77117 60
    endloop
  endfacet
  facet normal -0.803208 0.595699 0
    outer loop
      vertex -6.65176 4.44456 0
      vertex -6.18408 5.07515 60
      vertex -6.18408 5.07515 0
    endloop
  endfacet
  facet normal -0.803208 0.595699 0
    outer loop
      vertex -6.18408 5.07515 60
      vertex -6.65176 4.44456 0
      vertex -6.65176 4.44456 60
    endloop
  endfacet
  facet normal -0.24298 0.970031 0
    outer loop
      vertex -1.56072 7.84628 0
      vertex -2.32228 7.65552 60
      vertex -1.56072 7.84628 60
    endloop
  endfacet
  facet normal -0.24298 0.970031 0
    outer loop
      vertex -2.32228 7.65552 60
      vertex -1.56072 7.84628 0
      vertex -2.32228 7.65552 0
    endloop
  endfacet
  facet normal -0.0490684 0.998795 0
    outer loop
      vertex 0 8 0
      vertex -0.784137 7.96148 60
      vertex 0 8 60
    endloop
  endfacet
  facet normal -0.0490684 0.998795 0
    outer loop
      vertex -0.784137 7.96148 60
      vertex 0 8 0
      vertex -0.784137 7.96148 0
    endloop
  endfacet
  facet normal -0.514103 0.857729 0
    outer loop
      vertex -3.77117 7.05537 0
      vertex -4.44456 6.65176 60
      vertex -3.77117 7.05537 60
    endloop
  endfacet
  facet normal -0.514103 0.857729 0
    outer loop
      vertex -4.44456 6.65176 60
      vertex -3.77117 7.05537 0
      vertex -4.44456 6.65176 0
    endloop
  endfacet
  facet normal -0.595699 0.803208 0
    outer loop
      vertex -4.44456 6.65176 0
      vertex -5.07515 6.18408 60
      vertex -4.44456 6.65176 60
    endloop
  endfacet
  facet normal -0.595699 0.803208 0
    outer loop
      vertex -5.07515 6.18408 60
      vertex -4.44456 6.65176 0
      vertex -5.07515 6.18408 0
    endloop
  endfacet
  facet normal -0.427556 0.903989 0
    outer loop
      vertex -3.06147 7.39104 0
      vertex -3.77117 7.05537 60
      vertex -3.06147 7.39104 60
    endloop
  endfacet
  facet normal -0.427556 0.903989 0
    outer loop
      vertex -3.77117 7.05537 60
      vertex -3.06147 7.39104 0
      vertex -3.77117 7.05537 0
    endloop
  endfacet
  facet normal -0.671559 0.740951 0
    outer loop
      vertex -5.07515 6.18408 0
      vertex -5.65685 5.65685 60
      vertex -5.07515 6.18408 60
    endloop
  endfacet
  facet normal -0.671559 0.740951 0
    outer loop
      vertex -5.65685 5.65685 60
      vertex -5.07515 6.18408 0
      vertex -5.65685 5.65685 0
    endloop
  endfacet
  facet normal 0.998795 0.0490684 0
    outer loop
      vertex 8 0 60
      vertex 7.96148 0.784137 0
      vertex 7.96148 0.784137 60
    endloop
  endfacet
  facet normal 0.998795 0.0490684 0
    outer loop
      vertex 7.96148 0.784137 0
      vertex 8 0 60
      vertex 8 0 0
    endloop
  endfacet
  facet normal 0.0490684 -0.998795 0
    outer loop
      vertex 0 -8 0
      vertex 0.784137 -7.96148 60
      vertex 0 -8 60
    endloop
  endfacet
  facet normal 0.0490684 -0.998795 0
    outer loop
      vertex 0.784137 -7.96148 60
      vertex 0 -8 0
      vertex 0.784137 -7.96148 0
    endloop
  endfacet
  facet normal 0.24298 -0.970031 0
    outer loop
      vertex 1.56072 -7.84628 0
      vertex 2.32228 -7.65552 60
      vertex 1.56072 -7.84628 60
    endloop
  endfacet
  facet normal 0.24298 -0.970031 0
    outer loop
      vertex 2.32228 -7.65552 60
      vertex 1.56072 -7.84628 0
      vertex 2.32228 -7.65552 0
    endloop
  endfacet
  facet normal 0.595699 -0.803208 0
    outer loop
      vertex 4.44456 -6.65176 0
      vertex 5.07515 -6.18408 60
      vertex 4.44456 -6.65176 60
    endloop
  endfacet
  facet normal 0.595699 -0.803208 0
    outer loop
      vertex 5.07515 -6.18408 60
      vertex 4.44456 -6.65176 0
      vertex 5.07515 -6.18408 0
    endloop
  endfacet
  facet normal 0.427556 -0.903989 0
    outer loop
      vertex 3.06147 -7.39104 0
      vertex 3.77117 -7.05537 60
      vertex 3.06147 -7.39104 60
    endloop
  endfacet
  facet normal 0.427556 -0.903989 0
    outer loop
      vertex 3.77117 -7.05537 60
      vertex 3.06147 -7.39104 0
      vertex 3.77117 -7.05537 0
    endloop
  endfacet
  facet normal 0.857729 -0.514103 0
    outer loop
      vertex 6.65176 -4.44456 60
      vertex 7.05537 -3.77117 0
      vertex 7.05537 -3.77117 60
    endloop
  endfacet
  facet normal 0.857729 -0.514103 0
    outer loop
      vertex 7.05537 -3.77117 0
      vertex 6.65176 -4.44456 60
      vertex 6.65176 -4.44456 0
    endloop
  endfacet
  facet normal -0.0490684 -0.998795 0
    outer loop
      vertex -0.784137 -7.96148 0
      vertex 0 -8 60
      vertex -0.784137 -7.96148 60
    endloop
  endfacet
  facet normal -0.0490684 -0.998795 -0
    outer loop
      vertex 0 -8 60
      vertex -0.784137 -7.96148 0
      vertex 0 -8 0
    endloop
  endfacet
  facet normal -0.33689 -0.941544 0
    outer loop
      vertex -3.06147 -7.39104 0
      vertex -2.32228 -7.65552 60
      vertex -3.06147 -7.39104 60
    endloop
  endfacet
  facet normal -0.33689 -0.941544 -0
    outer loop
      vertex -2.32228 -7.65552 60
      vertex -3.06147 -7.39104 0
      vertex -2.32228 -7.65552 0
    endloop
  endfacet
  facet normal -0.514103 -0.857729 0
    outer loop
      vertex -4.44456 -6.65176 0
      vertex -3.77117 -7.05537 60
      vertex -4.44456 -6.65176 60
    endloop
  endfacet
  facet normal -0.514103 -0.857729 -0
    outer loop
      vertex -3.77117 -7.05537 60
      vertex -4.44456 -6.65176 0
      vertex -3.77117 -7.05537 0
    endloop
  endfacet
  facet normal -0.970031 -0.24298 0
    outer loop
      vertex -7.65552 -2.32228 0
      vertex -7.84628 -1.56072 60
      vertex -7.84628 -1.56072 0
    endloop
  endfacet
  facet normal -0.970031 -0.24298 0
    outer loop
      vertex -7.84628 -1.56072 60
      vertex -7.65552 -2.32228 0
      vertex -7.65552 -2.32228 60
    endloop
  endfacet
  facet normal -0.998795 -0.0490684 0
    outer loop
      vertex -7.96148 -0.784137 0
      vertex -8 0 60
      vertex -8 0 0
    endloop
  endfacet
  facet normal -0.998795 -0.0490684 0
    outer loop
      vertex -8 0 60
      vertex -7.96148 -0.784137 0
      vertex -7.96148 -0.784137 60
    endloop
  endfacet
  facet normal -0.803208 -0.595699 0
    outer loop
      vertex -6.18408 -5.07515 0
      vertex -6.65176 -4.44456 60
      vertex -6.65176 -4.44456 0
    endloop
  endfacet
  facet normal -0.803208 -0.595699 0
    outer loop
      vertex -6.65176 -4.44456 60
      vertex -6.18408 -5.07515 0
      vertex -6.18408 -5.07515 60
    endloop
  endfacet
  facet normal -0.903989 -0.427556 0
    outer loop
      vertex -7.05537 -3.77117 0
      vertex -7.39104 -3.06147 60
      vertex -7.39104 -3.06147 0
    endloop
  endfacet
  facet normal -0.903989 -0.427556 0
    outer loop
      vertex -7.39104 -3.06147 60
      vertex -7.05537 -3.77117 0
      vertex -7.05537 -3.77117 60
    endloop
  endfacet
  facet normal -0.740951 -0.671559 0
    outer loop
      vertex -5.65685 -5.65685 0
      vertex -6.18408 -5.07515 60
      vertex -6.18408 -5.07515 0
    endloop
  endfacet
  facet normal -0.740951 -0.671559 0
    outer loop
      vertex -6.18408 -5.07515 60
      vertex -5.65685 -5.65685 0
      vertex -5.65685 -5.65685 60
    endloop
  endfacet
  facet normal 0.998795 -0.0490684 0
    outer loop
      vertex 7.96148 -0.784137 60
      vertex 8 0 0
      vertex 8 0 60
    endloop
  endfacet
  facet normal 0.998795 -0.0490684 0
    outer loop
      vertex 8 0 0
      vertex 7.96148 -0.784137 60
      vertex 7.96148 -0.784137 0
    endloop
  endfacet
  facet normal 0.970031 -0.24298 0
    outer loop
      vertex 7.65552 -2.32228 60
      vertex 7.84628 -1.56072 0
      vertex 7.84628 -1.56072 60
    endloop
  endfacet
  facet normal 0.970031 -0.24298 0
    outer loop
      vertex 7.84628 -1.56072 0
      vertex 7.65552 -2.32228 60
      vertex 7.65552 -2.32228 0
    endloop
  endfacet
  facet normal 0.941544 -0.33689 0
    outer loop
      vertex 7.39104 -3.06147 60
      vertex 7.65552 -2.32228 0
      vertex 7.65552 -2.32228 60
    endloop
  endfacet
  facet normal 0.941544 -0.33689 0
    outer loop
      vertex 7.65552 -2.32228 0
      vertex 7.39104 -3.06147 60
      vertex 7.39104 -3.06147 0
    endloop
  endfacet
  facet normal 0.14673 -0.989177 0
    outer loop
      vertex 0.784137 -7.96148 0
      vertex 1.56072 -7.84628 60
      vertex 0.784137 -7.96148 60
    endloop
  endfacet
  facet normal 0.14673 -0.989177 0
    outer loop
      vertex 1.56072 -7.84628 60
      vertex 0.784137 -7.96148 0
      vertex 1.56072 -7.84628 0
    endloop
  endfacet
  facet normal 0.33689 -0.941544 0
    outer loop
      vertex 2.32228 -7.65552 0
      vertex 3.06147 -7.39104 60
      vertex 2.32228 -7.65552 60
    endloop
  endfacet
  facet normal 0.33689 -0.941544 0
    outer loop
      vertex 3.06147 -7.39104 60
      vertex 2.32228 -7.65552 0
      vertex 3.06147 -7.39104 0
    endloop
  endfacet
  facet normal 0.671559 -0.740951 0
    outer loop
      vertex 5.07515 -6.18408 0
      vertex 5.65685 -5.65685 60
      vertex 5.07515 -6.18408 60
    endloop
  endfacet
  facet normal 0.671559 -0.740951 0
    outer loop
      vertex 5.65685 -5.65685 60
      vertex 5.07515 -6.18408 0
      vertex 5.65685 -5.65685 0
    endloop
  endfacet
  facet normal 0.514103 -0.857729 0
    outer loop
      vertex 3.77117 -7.05537 0
      vertex 4.44456 -6.65176 60
      vertex 3.77117 -7.05537 60
    endloop
  endfacet
  facet normal 0.514103 -0.857729 0
    outer loop
      vertex 4.44456 -6.65176 60
      vertex 3.77117 -7.05537 0
      vertex 4.44456 -6.65176 0
    endloop
  endfacet
  facet normal 0.803208 -0.595699 0
    outer loop
      vertex 6.18408 -5.07515 60
      vertex 6.65176 -4.44456 0
      vertex 6.65176 -4.44456 60
    endloop
  endfacet
  facet normal 0.803208 -0.595699 0
    outer loop
      vertex 6.65176 -4.44456 0
      vertex 6.18408 -5.07515 60
      vertex 6.18408 -5.07515 0
    endloop
  endfacet
  facet normal -0.24298 -0.970031 0
    outer loop
      vertex -2.32228 -7.65552 0
      vertex -1.56072 -7.84628 60
      vertex -2.32228 -7.65552 60
    endloop
  endfacet
  facet normal -0.24298 -0.970031 -0
    outer loop
      vertex -1.56072 -7.84628 60
      vertex -2.32228 -7.65552 0
      vertex -1.56072 -7.84628 0
    endloop
  endfacet
  facet normal -0.595699 -0.803208 0
    outer loop
      vertex -5.07515 -6.18408 0
      vertex -4.44456 -6.65176 60
      vertex -5.07515 -6.18408 60
    endloop
  endfacet
  facet normal -0.595699 -0.803208 -0
    outer loop
      vertex -4.44456 -6.65176 60
      vertex -5.07515 -6.18408 0
      vertex -4.44456 -6.65176 0
    endloop
  endfacet
  facet normal -0.941544 -0.33689 0
    outer loop
      vertex -7.39104 -3.06147 0
      vertex -7.65552 -2.32228 60
      vertex -7.65552 -2.32228 0
    endloop
  endfacet
  facet normal -0.941544 -0.33689 0
    outer loop
      vertex -7.65552 -2.32228 60
      vertex -7.39104 -3.06147 0
      vertex -7.39104 -3.06147 60
    endloop
  endfacet
  facet normal -0.989177 -0.14673 0
    outer loop
      vertex -7.84628 -1.56072 0
      vertex -7.96148 -0.784137 60
      vertex -7.96148 -0.784137 0
    endloop
  endfacet
  facet normal -0.989177 -0.14673 0
    outer loop
      vertex -7.96148 -0.784137 60
      vertex -7.84628 -1.56072 0
      vertex -7.84628 -1.56072 60
    endloop
  endfacet
  facet normal -0.857729 -0.514103 0
    outer loop
      vertex -6.65176 -4.44456 0
      vertex -7.05537 -3.77117 60
      vertex -7.05537 -3.77117 0
    endloop
  endfacet
  facet normal -0.857729 -0.514103 0
    outer loop
      vertex -7.05537 -3.77117 60
      vertex -6.65176 -4.44456 0
      vertex -6.65176 -4.44456 60
    endloop
  endfacet
  facet normal -0.980785 -0.195091 0
    outer loop
      vertex 5 0 0
      vertex 4.6194 1.91342 60
      vertex 4.6194 1.91342 0
    endloop
  endfacet
  facet normal -0.980785 -0.195091 0
    outer loop
      vertex 4.6194 1.91342 60
      vertex 5 0 0
      vertex 5 0 60
    endloop
  endfacet
  facet normal 0.980785 -0.195091 0
    outer loop
      vertex -5 0 60
      vertex -4.6194 1.91342 0
      vertex -4.6194 1.91342 60
    endloop
  endfacet
  facet normal 0.980785 -0.195091 0
    outer loop
      vertex -4.6194 1.91342 0
      vertex -5 0 60
      vertex -5 0 0
    endloop
  endfacet
  facet normal -0.195091 -0.980785 0
    outer loop
      vertex 0 5 0
      vertex 1.91342 4.6194 60
      vertex 0 5 60
    endloop
  endfacet
  facet normal -0.195091 -0.980785 -0
    outer loop
      vertex 1.91342 4.6194 60
      vertex 0 5 0
      vertex 1.91342 4.6194 0
    endloop
  endfacet
  facet normal -0.83147 -0.55557 0
    outer loop
      vertex 4.6194 1.91342 0
      vertex 3.53553 3.53553 60
      vertex 3.53553 3.53553 0
    endloop
  endfacet
  facet normal -0.83147 -0.55557 0
    outer loop
      vertex 3.53553 3.53553 60
      vertex 4.6194 1.91342 0
      vertex 4.6194 1.91342 60
    endloop
  endfacet
  facet normal -0.195091 0.980785 0
    outer loop
      vertex 1.91342 -4.6194 0
      vertex 0 -5 60
      vertex 1.91342 -4.6194 60
    endloop
  endfacet
  facet normal -0.195091 0.980785 0
    outer loop
      vertex 0 -5 60
      vertex 1.91342 -4.6194 0
      vertex 0 -5 0
    endloop
  endfacet
  facet normal 0.195091 0.980785 -0
    outer loop
      vertex 0 -5 0
      vertex -1.91342 -4.6194 60
      vertex 0 -5 60
    endloop
  endfacet
  facet normal 0.195091 0.980785 0
    outer loop
      vertex -1.91342 -4.6194 60
      vertex 0 -5 0
      vertex -1.91342 -4.6194 0
    endloop
  endfacet
  facet normal 0.195091 -0.980785 0
    outer loop
      vertex -1.91342 4.6194 0
      vertex 0 5 60
      vertex -1.91342 4.6194 60
    endloop
  endfacet
  facet normal 0.195091 -0.980785 0
    outer loop
      vertex 0 5 60
      vertex -1.91342 4.6194 0
      vertex 0 5 0
    endloop
  endfacet
  facet normal 0.83147 -0.55557 0
    outer loop
      vertex -4.6194 1.91342 60
      vertex -3.53553 3.53553 0
      vertex -3.53553 3.53553 60
    endloop
  endfacet
  facet normal 0.83147 -0.55557 0
    outer loop
      vertex -3.53553 3.53553 0
      vertex -4.6194 1.91342 60
      vertex -4.6194 1.91342 0
    endloop
  endfacet
  facet normal 0.55557 -0.83147 0
    outer loop
      vertex -3.53553 3.53553 0
      vertex -1.91342 4.6194 60
      vertex -3.53553 3.53553 60
    endloop
  endfacet
  facet normal 0.55557 -0.83147 0
    outer loop
      vertex -1.91342 4.6194 60
      vertex -3.53553 3.53553 0
      vertex -1.91342 4.6194 0
    endloop
  endfacet
  facet normal 0.980785 0.195091 0
    outer loop
      vertex -4.6194 -1.91342 60
      vertex -5 0 0
      vertex -5 0 60
    endloop
  endfacet
  facet normal 0.980785 0.195091 0
    outer loop
      vertex -5 0 0
      vertex -4.6194 -1.91342 60
      vertex -4.6194 -1.91342 0
    endloop
  endfacet
  facet normal 0.55557 0.83147 -0
    outer loop
      vertex -1.91342 -4.6194 0
      vertex -3.53553 -3.53553 60
      vertex -1.91342 -4.6194 60
    endloop
  endfacet
  facet normal 0.55557 0.83147 0
    outer loop
      vertex -3.53553 -3.53553 60
      vertex -1.91342 -4.6194 0
      vertex -3.53553 -3.53553 0
    endloop
  endfacet
  facet normal 0.83147 0.55557 0
    outer loop
      vertex -3.53553 -3.53553 60
      vertex -4.6194 -1.91342 0
      vertex -4.6194 -1.91342 60
    endloop
  endfacet
  facet normal 0.83147 0.55557 0
    outer loop
      vertex -4.6194 -1.91342 0
      vertex -3.53553 -3.53553 60
      vertex -3.53553 -3.53553 0
    endloop
  endfacet
  facet normal -0.55557 -0.83147 0
    outer loop
      vertex 1.91342 4.6194 0
      vertex 3.53553 3.53553 60
      vertex 1.91342 4.6194 60
    endloop
  endfacet
  facet normal -0.55557 -0.83147 -0
    outer loop
      vertex 3.53553 3.53553 60
      vertex 1.91342 4.6194 0
      vertex 3.53553 3.53553 0
    endloop
  endfacet
  facet normal -0.83147 0.55557 0
    outer loop
      vertex 3.53553 -3.53553 0
      vertex 4.6194 -1.91342 60
      vertex 4.6194 -1.91342 0
    endloop
  endfacet
  facet normal -0.83147 0.55557 0
    outer loop
      vertex 4.6194 -1.91342 60
      vertex 3.53553 -3.53553 0
      vertex 3.53553 -3.53553 60
    endloop
  endfacet
  facet normal -0.55557 0.83147 0
    outer loop
      vertex 3.53553 -3.53553 0
      vertex 1.91342 -4.6194 60
      vertex 3.53553 -3.53553 60
    endloop
  endfacet
  facet normal -0.55557 0.83147 0
    outer loop
      vertex 1.91342 -4.6194 60
      vertex 3.53553 -3.53553 0
      vertex 1.91342 -4.6194 0
    endloop
  endfacet
  facet normal -0.980785 0.195091 0
    outer loop
      vertex 4.6194 -1.91342 0
      vertex 5 0 60
      vertex 5 0 0
    endloop
  endfacet
  facet normal -0.980785 0.195091 0
    outer loop
      vertex 5 0 60
      vertex 4.6194 -1.91342 0
      vertex 4.6194 -1.91342 60
    endloop
  endfacet
endsolid OpenSCAD_Model
