solid OpenSCAD_Model
  facet normal 0.671559 0.740951 -0
    outer loop
      vertex 9.19239 9.19239 0
      vertex 8.24711 10.0491 40
      vertex 9.19239 9.19239 40
    endloop
  endfacet
  facet normal 0.671559 0.740951 0
    outer loop
      vertex 8.24711 10.0491 40
      vertex 9.19239 9.19239 0
      vertex 8.24711 10.0491 0
    endloop
  endfacet
  facet normal -0.33689 0.941544 0
    outer loop
      vertex -3.7737 12.4402 0
      vertex -4.97488 12.0104 40
      vertex -3.7737 12.4402 40
    endloop
  endfacet
  facet normal -0.33689 0.941544 0
    outer loop
      vertex -4.97488 12.0104 40
      vertex -3.7737 12.4402 0
      vertex -4.97488 12.0104 0
    endloop
  endfacet
  facet normal -0.903989 0.427555 0
    outer loop
      vertex -12.0104 4.97488 0
      vertex -11.465 6.12816 40
      vertex -11.465 6.12816 0
    endloop
  endfacet
  facet normal -0.903989 0.427555 0
    outer loop
      vertex -11.465 6.12816 40
      vertex -12.0104 4.97488 0
      vertex -12.0104 4.97488 40
    endloop
  endfacet
  facet normal 0.941544 -0.33689 0
    outer loop
      vertex 12.0104 -4.97488 40
      vertex 12.4402 -3.7737 0
      vertex 12.4402 -3.7737 40
    endloop
  endfacet
  facet normal 0.941544 -0.33689 0
    outer loop
      vertex 12.4402 -3.7737 0
      vertex 12.0104 -4.97488 40
      vertex 12.0104 -4.97488 0
    endloop
  endfacet
  facet normal -0.427555 -0.903989 0
    outer loop
      vertex -6.12816 -11.465 0
      vertex -4.97488 -12.0104 40
      vertex -6.12816 -11.465 40
    endloop
  endfacet
  facet normal -0.427555 -0.903989 -0
    outer loop
      vertex -4.97488 -12.0104 40
      vertex -6.12816 -11.465 0
      vertex -4.97488 -12.0104 0
    endloop
  endfacet
  facet normal 0.903989 0.427555 0
    outer loop
      vertex 12.0104 4.97488 40
      vertex 11.465 6.12816 0
      vertex 11.465 6.12816 40
    endloop
  endfacet
  facet normal 0.903989 0.427555 0
    outer loop
      vertex 11.465 6.12816 0
      vertex 12.0104 4.97488 40
      vertex 12.0104 4.97488 0
    endloop
  endfacet
  facet normal 0.857729 0.514103 0
    outer loop
      vertex 11.465 6.12816 40
      vertex 10.8091 7.22241 0
      vertex 10.8091 7.22241 40
    endloop
  endfacet
  facet normal 0.857729 0.514103 0
    outer loop
      vertex 10.8091 7.22241 0
      vertex 11.465 6.12816 40
      vertex 11.465 6.12816 0
    endloop
  endfacet
  facet normal 0.427555 0.903989 -0
    outer loop
      vertex 6.12816 11.465 0
      vertex 4.97488 12.0104 40
      vertex 6.12816 11.465 40
    endloop
  endfacet
  facet normal 0.427555 0.903989 0
    outer loop
      vertex 4.97488 12.0104 40
      vertex 6.12816 11.465 0
      vertex 4.97488 12.0104 0
    endloop
  endfacet
  facet normal 0.146731 0.989176 -0
    outer loop
      vertex 2.53617 12.7502 0
      vertex 1.27422 12.9374 40
      vertex 2.53617 12.7502 40
    endloop
  endfacet
  facet normal 0.146731 0.989176 0
    outer loop
      vertex 1.27422 12.9374 40
      vertex 2.53617 12.7502 0
      vertex 1.27422 12.9374 0
    endloop
  endfacet
  facet normal -0.989176 0.146731 0
    outer loop
      vertex -12.9374 1.27422 0
      vertex -12.7502 2.53617 40
      vertex -12.7502 2.53617 0
    endloop
  endfacet
  facet normal -0.989176 0.146731 0
    outer loop
      vertex -12.7502 2.53617 40
      vertex -12.9374 1.27422 0
      vertex -12.9374 1.27422 40
    endloop
  endfacet
  facet normal -0.740951 0.671559 0
    outer loop
      vertex -10.0491 8.24711 0
      vertex -9.19239 9.19239 40
      vertex -9.19239 9.19239 0
    endloop
  endfacet
  facet normal -0.740951 0.671559 0
    outer loop
      vertex -9.19239 9.19239 40
      vertex -10.0491 8.24711 0
      vertex -10.0491 8.24711 40
    endloop
  endfacet
  facet normal -0.146731 0.989176 0
    outer loop
      vertex -1.27422 12.9374 0
      vertex -2.53617 12.7502 40
      vertex -1.27422 12.9374 40
    endloop
  endfacet
  facet normal -0.146731 0.989176 0
    outer loop
      vertex -2.53617 12.7502 40
      vertex -1.27422 12.9374 0
      vertex -2.53617 12.7502 0
    endloop
  endfacet
  facet normal 0.998795 -0.0490682 0
    outer loop
      vertex 12.9374 -1.27422 40
      vertex 13 0 0
      vertex 13 0 40
    endloop
  endfacet
  facet normal 0.998795 -0.0490682 0
    outer loop
      vertex 13 0 0
      vertex 12.9374 -1.27422 40
      vertex 12.9374 -1.27422 0
    endloop
  endfacet
  facet normal 0.803207 -0.595699 0
    outer loop
      vertex 10.0491 -8.24711 40
      vertex 10.8091 -7.22241 0
      vertex 10.8091 -7.22241 40
    endloop
  endfacet
  facet normal 0.803207 -0.595699 0
    outer loop
      vertex 10.8091 -7.22241 0
      vertex 10.0491 -8.24711 40
      vertex 10.0491 -8.24711 0
    endloop
  endfacet
  facet normal -0.146731 -0.989176 0
    outer loop
      vertex -2.53617 -12.7502 0
      vertex -1.27422 -12.9374 40
      vertex -2.53617 -12.7502 40
    endloop
  endfacet
  facet normal -0.146731 -0.989176 -0
    outer loop
      vertex -1.27422 -12.9374 40
      vertex -2.53617 -12.7502 0
      vertex -1.27422 -12.9374 0
    endloop
  endfacet
  facet normal -0.671559 -0.740951 0
    outer loop
      vertex -9.19239 -9.19239 0
      vertex -8.24711 -10.0491 40
      vertex -9.19239 -9.19239 40
    endloop
  endfacet
  facet normal -0.671559 -0.740951 -0
    outer loop
      vertex -8.24711 -10.0491 40
      vertex -9.19239 -9.19239 0
      vertex -8.24711 -10.0491 0
    endloop
  endfacet
  facet normal 0 0 -1
    outer loop
      vertex 12.9374 -1.27422 0
      vertex 12.9374 1.27422 0
      vertex 13 0 0
    endloop
  endfacet
  facet normal 0 0 -1
    outer loop
      vertex 12.7502 -2.53617 0
      vertex 12.9374 1.27422 0
      vertex 12.9374 -1.27422 0
    endloop
  endfacet
  facet normal 0 0 -1
    outer loop
      vertex 12.7502 -2.53617 0
      vertex 12.7502 2.53617 0
      vertex 12.9374 1.27422 0
    endloop
  endfacet
  facet normal 0 0 -1
    outer loop
      vertex 12.4402 -3.7737 0
      vertex 12.7502 2.53617 0
      vertex 12.7502 -2.53617 0
    endloop
  endfacet
  facet normal 0 0 -1
    outer loop
      vertex 12.4402 -3.7737 0
      vertex 12.4402 3.7737 0
      vertex 12.7502 2.53617 0
    endloop
  endfacet
  facet normal 0 0 -1
    outer loop
      vertex 12.0104 -4.97488 0
      vertex 12.4402 3.7737 0
      vertex 12.4402 -3.7737 0
    endloop
  endfacet
  facet normal 0 0 -1
    outer loop
      vertex 12.0104 -4.97488 0
      vertex 12.0104 4.97488 0
      vertex 12.4402 3.7737 0
    endloop
  endfacet
  facet normal 0 0 -1
    outer loop
      vertex 11.465 -6.12816 0
      vertex 12.0104 4.97488 0
      vertex 12.0104 -4.97488 0
    endloop
  endfacet
  facet normal 0 0 -1
    outer loop
      vertex 11.465 -6.12816 0
      vertex 11.465 6.12816 0
      vertex 12.0104 4.97488 0
    endloop
  endfacet
  facet normal 0 0 -1
    outer loop
      vertex 10.8091 -7.22241 0
      vertex 11.465 6.12816 0
      vertex 11.465 -6.12816 0
    endloop
  endfacet
  facet normal 0 0 -1
    outer loop
      vertex 10.8091 -7.22241 0
      vertex 10.8091 7.22241 0
      vertex 11.465 6.12816 0
    endloop
  endfacet
  facet normal 0 0 -1
    outer loop
      vertex 10.0491 -8.24711 0
      vertex 10.8091 7.22241 0
      vertex 10.8091 -7.22241 0
    endloop
  endfacet
  facet normal 0 0 -1
    outer loop
      vertex 10.0491 -8.24711 0
      vertex 10.0491 8.24711 0
      vertex 10.8091 7.22241 0
    endloop
  endfacet
  facet normal 0 0 -1
    outer loop
      vertex 9.19239 -9.19239 0
      vertex 10.0491 8.24711 0
      vertex 10.0491 -8.24711 0
    endloop
  endfacet
  facet normal 0 0 -1
    outer loop
      vertex 9.19239 -9.19239 0
      vertex 9.19239 9.19239 0
      vertex 10.0491 8.24711 0
    endloop
  endfacet
  facet normal 0 0 -1
    outer loop
      vertex 8.24711 -10.0491 0
      vertex 9.19239 9.19239 0
      vertex 9.19239 -9.19239 0
    endloop
  endfacet
  facet normal 0 0 -1
    outer loop
      vertex 8.24711 -10.0491 0
      vertex 8.24711 10.0491 0
      vertex 9.19239 9.19239 0
    endloop
  endfacet
  facet normal 0 0 -1
    outer loop
      vertex 7.22241 -10.8091 0
      vertex 8.24711 10.0491 0
      vertex 8.24711 -10.0491 0
    endloop
  endfacet
  facet normal 0 0 -1
    outer loop
      vertex 7.22241 -10.8091 0
      vertex 7.22241 10.8091 0
      vertex 8.24711 10.0491 0
    endloop
  endfacet
  facet normal 0 0 -1
    outer loop
      vertex 6.12816 -11.465 0
      vertex 7.22241 10.8091 0
      vertex 7.22241 -10.8091 0
    endloop
  endfacet
  facet normal 0 0 -1
    outer loop
      vertex 6.12816 -11.465 0
      vertex 6.12816 11.465 0
      vertex 7.22241 10.8091 0
    endloop
  endfacet
  facet normal 0 0 -1
    outer loop
      vertex 4.97488 -12.0104 0
      vertex 6.12816 11.465 0
      vertex 6.12816 -11.465 0
    endloop
  endfacet
  facet normal 0 0 -1
    outer loop
      vertex 4.97488 -12.0104 0
      vertex 4.97488 12.0104 0
      vertex 6.12816 11.465 0
    endloop
  endfacet
  facet normal 0 0 -1
    outer loop
      vertex 3.7737 -12.4402 0
      vertex 4.97488 12.0104 0
      vertex 4.97488 -12.0104 0
    endloop
  endfacet
  facet normal 0 0 -1
    outer loop
      vertex 3.7737 -12.4402 0
      vertex 3.7737 12.4402 0
      vertex 4.97488 12.0104 0
    endloop
  endfacet
  facet normal 0 0 -1
    outer loop
      vertex 2.53617 -12.7502 0
      vertex 3.7737 12.4402 0
      vertex 3.7737 -12.4402 0
    endloop
  endfacet
  facet normal 0 0 -1
    outer loop
      vertex 2.53617 -12.7502 0
      vertex 2.53617 12.7502 0
      vertex 3.7737 12.4402 0
    endloop
  endfacet
  facet normal 0 0 -1
    outer loop
      vertex 1.27422 -12.9374 0
      vertex 2.53617 12.7502 0
      vertex 2.53617 -12.7502 0
    endloop
  endfacet
  facet normal 0 0 -1
    outer loop
      vertex 1.27422 -12.9374 0
      vertex 1.27422 12.9374 0
      vertex 2.53617 12.7502 0
    endloop
  endfacet
  facet normal 0 0 -1
    outer loop
      vertex 0 -13 0
      vertex 1.27422 12.9374 0
      vertex 1.27422 -12.9374 0
    endloop
  endfacet
  facet normal 0 0 -1
    outer loop
      vertex 0 -13 0
      vertex 0 13 0
      vertex 1.27422 12.9374 0
    endloop
  endfacet
  facet normal 0 0 -1
    outer loop
      vertex -1.27422 -12.9374 0
      vertex 0 13 0
      vertex 0 -13 0
    endloop
  endfacet
  facet normal 0 0 -1
    outer loop
      vertex -1.27422 -12.9374 0
      vertex -1.27422 12.9374 0
      vertex 0 13 0
    endloop
  endfacet
  facet normal 0 0 -1
    outer loop
      vertex -2.53617 -12.7502 0
      vertex -1.27422 12.9374 0
      vertex -1.27422 -12.9374 0
    endloop
  endfacet
  facet normal 0 0 -1
    outer loop
      vertex -2.53617 -12.7502 0
      vertex -2.53617 12.7502 0
      vertex -1.27422 12.9374 0
    endloop
  endfacet
  facet normal 0 0 -1
    outer loop
      vertex -3.7737 -12.4402 0
      vertex -2.53617 12.7502 0
      vertex -2.53617 -12.7502 0
    endloop
  endfacet
  facet normal 0 0 -1
    outer loop
      vertex -3.7737 -12.4402 0
      vertex -3.7737 12.4402 0
      vertex -2.53617 12.7502 0
    endloop
  endfacet
  facet normal 0 0 -1
    outer loop
      vertex -4.97488 -12.0104 0
      vertex -3.7737 12.4402 0
      vertex -3.7737 -12.4402 0
    endloop
  endfacet
  facet normal 0 0 -1
    outer loop
      vertex -4.97488 -12.0104 0
      vertex -4.97488 12.0104 0
      vertex -3.7737 12.4402 0
    endloop
  endfacet
  facet normal 0 0 -1
    outer loop
      vertex -6.12816 -11.465 0
      vertex -4.97488 12.0104 0
      vertex -4.97488 -12.0104 0
    endloop
  endfacet
  facet normal 0 0 -1
    outer loop
      vertex -6.12816 -11.465 0
      vertex -6.12816 11.465 0
      vertex -4.97488 12.0104 0
    endloop
  endfacet
  facet normal 0 0 -1
    outer loop
      vertex -7.22241 -10.8091 0
      vertex -6.12816 11.465 0
      vertex -6.12816 -11.465 0
    endloop
  endfacet
  facet normal 0 0 -1
    outer loop
      vertex -7.22241 -10.8091 0
      vertex -7.22241 10.8091 0
      vertex -6.12816 11.465 0
    endloop
  endfacet
  facet normal 0 0 -1
    outer loop
      vertex -8.24711 -10.0491 0
      vertex -7.22241 10.8091 0
      vertex -7.22241 -10.8091 0
    endloop
  endfacet
  facet normal 0 0 -1
    outer loop
      vertex -8.24711 -10.0491 0
      vertex -8.24711 10.0491 0
      vertex -7.22241 10.8091 0
    endloop
  endfacet
  facet normal 0 0 -1
    outer loop
      vertex -9.19239 -9.19239 0
      vertex -8.24711 10.0491 0
      vertex -8.24711 -10.0491 0
    endloop
  endfacet
  facet normal 0 0 -1
    outer loop
      vertex -9.19239 -9.19239 0
      vertex -9.19239 9.19239 0
      vertex -8.24711 10.0491 0
    endloop
  endfacet
  facet normal 0 0 -1
    outer loop
      vertex -10.0491 -8.24711 0
      vertex -9.19239 9.19239 0
      vertex -9.19239 -9.19239 0
    endloop
  endfacet
  facet normal 0 0 -1
    outer loop
      vertex -10.0491 -8.24711 0
      vertex -10.0491 8.24711 0
      vertex -9.19239 9.19239 0
    endloop
  endfacet
  facet normal 0 0 -1
    outer loop
      vertex -10.8091 -7.22241 0
      vertex -10.0491 8.24711 0
      vertex -10.0491 -8.24711 0
    endloop
  endfacet
  facet normal 0 0 -1
    outer loop
      vertex -10.8091 -7.22241 0
      vertex -10.8091 7.22241 0
      vertex -10.0491 8.24711 0
    endloop
  endfacet
  facet normal 0 0 -1
    outer loop
      vertex -11.465 -6.12816 0
      vertex -10.8091 7.22241 0
      vertex -10.8091 -7.22241 0
    endloop
  endfacet
  facet normal 0 0 -1
    outer loop
      vertex -11.465 -6.12816 0
      vertex -11.465 6.12816 0
      vertex -10.8091 7.22241 0
    endloop
  endfacet
  facet normal 0 0 -1
    outer loop
      vertex -12.0104 -4.97488 0
      vertex -11.465 6.12816 0
      vertex -11.465 -6.12816 0
    endloop
  endfacet
  facet normal 0 0 -1
    outer loop
      vertex -12.0104 -4.97488 0
      vertex -12.0104 4.97488 0
      vertex -11.465 6.12816 0
    endloop
  endfacet
  facet normal 0 0 -1
    outer loop
      vertex -12.4402 -3.7737 0
      vertex -12.0104 4.97488 0
      vertex -12.0104 -4.97488 0
    endloop
  endfacet
  facet normal 0 0 -1
    outer loop
      vertex -12.4402 -3.7737 0
      vertex -12.4402 3.7737 0
      vertex -12.0104 4.97488 0
    endloop
  endfacet
  facet normal 0 0 -1
    outer loop
      vertex -12.7502 -2.53617 0
      vertex -12.4402 3.7737 0
      vertex -12.4402 -3.7737 0
    endloop
  endfacet
  facet normal 0 0 -1
    outer loop
      vertex -12.7502 -2.53617 0
      vertex -12.7502 2.53617 0
      vertex -12.4402 3.7737 0
    endloop
  endfacet
  facet normal 0 0 -1
    outer loop
      vertex -12.9374 -1.27422 0
      vertex -12.7502 2.53617 0
      vertex -12.7502 -2.53617 0
    endloop
  endfacet
  facet normal 0 0 -1
    outer loop
      vertex -12.9374 -1.27422 0
      vertex -12.9374 1.27422 0
      vertex -12.7502 2.53617 0
    endloop
  endfacet
  facet normal 0 -0 -1
    outer loop
      vertex -12.9374 1.27422 0
      vertex -12.9374 -1.27422 0
      vertex -13 0 0
    endloop
  endfacet
  facet normal 0.989176 0.146731 0
    outer loop
      vertex 12.9374 1.27422 40
      vertex 12.7502 2.53617 0
      vertex 12.7502 2.53617 40
    endloop
  endfacet
  facet normal 0.989176 0.146731 0
    outer loop
      vertex 12.7502 2.53617 0
      vertex 12.9374 1.27422 40
      vertex 12.9374 1.27422 0
    endloop
  endfacet
  facet normal 0.970031 0.24298 0
    outer loop
      vertex 12.7502 2.53617 40
      vertex 12.4402 3.7737 0
      vertex 12.4402 3.7737 40
    endloop
  endfacet
  facet normal 0.970031 0.24298 0
    outer loop
      vertex 12.4402 3.7737 0
      vertex 12.7502 2.53617 40
      vertex 12.7502 2.53617 0
    endloop
  endfacet
  facet normal 0.941544 0.33689 0
    outer loop
      vertex 12.4402 3.7737 40
      vertex 12.0104 4.97488 0
      vertex 12.0104 4.97488 40
    endloop
  endfacet
  facet normal 0.941544 0.33689 0
    outer loop
      vertex 12.0104 4.97488 0
      vertex 12.4402 3.7737 40
      vertex 12.4402 3.7737 0
    endloop
  endfacet
  facet normal 0.803207 0.595699 0
    outer loop
      vertex 10.8091 7.22241 40
      vertex 10.0491 8.24711 0
      vertex 10.0491 8.24711 40
    endloop
  endfacet
  facet normal 0.803207 0.595699 0
    outer loop
      vertex 10.0491 8.24711 0
      vertex 10.8091 7.22241 40
      vertex 10.8091 7.22241 0
    endloop
  endfacet
  facet normal 0.740951 0.671559 0
    outer loop
      vertex 10.0491 8.24711 40
      vertex 9.19239 9.19239 0
      vertex 9.19239 9.19239 40
    endloop
  endfacet
  facet normal 0.740951 0.671559 0
    outer loop
      vertex 9.19239 9.19239 0
      vertex 10.0491 8.24711 40
      vertex 10.0491 8.24711 0
    endloop
  endfacet
  facet normal 0.595699 0.803207 -0
    outer loop
      vertex 8.24711 10.0491 0
      vertex 7.22241 10.8091 40
      vertex 8.24711 10.0491 40
    endloop
  endfacet
  facet normal 0.595699 0.803207 0
    outer loop
      vertex 7.22241 10.8091 40
      vertex 8.24711 10.0491 0
      vertex 7.22241 10.8091 0
    endloop
  endfacet
  facet normal 0.0490682 0.998795 -0
    outer loop
      vertex 1.27422 12.9374 0
      vertex 0 13 40
      vertex 1.27422 12.9374 40
    endloop
  endfacet
  facet normal 0.0490682 0.998795 0
    outer loop
      vertex 0 13 40
      vertex 1.27422 12.9374 0
      vertex 0 13 0
    endloop
  endfacet
  facet normal 0.514103 0.857729 -0
    outer loop
      vertex 7.22241 10.8091 0
      vertex 6.12816 11.465 40
      vertex 7.22241 10.8091 40
    endloop
  endfacet
  facet normal 0.514103 0.857729 0
    outer loop
      vertex 6.12816 11.465 40
      vertex 7.22241 10.8091 0
      vertex 6.12816 11.465 0
    endloop
  endfacet
  facet normal 0.33689 0.941544 -0
    outer loop
      vertex 4.97488 12.0104 0
      vertex 3.7737 12.4402 40
      vertex 4.97488 12.0104 40
    endloop
  endfacet
  facet normal 0.33689 0.941544 0
    outer loop
      vertex 3.7737 12.4402 40
      vertex 4.97488 12.0104 0
      vertex 3.7737 12.4402 0
    endloop
  endfacet
  facet normal 0.24298 0.970031 -0
    outer loop
      vertex 3.7737 12.4402 0
      vertex 2.53617 12.7502 40
      vertex 3.7737 12.4402 40
    endloop
  endfacet
  facet normal 0.24298 0.970031 0
    outer loop
      vertex 2.53617 12.7502 40
      vertex 3.7737 12.4402 0
      vertex 2.53617 12.7502 0
    endloop
  endfacet
  facet normal -0.998795 0.0490682 0
    outer loop
      vertex -13 0 0
      vertex -12.9374 1.27422 40
      vertex -12.9374 1.27422 0
    endloop
  endfacet
  facet normal -0.998795 0.0490682 0
    outer loop
      vertex -12.9374 1.27422 40
      vertex -13 0 0
      vertex -13 0 40
    endloop
  endfacet
  facet normal 0 0 1
    outer loop
      vertex 4.85 0 40
      vertex 13 0 40
      vertex 12.9374 1.27422 40
    endloop
  endfacet
  facet normal 0 0 1
    outer loop
      vertex 4.82665 0.475383 40
      vertex 12.9374 1.27422 40
      vertex 12.7502 2.53617 40
    endloop
  endfacet
  facet normal 0 0 1
    outer loop
      vertex 13 0 40
      vertex 4.85 0 40
      vertex 12.9374 -1.27422 40
    endloop
  endfacet
  facet normal 0 0 1
    outer loop
      vertex 4.75681 0.946188 40
      vertex 12.7502 2.53617 40
      vertex 12.4402 3.7737 40
    endloop
  endfacet
  facet normal -0 0 1
    outer loop
      vertex 4.82665 -0.475383 40
      vertex 12.9374 -1.27422 40
      vertex 4.85 0 40
    endloop
  endfacet
  facet normal 0 0 1
    outer loop
      vertex 4.64116 1.40788 40
      vertex 12.4402 3.7737 40
      vertex 12.0104 4.97488 40
    endloop
  endfacet
  facet normal 0 0 1
    outer loop
      vertex 12.9374 -1.27422 40
      vertex 4.82665 -0.475383 40
      vertex 12.7502 -2.53617 40
    endloop
  endfacet
  facet normal 0 0 1
    outer loop
      vertex 4.48081 1.85601 40
      vertex 12.0104 4.97488 40
      vertex 11.465 6.12816 40
    endloop
  endfacet
  facet normal -0 0 1
    outer loop
      vertex 4.75681 -0.946188 40
      vertex 12.7502 -2.53617 40
      vertex 4.82665 -0.475383 40
    endloop
  endfacet
  facet normal 0 0 1
    outer loop
      vertex 4.27732 2.28627 40
      vertex 11.465 6.12816 40
      vertex 10.8091 7.22241 40
    endloop
  endfacet
  facet normal 0 0 1
    outer loop
      vertex 12.7502 -2.53617 40
      vertex 4.75681 -0.946188 40
      vertex 12.4402 -3.7737 40
    endloop
  endfacet
  facet normal 0 0 1
    outer loop
      vertex 4.03263 2.69452 40
      vertex 10.8091 7.22241 40
      vertex 10.0491 8.24711 40
    endloop
  endfacet
  facet normal -0 0 1
    outer loop
      vertex 4.64116 -1.40788 40
      vertex 12.4402 -3.7737 40
      vertex 4.75681 -0.946188 40
    endloop
  endfacet
  facet normal 0 0 1
    outer loop
      vertex 3.7491 3.07681 40
      vertex 10.0491 8.24711 40
      vertex 9.19239 9.19239 40
    endloop
  endfacet
  facet normal 0 0 1
    outer loop
      vertex 12.4402 -3.7737 40
      vertex 4.64116 -1.40788 40
      vertex 12.0104 -4.97488 40
    endloop
  endfacet
  facet normal 0 0 1
    outer loop
      vertex 3.42947 3.42947 40
      vertex 9.19239 9.19239 40
      vertex 8.24711 10.0491 40
    endloop
  endfacet
  facet normal -0 0 1
    outer loop
      vertex 4.48081 -1.85601 40
      vertex 12.0104 -4.97488 40
      vertex 4.64116 -1.40788 40
    endloop
  endfacet
  facet normal 0 0 1
    outer loop
      vertex 3.07681 3.7491 40
      vertex 8.24711 10.0491 40
      vertex 7.22241 10.8091 40
    endloop
  endfacet
  facet normal 0 0 1
    outer loop
      vertex 12.0104 -4.97488 40
      vertex 4.48081 -1.85601 40
      vertex 11.465 -6.12816 40
    endloop
  endfacet
  facet normal 0 0 1
    outer loop
      vertex 2.69452 4.03263 40
      vertex 7.22241 10.8091 40
      vertex 6.12816 11.465 40
    endloop
  endfacet
  facet normal -0 0 1
    outer loop
      vertex 4.27732 -2.28627 40
      vertex 11.465 -6.12816 40
      vertex 4.48081 -1.85601 40
    endloop
  endfacet
  facet normal 0 0 1
    outer loop
      vertex 2.28627 4.27732 40
      vertex 6.12816 11.465 40
      vertex 4.97488 12.0104 40
    endloop
  endfacet
  facet normal 0 0 1
    outer loop
      vertex 11.465 -6.12816 40
      vertex 4.27732 -2.28627 40
      vertex 10.8091 -7.22241 40
    endloop
  endfacet
  facet normal -0 0 1
    outer loop
      vertex 4.03263 -2.69452 40
      vertex 10.8091 -7.22241 40
      vertex 4.27732 -2.28627 40
    endloop
  endfacet
  facet normal 0 0 1
    outer loop
      vertex 12.9374 1.27422 40
      vertex 4.82665 0.475383 40
      vertex 4.85 0 40
    endloop
  endfacet
  facet normal 0 0 1
    outer loop
      vertex 12.7502 2.53617 40
      vertex 4.75681 0.946188 40
      vertex 4.82665 0.475383 40
    endloop
  endfacet
  facet normal 0 0 1
    outer loop
      vertex 12.4402 3.7737 40
      vertex 4.64116 1.40788 40
      vertex 4.75681 0.946188 40
    endloop
  endfacet
  facet normal 0 0 1
    outer loop
      vertex 12.0104 4.97488 40
      vertex 4.48081 1.85601 40
      vertex 4.64116 1.40788 40
    endloop
  endfacet
  facet normal 0 0 1
    outer loop
      vertex 11.465 6.12816 40
      vertex 4.27732 2.28627 40
      vertex 4.48081 1.85601 40
    endloop
  endfacet
  facet normal 0 0 1
    outer loop
      vertex 10.8091 7.22241 40
      vertex 4.03263 2.69452 40
      vertex 4.27732 2.28627 40
    endloop
  endfacet
  facet normal 0 0 1
    outer loop
      vertex 1.85601 4.48081 40
      vertex 4.97488 12.0104 40
      vertex 3.7737 12.4402 40
    endloop
  endfacet
  facet normal 0 0 1
    outer loop
      vertex 10.0491 8.24711 40
      vertex 3.7491 3.07681 40
      vertex 4.03263 2.69452 40
    endloop
  endfacet
  facet normal 0 0 1
    outer loop
      vertex 9.19239 9.19239 40
      vertex 3.42947 3.42947 40
      vertex 3.7491 3.07681 40
    endloop
  endfacet
  facet normal 0 0 1
    outer loop
      vertex 8.24711 10.0491 40
      vertex 3.07681 3.7491 40
      vertex 3.42947 3.42947 40
    endloop
  endfacet
  facet normal 0 0 1
    outer loop
      vertex 7.22241 10.8091 40
      vertex 2.69452 4.03263 40
      vertex 3.07681 3.7491 40
    endloop
  endfacet
  facet normal 0 0 1
    outer loop
      vertex 1.40788 4.64116 40
      vertex 3.7737 12.4402 40
      vertex 2.53617 12.7502 40
    endloop
  endfacet
  facet normal 0 0 1
    outer loop
      vertex 6.12816 11.465 40
      vertex 2.28627 4.27732 40
      vertex 2.69452 4.03263 40
    endloop
  endfacet
  facet normal 0 0 1
    outer loop
      vertex 4.97488 12.0104 40
      vertex 1.85601 4.48081 40
      vertex 2.28627 4.27732 40
    endloop
  endfacet
  facet normal 0 0 1
    outer loop
      vertex 3.7737 12.4402 40
      vertex 1.40788 4.64116 40
      vertex 1.85601 4.48081 40
    endloop
  endfacet
  facet normal 0 0 1
    outer loop
      vertex 0.946188 4.75681 40
      vertex 2.53617 12.7502 40
      vertex 1.27422 12.9374 40
    endloop
  endfacet
  facet normal 0 0 1
    outer loop
      vertex 2.53617 12.7502 40
      vertex 0.946188 4.75681 40
      vertex 1.40788 4.64116 40
    endloop
  endfacet
  facet normal 0 0 1
    outer loop
      vertex 1.27422 12.9374 40
      vertex 0.475383 4.82665 40
      vertex 0.946188 4.75681 40
    endloop
  endfacet
  facet normal 0 0 1
    outer loop
      vertex 0 13 40
      vertex 0.475383 4.82665 40
      vertex 1.27422 12.9374 40
    endloop
  endfacet
  facet normal 0 0 1
    outer loop
      vertex 0 13 40
      vertex 0 4.85 40
      vertex 0.475383 4.82665 40
    endloop
  endfacet
  facet normal 0 0 1
    outer loop
      vertex 0 13 40
      vertex -0.475383 4.82665 40
      vertex 0 4.85 40
    endloop
  endfacet
  facet normal -0 0 1
    outer loop
      vertex -1.27422 12.9374 40
      vertex -0.475383 4.82665 40
      vertex 0 13 40
    endloop
  endfacet
  facet normal 0 0 1
    outer loop
      vertex -0.475383 4.82665 40
      vertex -1.27422 12.9374 40
      vertex -0.946188 4.75681 40
    endloop
  endfacet
  facet normal -0 0 1
    outer loop
      vertex -2.53617 12.7502 40
      vertex -0.946188 4.75681 40
      vertex -1.27422 12.9374 40
    endloop
  endfacet
  facet normal 0 0 1
    outer loop
      vertex -0.946188 4.75681 40
      vertex -2.53617 12.7502 40
      vertex -1.40788 4.64116 40
    endloop
  endfacet
  facet normal -0 0 1
    outer loop
      vertex -3.7737 12.4402 40
      vertex -1.40788 4.64116 40
      vertex -2.53617 12.7502 40
    endloop
  endfacet
  facet normal 0 0 1
    outer loop
      vertex -1.40788 4.64116 40
      vertex -3.7737 12.4402 40
      vertex -1.85601 4.48081 40
    endloop
  endfacet
  facet normal -0 0 1
    outer loop
      vertex -4.97488 12.0104 40
      vertex -1.85601 4.48081 40
      vertex -3.7737 12.4402 40
    endloop
  endfacet
  facet normal 0 0 1
    outer loop
      vertex -1.85601 4.48081 40
      vertex -4.97488 12.0104 40
      vertex -2.28627 4.27732 40
    endloop
  endfacet
  facet normal -0 0 1
    outer loop
      vertex -6.12816 11.465 40
      vertex -2.28627 4.27732 40
      vertex -4.97488 12.0104 40
    endloop
  endfacet
  facet normal 0 0 1
    outer loop
      vertex -2.28627 4.27732 40
      vertex -6.12816 11.465 40
      vertex -2.69452 4.03263 40
    endloop
  endfacet
  facet normal -0 0 1
    outer loop
      vertex -7.22241 10.8091 40
      vertex -2.69452 4.03263 40
      vertex -6.12816 11.465 40
    endloop
  endfacet
  facet normal 0 0 1
    outer loop
      vertex -2.69452 4.03263 40
      vertex -7.22241 10.8091 40
      vertex -3.07681 3.7491 40
    endloop
  endfacet
  facet normal -0 0 1
    outer loop
      vertex -8.24711 10.0491 40
      vertex -3.07681 3.7491 40
      vertex -7.22241 10.8091 40
    endloop
  endfacet
  facet normal 0 0 1
    outer loop
      vertex -3.07681 3.7491 40
      vertex -8.24711 10.0491 40
      vertex -3.42947 3.42947 40
    endloop
  endfacet
  facet normal -0 0 1
    outer loop
      vertex -9.19239 9.19239 40
      vertex -3.42947 3.42947 40
      vertex -8.24711 10.0491 40
    endloop
  endfacet
  facet normal 0 0 1
    outer loop
      vertex -3.42947 3.42947 40
      vertex -9.19239 9.19239 40
      vertex -3.7491 3.07681 40
    endloop
  endfacet
  facet normal -0 0 1
    outer loop
      vertex -10.0491 8.24711 40
      vertex -3.7491 3.07681 40
      vertex -9.19239 9.19239 40
    endloop
  endfacet
  facet normal -0 0 1
    outer loop
      vertex -10.8091 7.22241 40
      vertex -4.03263 2.69452 40
      vertex -10.0491 8.24711 40
    endloop
  endfacet
  facet normal 0 0 1
    outer loop
      vertex -3.7491 3.07681 40
      vertex -10.0491 8.24711 40
      vertex -4.03263 2.69452 40
    endloop
  endfacet
  facet normal 0 0 1
    outer loop
      vertex 10.8091 -7.22241 40
      vertex 4.03263 -2.69452 40
      vertex 10.0491 -8.24711 40
    endloop
  endfacet
  facet normal -0 0 1
    outer loop
      vertex 3.7491 -3.07681 40
      vertex 10.0491 -8.24711 40
      vertex 4.03263 -2.69452 40
    endloop
  endfacet
  facet normal 0 0 1
    outer loop
      vertex 10.0491 -8.24711 40
      vertex 3.7491 -3.07681 40
      vertex 9.19239 -9.19239 40
    endloop
  endfacet
  facet normal -0 0 1
    outer loop
      vertex 3.42947 -3.42947 40
      vertex 9.19239 -9.19239 40
      vertex 3.7491 -3.07681 40
    endloop
  endfacet
  facet normal 0 0 1
    outer loop
      vertex 9.19239 -9.19239 40
      vertex 3.42947 -3.42947 40
      vertex 8.24711 -10.0491 40
    endloop
  endfacet
  facet normal -0 0 1
    outer loop
      vertex 3.07681 -3.7491 40
      vertex 8.24711 -10.0491 40
      vertex 3.42947 -3.42947 40
    endloop
  endfacet
  facet normal 0 0 1
    outer loop
      vertex 8.24711 -10.0491 40
      vertex 3.07681 -3.7491 40
      vertex 7.22241 -10.8091 40
    endloop
  endfacet
  facet normal -0 0 1
    outer loop
      vertex 2.69452 -4.03263 40
      vertex 7.22241 -10.8091 40
      vertex 3.07681 -3.7491 40
    endloop
  endfacet
  facet normal 0 0 1
    outer loop
      vertex 7.22241 -10.8091 40
      vertex 2.69452 -4.03263 40
      vertex 6.12816 -11.465 40
    endloop
  endfacet
  facet normal -0 0 1
    outer loop
      vertex 2.28627 -4.27732 40
      vertex 6.12816 -11.465 40
      vertex 2.69452 -4.03263 40
    endloop
  endfacet
  facet normal 0 0 1
    outer loop
      vertex 6.12816 -11.465 40
      vertex 2.28627 -4.27732 40
      vertex 4.97488 -12.0104 40
    endloop
  endfacet
  facet normal -0 0 1
    outer loop
      vertex 1.85601 -4.48081 40
      vertex 4.97488 -12.0104 40
      vertex 2.28627 -4.27732 40
    endloop
  endfacet
  facet normal 0 0 1
    outer loop
      vertex 4.97488 -12.0104 40
      vertex 1.85601 -4.48081 40
      vertex 3.7737 -12.4402 40
    endloop
  endfacet
  facet normal -0 0 1
    outer loop
      vertex 1.40788 -4.64116 40
      vertex 3.7737 -12.4402 40
      vertex 1.85601 -4.48081 40
    endloop
  endfacet
  facet normal 0 0 1
    outer loop
      vertex 3.7737 -12.4402 40
      vertex 1.40788 -4.64116 40
      vertex 2.53617 -12.7502 40
    endloop
  endfacet
  facet normal -0 0 1
    outer loop
      vertex 0.946188 -4.75681 40
      vertex 2.53617 -12.7502 40
      vertex 1.40788 -4.64116 40
    endloop
  endfacet
  facet normal 0 0 1
    outer loop
      vertex 2.53617 -12.7502 40
      vertex 0.946188 -4.75681 40
      vertex 1.27422 -12.9374 40
    endloop
  endfacet
  facet normal -0 0 1
    outer loop
      vertex 0.475383 -4.82665 40
      vertex 1.27422 -12.9374 40
      vertex 0.946188 -4.75681 40
    endloop
  endfacet
  facet normal -0 0 1
    outer loop
      vertex 0 -4.85 40
      vertex 1.27422 -12.9374 40
      vertex 0.475383 -4.82665 40
    endloop
  endfacet
  facet normal 0 0 1
    outer loop
      vertex 0 -4.85 40
      vertex 0 -13 40
      vertex 1.27422 -12.9374 40
    endloop
  endfacet
  facet normal 0 0 1
    outer loop
      vertex -0.475383 -4.82665 40
      vertex 0 -13 40
      vertex 0 -4.85 40
    endloop
  endfacet
  facet normal 0 0 1
    outer loop
      vertex -1.27422 -12.9374 40
      vertex -0.475383 -4.82665 40
      vertex -0.946188 -4.75681 40
    endloop
  endfacet
  facet normal 0 0 1
    outer loop
      vertex -0.475383 -4.82665 40
      vertex -1.27422 -12.9374 40
      vertex 0 -13 40
    endloop
  endfacet
  facet normal 0 0 1
    outer loop
      vertex -2.53617 -12.7502 40
      vertex -0.946188 -4.75681 40
      vertex -1.40788 -4.64116 40
    endloop
  endfacet
  facet normal 0 0 1
    outer loop
      vertex -3.7737 -12.4402 40
      vertex -1.40788 -4.64116 40
      vertex -1.85601 -4.48081 40
    endloop
  endfacet
  facet normal 0 0 1
    outer loop
      vertex -4.97488 -12.0104 40
      vertex -1.85601 -4.48081 40
      vertex -2.28627 -4.27732 40
    endloop
  endfacet
  facet normal 0 0 1
    outer loop
      vertex -0.946188 -4.75681 40
      vertex -2.53617 -12.7502 40
      vertex -1.27422 -12.9374 40
    endloop
  endfacet
  facet normal 0 0 1
    outer loop
      vertex -6.12816 -11.465 40
      vertex -2.28627 -4.27732 40
      vertex -2.69452 -4.03263 40
    endloop
  endfacet
  facet normal 0 0 1
    outer loop
      vertex -7.22241 -10.8091 40
      vertex -2.69452 -4.03263 40
      vertex -3.07681 -3.7491 40
    endloop
  endfacet
  facet normal 0 0 1
    outer loop
      vertex -8.24711 -10.0491 40
      vertex -3.07681 -3.7491 40
      vertex -3.42947 -3.42947 40
    endloop
  endfacet
  facet normal 0 0 1
    outer loop
      vertex -9.19239 -9.19239 40
      vertex -3.42947 -3.42947 40
      vertex -3.7491 -3.07681 40
    endloop
  endfacet
  facet normal 0 0 1
    outer loop
      vertex -1.40788 -4.64116 40
      vertex -3.7737 -12.4402 40
      vertex -2.53617 -12.7502 40
    endloop
  endfacet
  facet normal 0 0 1
    outer loop
      vertex -10.0491 -8.24711 40
      vertex -3.7491 -3.07681 40
      vertex -4.03263 -2.69452 40
    endloop
  endfacet
  facet normal 0 0 1
    outer loop
      vertex -10.8091 -7.22241 40
      vertex -4.03263 -2.69452 40
      vertex -4.27732 -2.28627 40
    endloop
  endfacet
  facet normal 0 0 1
    outer loop
      vertex -11.465 -6.12816 40
      vertex -4.27732 -2.28627 40
      vertex -4.48081 -1.85601 40
    endloop
  endfacet
  facet normal 0 0 1
    outer loop
      vertex -12.0104 -4.97488 40
      vertex -4.48081 -1.85601 40
      vertex -4.64116 -1.40788 40
    endloop
  endfacet
  facet normal 0 0 1
    outer loop
      vertex -12.4402 -3.7737 40
      vertex -4.64116 -1.40788 40
      vertex -4.75681 -0.946188 40
    endloop
  endfacet
  facet normal 0 0 1
    outer loop
      vertex -12.7502 -2.53617 40
      vertex -4.75681 -0.946188 40
      vertex -4.82665 -0.475383 40
    endloop
  endfacet
  facet normal 0 0 1
    outer loop
      vertex -1.85601 -4.48081 40
      vertex -4.97488 -12.0104 40
      vertex -3.7737 -12.4402 40
    endloop
  endfacet
  facet normal 0 0 1
    outer loop
      vertex -12.9374 -1.27422 40
      vertex -4.82665 -0.475383 40
      vertex -4.85 0 40
    endloop
  endfacet
  facet normal 0 0 1
    outer loop
      vertex -4.03263 2.69452 40
      vertex -10.8091 7.22241 40
      vertex -4.27732 2.28627 40
    endloop
  endfacet
  facet normal -0 0 1
    outer loop
      vertex -11.465 6.12816 40
      vertex -4.27732 2.28627 40
      vertex -10.8091 7.22241 40
    endloop
  endfacet
  facet normal 0 0 1
    outer loop
      vertex -2.28627 -4.27732 40
      vertex -6.12816 -11.465 40
      vertex -4.97488 -12.0104 40
    endloop
  endfacet
  facet normal 0 0 1
    outer loop
      vertex -4.27732 2.28627 40
      vertex -11.465 6.12816 40
      vertex -4.48081 1.85601 40
    endloop
  endfacet
  facet normal 0 0 1
    outer loop
      vertex -2.69452 -4.03263 40
      vertex -7.22241 -10.8091 40
      vertex -6.12816 -11.465 40
    endloop
  endfacet
  facet normal -0 0 1
    outer loop
      vertex -12.0104 4.97488 40
      vertex -4.48081 1.85601 40
      vertex -11.465 6.12816 40
    endloop
  endfacet
  facet normal 0 0 1
    outer loop
      vertex -3.07681 -3.7491 40
      vertex -8.24711 -10.0491 40
      vertex -7.22241 -10.8091 40
    endloop
  endfacet
  facet normal 0 0 1
    outer loop
      vertex -4.48081 1.85601 40
      vertex -12.0104 4.97488 40
      vertex -4.64116 1.40788 40
    endloop
  endfacet
  facet normal 0 0 1
    outer loop
      vertex -3.42947 -3.42947 40
      vertex -9.19239 -9.19239 40
      vertex -8.24711 -10.0491 40
    endloop
  endfacet
  facet normal -0 0 1
    outer loop
      vertex -12.4402 3.7737 40
      vertex -4.64116 1.40788 40
      vertex -12.0104 4.97488 40
    endloop
  endfacet
  facet normal 0 0 1
    outer loop
      vertex -3.7491 -3.07681 40
      vertex -10.0491 -8.24711 40
      vertex -9.19239 -9.19239 40
    endloop
  endfacet
  facet normal 0 0 1
    outer loop
      vertex -4.64116 1.40788 40
      vertex -12.4402 3.7737 40
      vertex -4.75681 0.946188 40
    endloop
  endfacet
  facet normal 0 0 1
    outer loop
      vertex -4.03263 -2.69452 40
      vertex -10.8091 -7.22241 40
      vertex -10.0491 -8.24711 40
    endloop
  endfacet
  facet normal -0 0 1
    outer loop
      vertex -12.7502 2.53617 40
      vertex -4.75681 0.946188 40
      vertex -12.4402 3.7737 40
    endloop
  endfacet
  facet normal 0 0 1
    outer loop
      vertex -4.27732 -2.28627 40
      vertex -11.465 -6.12816 40
      vertex -10.8091 -7.22241 40
    endloop
  endfacet
  facet normal 0 0 1
    outer loop
      vertex -4.75681 0.946188 40
      vertex -12.7502 2.53617 40
      vertex -4.82665 0.475383 40
    endloop
  endfacet
  facet normal 0 0 1
    outer loop
      vertex -4.48081 -1.85601 40
      vertex -12.0104 -4.97488 40
      vertex -11.465 -6.12816 40
    endloop
  endfacet
  facet normal -0 0 1
    outer loop
      vertex -12.9374 1.27422 40
      vertex -4.82665 0.475383 40
      vertex -12.7502 2.53617 40
    endloop
  endfacet
  facet normal 0 0 1
    outer loop
      vertex -4.64116 -1.40788 40
      vertex -12.4402 -3.7737 40
      vertex -12.0104 -4.97488 40
    endloop
  endfacet
  facet normal 0 0 1
    outer loop
      vertex -4.82665 0.475383 40
      vertex -12.9374 1.27422 40
      vertex -4.85 0 40
    endloop
  endfacet
  facet normal 0 0 1
    outer loop
      vertex -4.75681 -0.946188 40
      vertex -12.7502 -2.53617 40
      vertex -12.4402 -3.7737 40
    endloop
  endfacet
  facet normal 0 0 1
    outer loop
      vertex -13 0 40
      vertex -4.85 0 40
      vertex -12.9374 1.27422 40
    endloop
  endfacet
  facet normal 0 0 1
    outer loop
      vertex -4.82665 -0.475383 40
      vertex -12.9374 -1.27422 40
      vertex -12.7502 -2.53617 40
    endloop
  endfacet
  facet normal 0 0 1
    outer loop
      vertex -4.85 0 40
      vertex -13 0 40
      vertex -12.9374 -1.27422 40
    endloop
  endfacet
  facet normal -0.941544 0.33689 0
    outer loop
      vertex -12.4402 3.7737 0
      vertex -12.0104 4.97488 40
      vertex -12.0104 4.97488 0
    endloop
  endfacet
  facet normal -0.941544 0.33689 0
    outer loop
      vertex -12.0104 4.97488 40
      vertex -12.4402 3.7737 0
      vertex -12.4402 3.7737 40
    endloop
  endfacet
  facet normal -0.970031 0.24298 0
    outer loop
      vertex -12.7502 2.53617 0
      vertex -12.4402 3.7737 40
      vertex -12.4402 3.7737 0
    endloop
  endfacet
  facet normal -0.970031 0.24298 0
    outer loop
      vertex -12.4402 3.7737 40
      vertex -12.7502 2.53617 0
      vertex -12.7502 2.53617 40
    endloop
  endfacet
  facet normal -0.857729 0.514103 0
    outer loop
      vertex -11.465 6.12816 0
      vertex -10.8091 7.22241 40
      vertex -10.8091 7.22241 0
    endloop
  endfacet
  facet normal -0.857729 0.514103 0
    outer loop
      vertex -10.8091 7.22241 40
      vertex -11.465 6.12816 0
      vertex -11.465 6.12816 40
    endloop
  endfacet
  facet normal -0.803207 0.595699 0
    outer loop
      vertex -10.8091 7.22241 0
      vertex -10.0491 8.24711 40
      vertex -10.0491 8.24711 0
    endloop
  endfacet
  facet normal -0.803207 0.595699 0
    outer loop
      vertex -10.0491 8.24711 40
      vertex -10.8091 7.22241 0
      vertex -10.8091 7.22241 40
    endloop
  endfacet
  facet normal -0.24298 0.970031 0
    outer loop
      vertex -2.53617 12.7502 0
      vertex -3.7737 12.4402 40
      vertex -2.53617 12.7502 40
    endloop
  endfacet
  facet normal -0.24298 0.970031 0
    outer loop
      vertex -3.7737 12.4402 40
      vertex -2.53617 12.7502 0
      vertex -3.7737 12.4402 0
    endloop
  endfacet
  facet normal -0.0490682 0.998795 0
    outer loop
      vertex 0 13 0
      vertex -1.27422 12.9374 40
      vertex 0 13 40
    endloop
  endfacet
  facet normal -0.0490682 0.998795 0
    outer loop
      vertex -1.27422 12.9374 40
      vertex 0 13 0
      vertex -1.27422 12.9374 0
    endloop
  endfacet
  facet normal -0.514103 0.857729 0
    outer loop
      vertex -6.12816 11.465 0
      vertex -7.22241 10.8091 40
      vertex -6.12816 11.465 40
    endloop
  endfacet
  facet normal -0.514103 0.857729 0
    outer loop
      vertex -7.22241 10.8091 40
      vertex -6.12816 11.465 0
      vertex -7.22241 10.8091 0
    endloop
  endfacet
  facet normal -0.595699 0.803207 0
    outer loop
      vertex -7.22241 10.8091 0
      vertex -8.24711 10.0491 40
      vertex -7.22241 10.8091 40
    endloop
  endfacet
  facet normal -0.595699 0.803207 0
    outer loop
      vertex -8.24711 10.0491 40
      vertex -7.22241 10.8091 0
      vertex -8.24711 10.0491 0
    endloop
  endfacet
  facet normal -0.427555 0.903989 0
    outer loop
      vertex -4.97488 12.0104 0
      vertex -6.12816 11.465 40
      vertex -4.97488 12.0104 40
    endloop
  endfacet
  facet normal -0.427555 0.903989 0
    outer loop
      vertex -6.12816 11.465 40
      vertex -4.97488 12.0104 0
      vertex -6.12816 11.465 0
    endloop
  endfacet
  facet normal -0.671559 0.740951 0
    outer loop
      vertex -8.24711 10.0491 0
      vertex -9.19239 9.19239 40
      vertex -8.24711 10.0491 40
    endloop
  endfacet
  facet normal -0.671559 0.740951 0
    outer loop
      vertex -9.19239 9.19239 40
      vertex -8.24711 10.0491 0
      vertex -9.19239 9.19239 0
    endloop
  endfacet
  facet normal 0.998795 0.0490682 0
    outer loop
      vertex 13 0 40
      vertex 12.9374 1.27422 0
      vertex 12.9374 1.27422 40
    endloop
  endfacet
  facet normal 0.998795 0.0490682 0
    outer loop
      vertex 12.9374 1.27422 0
      vertex 13 0 40
      vertex 13 0 0
    endloop
  endfacet
  facet normal 0.33689 -0.941544 0
    outer loop
      vertex 3.7737 -12.4402 0
      vertex 4.97488 -12.0104 40
      vertex 3.7737 -12.4402 40
    endloop
  endfacet
  facet normal 0.33689 -0.941544 0
    outer loop
      vertex 4.97488 -12.0104 40
      vertex 3.7737 -12.4402 0
      vertex 4.97488 -12.0104 0
    endloop
  endfacet
  facet normal 0.671559 -0.740951 0
    outer loop
      vertex 8.24711 -10.0491 0
      vertex 9.19239 -9.19239 40
      vertex 8.24711 -10.0491 40
    endloop
  endfacet
  facet normal 0.671559 -0.740951 0
    outer loop
      vertex 9.19239 -9.19239 40
      vertex 8.24711 -10.0491 0
      vertex 9.19239 -9.19239 0
    endloop
  endfacet
  facet normal 0.514103 -0.857729 0
    outer loop
      vertex 6.12816 -11.465 0
      vertex 7.22241 -10.8091 40
      vertex 6.12816 -11.465 40
    endloop
  endfacet
  facet normal 0.514103 -0.857729 0
    outer loop
      vertex 7.22241 -10.8091 40
      vertex 6.12816 -11.465 0
      vertex 7.22241 -10.8091 0
    endloop
  endfacet
  facet normal 0.903989 -0.427555 0
    outer loop
      vertex 11.465 -6.12816 40
      vertex 12.0104 -4.97488 0
      vertex 12.0104 -4.97488 40
    endloop
  endfacet
  facet normal 0.903989 -0.427555 0
    outer loop
      vertex 12.0104 -4.97488 0
      vertex 11.465 -6.12816 40
      vertex 11.465 -6.12816 0
    endloop
  endfacet
  facet normal -0.33689 -0.941544 0
    outer loop
      vertex -4.97488 -12.0104 0
      vertex -3.7737 -12.4402 40
      vertex -4.97488 -12.0104 40
    endloop
  endfacet
  facet normal -0.33689 -0.941544 -0
    outer loop
      vertex -3.7737 -12.4402 40
      vertex -4.97488 -12.0104 0
      vertex -3.7737 -12.4402 0
    endloop
  endfacet
  facet normal -0.514103 -0.857729 0
    outer loop
      vertex -7.22241 -10.8091 0
      vertex -6.12816 -11.465 40
      vertex -7.22241 -10.8091 40
    endloop
  endfacet
  facet normal -0.514103 -0.857729 -0
    outer loop
      vertex -6.12816 -11.465 40
      vertex -7.22241 -10.8091 0
      vertex -6.12816 -11.465 0
    endloop
  endfacet
  facet normal -0.970031 -0.24298 0
    outer loop
      vertex -12.4402 -3.7737 0
      vertex -12.7502 -2.53617 40
      vertex -12.7502 -2.53617 0
    endloop
  endfacet
  facet normal -0.970031 -0.24298 0
    outer loop
      vertex -12.7502 -2.53617 40
      vertex -12.4402 -3.7737 0
      vertex -12.4402 -3.7737 40
    endloop
  endfacet
  facet normal -0.998795 -0.0490682 0
    outer loop
      vertex -12.9374 -1.27422 0
      vertex -13 0 40
      vertex -13 0 0
    endloop
  endfacet
  facet normal -0.998795 -0.0490682 0
    outer loop
      vertex -13 0 40
      vertex -12.9374 -1.27422 0
      vertex -12.9374 -1.27422 40
    endloop
  endfacet
  facet normal -0.803207 -0.595699 0
    outer loop
      vertex -10.0491 -8.24711 0
      vertex -10.8091 -7.22241 40
      vertex -10.8091 -7.22241 0
    endloop
  endfacet
  facet normal -0.803207 -0.595699 0
    outer loop
      vertex -10.8091 -7.22241 40
      vertex -10.0491 -8.24711 0
      vertex -10.0491 -8.24711 40
    endloop
  endfacet
  facet normal -0.903989 -0.427555 0
    outer loop
      vertex -11.465 -6.12816 0
      vertex -12.0104 -4.97488 40
      vertex -12.0104 -4.97488 0
    endloop
  endfacet
  facet normal -0.903989 -0.427555 0
    outer loop
      vertex -12.0104 -4.97488 40
      vertex -11.465 -6.12816 0
      vertex -11.465 -6.12816 40
    endloop
  endfacet
  facet normal -0.740951 -0.671559 0
    outer loop
      vertex -9.19239 -9.19239 0
      vertex -10.0491 -8.24711 40
      vertex -10.0491 -8.24711 0
    endloop
  endfacet
  facet normal -0.740951 -0.671559 0
    outer loop
      vertex -10.0491 -8.24711 40
      vertex -9.19239 -9.19239 0
      vertex -9.19239 -9.19239 40
    endloop
  endfacet
  facet normal 0.0490682 -0.998795 0
    outer loop
      vertex 0 -13 0
      vertex 1.27422 -12.9374 40
      vertex 0 -13 40
    endloop
  endfacet
  facet normal 0.0490682 -0.998795 0
    outer loop
      vertex 1.27422 -12.9374 40
      vertex 0 -13 0
      vertex 1.27422 -12.9374 0
    endloop
  endfacet
  facet normal 0.989176 -0.146731 0
    outer loop
      vertex 12.7502 -2.53617 40
      vertex 12.9374 -1.27422 0
      vertex 12.9374 -1.27422 40
    endloop
  endfacet
  facet normal 0.989176 -0.146731 0
    outer loop
      vertex 12.9374 -1.27422 0
      vertex 12.7502 -2.53617 40
      vertex 12.7502 -2.53617 0
    endloop
  endfacet
  facet normal 0.970031 -0.24298 0
    outer loop
      vertex 12.4402 -3.7737 40
      vertex 12.7502 -2.53617 0
      vertex 12.7502 -2.53617 40
    endloop
  endfacet
  facet normal 0.970031 -0.24298 0
    outer loop
      vertex 12.7502 -2.53617 0
      vertex 12.4402 -3.7737 40
      vertex 12.4402 -3.7737 0
    endloop
  endfacet
  facet normal 0.24298 -0.970031 0
    outer loop
      vertex 2.53617 -12.7502 0
      vertex 3.7737 -12.4402 40
      vertex 2.53617 -12.7502 40
    endloop
  endfacet
  facet normal 0.24298 -0.970031 0
    outer loop
      vertex 3.7737 -12.4402 40
      vertex 2.53617 -12.7502 0
      vertex 3.7737 -12.4402 0
    endloop
  endfacet
  facet normal 0.427555 -0.903989 0
    outer loop
      vertex 4.97488 -12.0104 0
      vertex 6.12816 -11.465 40
      vertex 4.97488 -12.0104 40
    endloop
  endfacet
  facet normal 0.427555 -0.903989 0
    outer loop
      vertex 6.12816 -11.465 40
      vertex 4.97488 -12.0104 0
      vertex 6.12816 -11.465 0
    endloop
  endfacet
  facet normal 0.740951 -0.671559 0
    outer loop
      vertex 9.19239 -9.19239 40
      vertex 10.0491 -8.24711 0
      vertex 10.0491 -8.24711 40
    endloop
  endfacet
  facet normal 0.740951 -0.671559 0
    outer loop
      vertex 10.0491 -8.24711 0
      vertex 9.19239 -9.19239 40
      vertex 9.19239 -9.19239 0
    endloop
  endfacet
  facet normal 0.595699 -0.803207 0
    outer loop
      vertex 7.22241 -10.8091 0
      vertex 8.24711 -10.0491 40
      vertex 7.22241 -10.8091 40
    endloop
  endfacet
  facet normal 0.595699 -0.803207 0
    outer loop
      vertex 8.24711 -10.0491 40
      vertex 7.22241 -10.8091 0
      vertex 8.24711 -10.0491 0
    endloop
  endfacet
  facet normal 0.857729 -0.514103 0
    outer loop
      vertex 10.8091 -7.22241 40
      vertex 11.465 -6.12816 0
      vertex 11.465 -6.12816 40
    endloop
  endfacet
  facet normal 0.857729 -0.514103 0
    outer loop
      vertex 11.465 -6.12816 0
      vertex 10.8091 -7.22241 40
      vertex 10.8091 -7.22241 0
    endloop
  endfacet
  facet normal -0.0490682 -0.998795 0
    outer loop
      vertex -1.27422 -12.9374 0
      vertex 0 -13 40
      vertex -1.27422 -12.9374 40
    endloop
  endfacet
  facet normal -0.0490682 -0.998795 -0
    outer loop
      vertex 0 -13 40
      vertex -1.27422 -12.9374 0
      vertex 0 -13 0
    endloop
  endfacet
  facet normal -0.24298 -0.970031 0
    outer loop
      vertex -3.7737 -12.4402 0
      vertex -2.53617 -12.7502 40
      vertex -3.7737 -12.4402 40
    endloop
  endfacet
  facet normal -0.24298 -0.970031 -0
    outer loop
      vertex -2.53617 -12.7502 40
      vertex -3.7737 -12.4402 0
      vertex -2.53617 -12.7502 0
    endloop
  endfacet
  facet normal -0.595699 -0.803207 0
    outer loop
      vertex -8.24711 -10.0491 0
      vertex -7.22241 -10.8091 40
      vertex -8.24711 -10.0491 40
    endloop
  endfacet
  facet normal -0.595699 -0.803207 -0
    outer loop
      vertex -7.22241 -10.8091 40
      vertex -8.24711 -10.0491 0
      vertex -7.22241 -10.8091 0
    endloop
  endfacet
  facet normal -0.941544 -0.33689 0
    outer loop
      vertex -12.0104 -4.97488 0
      vertex -12.4402 -3.7737 40
      vertex -12.4402 -3.7737 0
    endloop
  endfacet
  facet normal -0.941544 -0.33689 0
    outer loop
      vertex -12.4402 -3.7737 40
      vertex -12.0104 -4.97488 0
      vertex -12.0104 -4.97488 40
    endloop
  endfacet
  facet normal -0.989176 -0.146731 0
    outer loop
      vertex -12.7502 -2.53617 0
      vertex -12.9374 -1.27422 40
      vertex -12.9374 -1.27422 0
    endloop
  endfacet
  facet normal -0.989176 -0.146731 0
    outer loop
      vertex -12.9374 -1.27422 40
      vertex -12.7502 -2.53617 0
      vertex -12.7502 -2.53617 40
    endloop
  endfacet
  facet normal -0.857729 -0.514103 0
    outer loop
      vertex -10.8091 -7.22241 0
      vertex -11.465 -6.12816 40
      vertex -11.465 -6.12816 0
    endloop
  endfacet
  facet normal -0.857729 -0.514103 0
    outer loop
      vertex -11.465 -6.12816 40
      vertex -10.8091 -7.22241 0
      vertex -10.8091 -7.22241 40
    endloop
  endfacet
  facet normal 0.146731 -0.989176 0
    outer loop
      vertex 1.27422 -12.9374 0
      vertex 2.53617 -12.7502 40
      vertex 1.27422 -12.9374 40
    endloop
  endfacet
  facet normal 0.146731 -0.989176 0
    outer loop
      vertex 2.53617 -12.7502 40
      vertex 1.27422 -12.9374 0
      vertex 2.53617 -12.7502 0
    endloop
  endfacet
  facet normal -0.857728 -0.514104 0
    outer loop
      vertex 4.27732 2.28627 20
      vertex 4.03263 2.69452 40
      vertex 4.03263 2.69452 20
    endloop
  endfacet
  facet normal -0.857728 -0.514104 0
    outer loop
      vertex 4.03263 2.69452 40
      vertex 4.27732 2.28627 20
      vertex 4.27732 2.28627 40
    endloop
  endfacet
  facet normal -0.33689 -0.941544 0
    outer loop
      vertex 1.40788 4.64116 20
      vertex 1.85601 4.48081 40
      vertex 1.40788 4.64116 40
    endloop
  endfacet
  facet normal -0.33689 -0.941544 -0
    outer loop
      vertex 1.85601 4.48081 40
      vertex 1.40788 4.64116 20
      vertex 1.85601 4.48081 20
    endloop
  endfacet
  facet normal 0.427554 -0.90399 0
    outer loop
      vertex -2.28627 4.27732 20
      vertex -1.85601 4.48081 40
      vertex -2.28627 4.27732 40
    endloop
  endfacet
  facet normal 0.427554 -0.90399 0
    outer loop
      vertex -1.85601 4.48081 40
      vertex -2.28627 4.27732 20
      vertex -1.85601 4.48081 20
    endloop
  endfacet
  facet normal 0.941544 -0.33689 0
    outer loop
      vertex -4.64116 1.40788 40
      vertex -4.48081 1.85601 20
      vertex -4.48081 1.85601 40
    endloop
  endfacet
  facet normal 0.941544 -0.33689 0
    outer loop
      vertex -4.48081 1.85601 20
      vertex -4.64116 1.40788 40
      vertex -4.64116 1.40788 20
    endloop
  endfacet
  facet normal 0.998796 -0.0490667 0
    outer loop
      vertex -4.85 0 40
      vertex -4.82665 0.475383 20
      vertex -4.82665 0.475383 40
    endloop
  endfacet
  facet normal 0.998796 -0.0490667 0
    outer loop
      vertex -4.82665 0.475383 20
      vertex -4.85 0 40
      vertex -4.85 0 20
    endloop
  endfacet
  facet normal 0.989176 -0.146731 0
    outer loop
      vertex -4.82665 0.475383 40
      vertex -4.75681 0.946188 20
      vertex -4.75681 0.946188 40
    endloop
  endfacet
  facet normal 0.989176 -0.146731 0
    outer loop
      vertex -4.75681 0.946188 20
      vertex -4.82665 0.475383 40
      vertex -4.82665 0.475383 20
    endloop
  endfacet
  facet normal 0.67156 -0.74095 0
    outer loop
      vertex -3.42947 3.42947 20
      vertex -3.07681 3.7491 40
      vertex -3.42947 3.42947 40
    endloop
  endfacet
  facet normal 0.67156 -0.74095 0
    outer loop
      vertex -3.07681 3.7491 40
      vertex -3.42947 3.42947 20
      vertex -3.07681 3.7491 20
    endloop
  endfacet
  facet normal -0.970031 0.242981 0
    outer loop
      vertex 4.64116 -1.40788 20
      vertex 4.75681 -0.946188 40
      vertex 4.75681 -0.946188 20
    endloop
  endfacet
  facet normal -0.970031 0.242981 0
    outer loop
      vertex 4.75681 -0.946188 40
      vertex 4.64116 -1.40788 20
      vertex 4.64116 -1.40788 40
    endloop
  endfacet
  facet normal -0.242981 0.970031 0
    outer loop
      vertex 1.40788 -4.64116 20
      vertex 0.946188 -4.75681 40
      vertex 1.40788 -4.64116 40
    endloop
  endfacet
  facet normal -0.242981 0.970031 0
    outer loop
      vertex 0.946188 -4.75681 40
      vertex 1.40788 -4.64116 20
      vertex 0.946188 -4.75681 20
    endloop
  endfacet
  facet normal -0.989176 -0.146731 0
    outer loop
      vertex 4.82665 0.475383 20
      vertex 4.75681 0.946188 40
      vertex 4.75681 0.946188 20
    endloop
  endfacet
  facet normal -0.989176 -0.146731 0
    outer loop
      vertex 4.75681 0.946188 40
      vertex 4.82665 0.475383 20
      vertex 4.82665 0.475383 40
    endloop
  endfacet
  facet normal -0.803208 -0.595699 0
    outer loop
      vertex 4.03263 2.69452 20
      vertex 3.7491 3.07681 40
      vertex 3.7491 3.07681 20
    endloop
  endfacet
  facet normal -0.803208 -0.595699 0
    outer loop
      vertex 3.7491 3.07681 40
      vertex 4.03263 2.69452 20
      vertex 4.03263 2.69452 40
    endloop
  endfacet
  facet normal -0.67156 -0.74095 0
    outer loop
      vertex 3.07681 3.7491 20
      vertex 3.42947 3.42947 40
      vertex 3.07681 3.7491 40
    endloop
  endfacet
  facet normal -0.67156 -0.74095 -0
    outer loop
      vertex 3.42947 3.42947 40
      vertex 3.07681 3.7491 20
      vertex 3.42947 3.42947 20
    endloop
  endfacet
  facet normal 0.0490667 -0.998796 0
    outer loop
      vertex -0.475383 4.82665 20
      vertex 0 4.85 40
      vertex -0.475383 4.82665 40
    endloop
  endfacet
  facet normal 0.0490667 -0.998796 0
    outer loop
      vertex 0 4.85 40
      vertex -0.475383 4.82665 20
      vertex 0 4.85 20
    endloop
  endfacet
  facet normal -0.146731 -0.989176 0
    outer loop
      vertex 0.475383 4.82665 20
      vertex 0.946188 4.75681 40
      vertex 0.475383 4.82665 40
    endloop
  endfacet
  facet normal -0.146731 -0.989176 -0
    outer loop
      vertex 0.946188 4.75681 40
      vertex 0.475383 4.82665 20
      vertex 0.946188 4.75681 20
    endloop
  endfacet
  facet normal -0.595699 -0.803208 0
    outer loop
      vertex 2.69452 4.03263 20
      vertex 3.07681 3.7491 40
      vertex 2.69452 4.03263 40
    endloop
  endfacet
  facet normal -0.595699 -0.803208 -0
    outer loop
      vertex 3.07681 3.7491 40
      vertex 2.69452 4.03263 20
      vertex 3.07681 3.7491 20
    endloop
  endfacet
  facet normal -0.427554 -0.90399 0
    outer loop
      vertex 1.85601 4.48081 20
      vertex 2.28627 4.27732 40
      vertex 1.85601 4.48081 40
    endloop
  endfacet
  facet normal -0.427554 -0.90399 -0
    outer loop
      vertex 2.28627 4.27732 40
      vertex 1.85601 4.48081 20
      vertex 2.28627 4.27732 20
    endloop
  endfacet
  facet normal -0.514104 -0.857728 0
    outer loop
      vertex 2.28627 4.27732 20
      vertex 2.69452 4.03263 40
      vertex 2.28627 4.27732 40
    endloop
  endfacet
  facet normal -0.514104 -0.857728 -0
    outer loop
      vertex 2.69452 4.03263 40
      vertex 2.28627 4.27732 20
      vertex 2.69452 4.03263 20
    endloop
  endfacet
  facet normal 0.970031 -0.242981 0
    outer loop
      vertex -4.75681 0.946188 40
      vertex -4.64116 1.40788 20
      vertex -4.64116 1.40788 40
    endloop
  endfacet
  facet normal 0.970031 -0.242981 0
    outer loop
      vertex -4.64116 1.40788 20
      vertex -4.75681 0.946188 40
      vertex -4.75681 0.946188 20
    endloop
  endfacet
  facet normal 0.803208 -0.595699 0
    outer loop
      vertex -4.03263 2.69452 40
      vertex -3.7491 3.07681 20
      vertex -3.7491 3.07681 40
    endloop
  endfacet
  facet normal 0.803208 -0.595699 0
    outer loop
      vertex -3.7491 3.07681 20
      vertex -4.03263 2.69452 40
      vertex -4.03263 2.69452 20
    endloop
  endfacet
  facet normal 0.90399 -0.427554 0
    outer loop
      vertex -4.48081 1.85601 40
      vertex -4.27732 2.28627 20
      vertex -4.27732 2.28627 40
    endloop
  endfacet
  facet normal 0.90399 -0.427554 0
    outer loop
      vertex -4.27732 2.28627 20
      vertex -4.48081 1.85601 40
      vertex -4.48081 1.85601 20
    endloop
  endfacet
  facet normal 0.857728 -0.514104 0
    outer loop
      vertex -4.27732 2.28627 40
      vertex -4.03263 2.69452 20
      vertex -4.03263 2.69452 40
    endloop
  endfacet
  facet normal 0.857728 -0.514104 0
    outer loop
      vertex -4.03263 2.69452 20
      vertex -4.27732 2.28627 40
      vertex -4.27732 2.28627 20
    endloop
  endfacet
  facet normal 0.146731 -0.989176 0
    outer loop
      vertex -0.946188 4.75681 20
      vertex -0.475383 4.82665 40
      vertex -0.946188 4.75681 40
    endloop
  endfacet
  facet normal 0.146731 -0.989176 0
    outer loop
      vertex -0.475383 4.82665 40
      vertex -0.946188 4.75681 20
      vertex -0.475383 4.82665 20
    endloop
  endfacet
  facet normal 0.33689 -0.941544 0
    outer loop
      vertex -1.85601 4.48081 20
      vertex -1.40788 4.64116 40
      vertex -1.85601 4.48081 40
    endloop
  endfacet
  facet normal 0.33689 -0.941544 0
    outer loop
      vertex -1.40788 4.64116 40
      vertex -1.85601 4.48081 20
      vertex -1.40788 4.64116 20
    endloop
  endfacet
  facet normal 0.242981 -0.970031 0
    outer loop
      vertex -1.40788 4.64116 20
      vertex -0.946188 4.75681 40
      vertex -1.40788 4.64116 40
    endloop
  endfacet
  facet normal 0.242981 -0.970031 0
    outer loop
      vertex -0.946188 4.75681 40
      vertex -1.40788 4.64116 20
      vertex -0.946188 4.75681 20
    endloop
  endfacet
  facet normal 0.514104 -0.857728 0
    outer loop
      vertex -2.69452 4.03263 20
      vertex -2.28627 4.27732 40
      vertex -2.69452 4.03263 40
    endloop
  endfacet
  facet normal 0.514104 -0.857728 0
    outer loop
      vertex -2.28627 4.27732 40
      vertex -2.69452 4.03263 20
      vertex -2.28627 4.27732 20
    endloop
  endfacet
  facet normal 0.595699 -0.803208 0
    outer loop
      vertex -3.07681 3.7491 20
      vertex -2.69452 4.03263 40
      vertex -3.07681 3.7491 40
    endloop
  endfacet
  facet normal 0.595699 -0.803208 0
    outer loop
      vertex -2.69452 4.03263 40
      vertex -3.07681 3.7491 20
      vertex -2.69452 4.03263 20
    endloop
  endfacet
  facet normal 0.74095 -0.67156 0
    outer loop
      vertex -3.7491 3.07681 40
      vertex -3.42947 3.42947 20
      vertex -3.42947 3.42947 40
    endloop
  endfacet
  facet normal 0.74095 -0.67156 0
    outer loop
      vertex -3.42947 3.42947 20
      vertex -3.7491 3.07681 40
      vertex -3.7491 3.07681 20
    endloop
  endfacet
  facet normal -0.998796 -0.0490667 0
    outer loop
      vertex 4.85 0 20
      vertex 4.82665 0.475383 40
      vertex 4.82665 0.475383 20
    endloop
  endfacet
  facet normal -0.998796 -0.0490667 0
    outer loop
      vertex 4.82665 0.475383 40
      vertex 4.85 0 20
      vertex 4.85 0 40
    endloop
  endfacet
  facet normal -0.146731 0.989176 0
    outer loop
      vertex 0.946188 -4.75681 20
      vertex 0.475383 -4.82665 40
      vertex 0.946188 -4.75681 40
    endloop
  endfacet
  facet normal -0.146731 0.989176 0
    outer loop
      vertex 0.475383 -4.82665 40
      vertex 0.946188 -4.75681 20
      vertex 0.475383 -4.82665 20
    endloop
  endfacet
  facet normal -0.33689 0.941544 0
    outer loop
      vertex 1.85601 -4.48081 20
      vertex 1.40788 -4.64116 40
      vertex 1.85601 -4.48081 40
    endloop
  endfacet
  facet normal -0.33689 0.941544 0
    outer loop
      vertex 1.40788 -4.64116 40
      vertex 1.85601 -4.48081 20
      vertex 1.40788 -4.64116 20
    endloop
  endfacet
  facet normal -0.90399 -0.427554 0
    outer loop
      vertex 4.48081 1.85601 20
      vertex 4.27732 2.28627 40
      vertex 4.27732 2.28627 20
    endloop
  endfacet
  facet normal -0.90399 -0.427554 0
    outer loop
      vertex 4.27732 2.28627 40
      vertex 4.48081 1.85601 20
      vertex 4.48081 1.85601 40
    endloop
  endfacet
  facet normal -0.941544 -0.33689 0
    outer loop
      vertex 4.64116 1.40788 20
      vertex 4.48081 1.85601 40
      vertex 4.48081 1.85601 20
    endloop
  endfacet
  facet normal -0.941544 -0.33689 0
    outer loop
      vertex 4.48081 1.85601 40
      vertex 4.64116 1.40788 20
      vertex 4.64116 1.40788 40
    endloop
  endfacet
  facet normal -0.970031 -0.242981 0
    outer loop
      vertex 4.75681 0.946188 20
      vertex 4.64116 1.40788 40
      vertex 4.64116 1.40788 20
    endloop
  endfacet
  facet normal -0.970031 -0.242981 0
    outer loop
      vertex 4.64116 1.40788 40
      vertex 4.75681 0.946188 20
      vertex 4.75681 0.946188 40
    endloop
  endfacet
  facet normal -0.74095 -0.67156 0
    outer loop
      vertex 3.7491 3.07681 20
      vertex 3.42947 3.42947 40
      vertex 3.42947 3.42947 20
    endloop
  endfacet
  facet normal -0.74095 -0.67156 0
    outer loop
      vertex 3.42947 3.42947 40
      vertex 3.7491 3.07681 20
      vertex 3.7491 3.07681 40
    endloop
  endfacet
  facet normal -0.0490667 -0.998796 0
    outer loop
      vertex 0 4.85 20
      vertex 0.475383 4.82665 40
      vertex 0 4.85 40
    endloop
  endfacet
  facet normal -0.0490667 -0.998796 -0
    outer loop
      vertex 0.475383 4.82665 40
      vertex 0 4.85 20
      vertex 0.475383 4.82665 20
    endloop
  endfacet
  facet normal -0.242981 -0.970031 0
    outer loop
      vertex 0.946188 4.75681 20
      vertex 1.40788 4.64116 40
      vertex 0.946188 4.75681 40
    endloop
  endfacet
  facet normal -0.242981 -0.970031 -0
    outer loop
      vertex 1.40788 4.64116 40
      vertex 0.946188 4.75681 20
      vertex 1.40788 4.64116 20
    endloop
  endfacet
  facet normal -0.989176 0.146731 0
    outer loop
      vertex 4.75681 -0.946188 20
      vertex 4.82665 -0.475383 40
      vertex 4.82665 -0.475383 20
    endloop
  endfacet
  facet normal -0.989176 0.146731 0
    outer loop
      vertex 4.82665 -0.475383 40
      vertex 4.75681 -0.946188 20
      vertex 4.75681 -0.946188 40
    endloop
  endfacet
  facet normal -0.998796 0.0490667 0
    outer loop
      vertex 4.82665 -0.475383 20
      vertex 4.85 0 40
      vertex 4.85 0 20
    endloop
  endfacet
  facet normal -0.998796 0.0490667 0
    outer loop
      vertex 4.85 0 40
      vertex 4.82665 -0.475383 20
      vertex 4.82665 -0.475383 40
    endloop
  endfacet
  facet normal -0.857728 0.514104 0
    outer loop
      vertex 4.03263 -2.69452 20
      vertex 4.27732 -2.28627 40
      vertex 4.27732 -2.28627 20
    endloop
  endfacet
  facet normal -0.857728 0.514104 0
    outer loop
      vertex 4.27732 -2.28627 40
      vertex 4.03263 -2.69452 20
      vertex 4.03263 -2.69452 40
    endloop
  endfacet
  facet normal -0.941544 0.33689 0
    outer loop
      vertex 4.48081 -1.85601 20
      vertex 4.64116 -1.40788 40
      vertex 4.64116 -1.40788 20
    endloop
  endfacet
  facet normal -0.941544 0.33689 0
    outer loop
      vertex 4.64116 -1.40788 40
      vertex 4.48081 -1.85601 20
      vertex 4.48081 -1.85601 40
    endloop
  endfacet
  facet normal -0.90399 0.427554 0
    outer loop
      vertex 4.27732 -2.28627 20
      vertex 4.48081 -1.85601 40
      vertex 4.48081 -1.85601 20
    endloop
  endfacet
  facet normal -0.90399 0.427554 0
    outer loop
      vertex 4.48081 -1.85601 40
      vertex 4.27732 -2.28627 20
      vertex 4.27732 -2.28627 40
    endloop
  endfacet
  facet normal -0.803208 0.595699 0
    outer loop
      vertex 3.7491 -3.07681 20
      vertex 4.03263 -2.69452 40
      vertex 4.03263 -2.69452 20
    endloop
  endfacet
  facet normal -0.803208 0.595699 0
    outer loop
      vertex 4.03263 -2.69452 40
      vertex 3.7491 -3.07681 20
      vertex 3.7491 -3.07681 40
    endloop
  endfacet
  facet normal 0.595699 0.803208 -0
    outer loop
      vertex -2.69452 -4.03263 20
      vertex -3.07681 -3.7491 40
      vertex -2.69452 -4.03263 40
    endloop
  endfacet
  facet normal 0.595699 0.803208 0
    outer loop
      vertex -3.07681 -3.7491 40
      vertex -2.69452 -4.03263 20
      vertex -3.07681 -3.7491 20
    endloop
  endfacet
  facet normal 0.146731 0.989176 -0
    outer loop
      vertex -0.475383 -4.82665 20
      vertex -0.946188 -4.75681 40
      vertex -0.475383 -4.82665 40
    endloop
  endfacet
  facet normal 0.146731 0.989176 0
    outer loop
      vertex -0.946188 -4.75681 40
      vertex -0.475383 -4.82665 20
      vertex -0.946188 -4.75681 20
    endloop
  endfacet
  facet normal 0.998796 0.0490667 0
    outer loop
      vertex -4.82665 -0.475383 40
      vertex -4.85 0 20
      vertex -4.85 0 40
    endloop
  endfacet
  facet normal 0.998796 0.0490667 0
    outer loop
      vertex -4.85 0 20
      vertex -4.82665 -0.475383 40
      vertex -4.82665 -0.475383 20
    endloop
  endfacet
  facet normal 0.74095 0.67156 0
    outer loop
      vertex -3.42947 -3.42947 40
      vertex -3.7491 -3.07681 20
      vertex -3.7491 -3.07681 40
    endloop
  endfacet
  facet normal 0.74095 0.67156 0
    outer loop
      vertex -3.7491 -3.07681 20
      vertex -3.42947 -3.42947 40
      vertex -3.42947 -3.42947 20
    endloop
  endfacet
  facet normal -0.514104 0.857728 0
    outer loop
      vertex 2.69452 -4.03263 20
      vertex 2.28627 -4.27732 40
      vertex 2.69452 -4.03263 40
    endloop
  endfacet
  facet normal -0.514104 0.857728 0
    outer loop
      vertex 2.28627 -4.27732 40
      vertex 2.69452 -4.03263 20
      vertex 2.28627 -4.27732 20
    endloop
  endfacet
  facet normal -0.67156 0.74095 0
    outer loop
      vertex 3.42947 -3.42947 20
      vertex 3.07681 -3.7491 40
      vertex 3.42947 -3.42947 40
    endloop
  endfacet
  facet normal -0.67156 0.74095 0
    outer loop
      vertex 3.07681 -3.7491 40
      vertex 3.42947 -3.42947 20
      vertex 3.07681 -3.7491 20
    endloop
  endfacet
  facet normal 0.0490667 0.998796 -0
    outer loop
      vertex 0 -4.85 20
      vertex -0.475383 -4.82665 40
      vertex 0 -4.85 40
    endloop
  endfacet
  facet normal 0.0490667 0.998796 0
    outer loop
      vertex -0.475383 -4.82665 40
      vertex 0 -4.85 20
      vertex -0.475383 -4.82665 20
    endloop
  endfacet
  facet normal 0.427554 0.90399 -0
    outer loop
      vertex -1.85601 -4.48081 20
      vertex -2.28627 -4.27732 40
      vertex -1.85601 -4.48081 40
    endloop
  endfacet
  facet normal 0.427554 0.90399 0
    outer loop
      vertex -2.28627 -4.27732 40
      vertex -1.85601 -4.48081 20
      vertex -2.28627 -4.27732 20
    endloop
  endfacet
  facet normal -0.0490667 0.998796 0
    outer loop
      vertex 0.475383 -4.82665 20
      vertex 0 -4.85 40
      vertex 0.475383 -4.82665 40
    endloop
  endfacet
  facet normal -0.0490667 0.998796 0
    outer loop
      vertex 0 -4.85 40
      vertex 0.475383 -4.82665 20
      vertex 0 -4.85 20
    endloop
  endfacet
  facet normal 0 0 1
    outer loop
      vertex 4.82665 0.475383 20
      vertex 4.82665 -0.475383 20
      vertex 4.85 0 20
    endloop
  endfacet
  facet normal 0 0 1
    outer loop
      vertex 4.75681 0.946188 20
      vertex 4.82665 -0.475383 20
      vertex 4.82665 0.475383 20
    endloop
  endfacet
  facet normal 0 0 1
    outer loop
      vertex 4.75681 0.946188 20
      vertex 4.75681 -0.946188 20
      vertex 4.82665 -0.475383 20
    endloop
  endfacet
  facet normal 0 0 1
    outer loop
      vertex 4.64116 1.40788 20
      vertex 4.75681 -0.946188 20
      vertex 4.75681 0.946188 20
    endloop
  endfacet
  facet normal 0 0 1
    outer loop
      vertex 4.64116 1.40788 20
      vertex 4.64116 -1.40788 20
      vertex 4.75681 -0.946188 20
    endloop
  endfacet
  facet normal 0 0 1
    outer loop
      vertex 4.48081 1.85601 20
      vertex 4.64116 -1.40788 20
      vertex 4.64116 1.40788 20
    endloop
  endfacet
  facet normal 0 0 1
    outer loop
      vertex 4.48081 1.85601 20
      vertex 4.48081 -1.85601 20
      vertex 4.64116 -1.40788 20
    endloop
  endfacet
  facet normal 0 0 1
    outer loop
      vertex 4.27732 2.28627 20
      vertex 4.48081 -1.85601 20
      vertex 4.48081 1.85601 20
    endloop
  endfacet
  facet normal 0 0 1
    outer loop
      vertex 4.27732 2.28627 20
      vertex 4.27732 -2.28627 20
      vertex 4.48081 -1.85601 20
    endloop
  endfacet
  facet normal 0 0 1
    outer loop
      vertex 4.03263 2.69452 20
      vertex 4.27732 -2.28627 20
      vertex 4.27732 2.28627 20
    endloop
  endfacet
  facet normal 0 0 1
    outer loop
      vertex 4.03263 2.69452 20
      vertex 4.03263 -2.69452 20
      vertex 4.27732 -2.28627 20
    endloop
  endfacet
  facet normal 0 0 1
    outer loop
      vertex 3.7491 3.07681 20
      vertex 4.03263 -2.69452 20
      vertex 4.03263 2.69452 20
    endloop
  endfacet
  facet normal 0 0 1
    outer loop
      vertex 3.7491 3.07681 20
      vertex 3.7491 -3.07681 20
      vertex 4.03263 -2.69452 20
    endloop
  endfacet
  facet normal 0 0 1
    outer loop
      vertex 3.42947 3.42947 20
      vertex 3.7491 -3.07681 20
      vertex 3.7491 3.07681 20
    endloop
  endfacet
  facet normal 0 0 1
    outer loop
      vertex 3.42947 3.42947 20
      vertex 3.42947 -3.42947 20
      vertex 3.7491 -3.07681 20
    endloop
  endfacet
  facet normal 0 0 1
    outer loop
      vertex 3.07681 3.7491 20
      vertex 3.42947 -3.42947 20
      vertex 3.42947 3.42947 20
    endloop
  endfacet
  facet normal 0 0 1
    outer loop
      vertex 3.07681 3.7491 20
      vertex 3.07681 -3.7491 20
      vertex 3.42947 -3.42947 20
    endloop
  endfacet
  facet normal 0 0 1
    outer loop
      vertex 2.69452 4.03263 20
      vertex 3.07681 -3.7491 20
      vertex 3.07681 3.7491 20
    endloop
  endfacet
  facet normal 0 0 1
    outer loop
      vertex 2.69452 4.03263 20
      vertex 2.69452 -4.03263 20
      vertex 3.07681 -3.7491 20
    endloop
  endfacet
  facet normal 0 0 1
    outer loop
      vertex 2.28627 4.27732 20
      vertex 2.69452 -4.03263 20
      vertex 2.69452 4.03263 20
    endloop
  endfacet
  facet normal 0 0 1
    outer loop
      vertex 2.28627 4.27732 20
      vertex 2.28627 -4.27732 20
      vertex 2.69452 -4.03263 20
    endloop
  endfacet
  facet normal 0 0 1
    outer loop
      vertex 1.85601 4.48081 20
      vertex 2.28627 -4.27732 20
      vertex 2.28627 4.27732 20
    endloop
  endfacet
  facet normal 0 0 1
    outer loop
      vertex 1.85601 4.48081 20
      vertex 1.85601 -4.48081 20
      vertex 2.28627 -4.27732 20
    endloop
  endfacet
  facet normal 0 0 1
    outer loop
      vertex 1.40788 4.64116 20
      vertex 1.85601 -4.48081 20
      vertex 1.85601 4.48081 20
    endloop
  endfacet
  facet normal 0 0 1
    outer loop
      vertex 1.40788 4.64116 20
      vertex 1.40788 -4.64116 20
      vertex 1.85601 -4.48081 20
    endloop
  endfacet
  facet normal 0 0 1
    outer loop
      vertex 0.946188 4.75681 20
      vertex 1.40788 -4.64116 20
      vertex 1.40788 4.64116 20
    endloop
  endfacet
  facet normal 0 0 1
    outer loop
      vertex 0.946188 4.75681 20
      vertex 0.946188 -4.75681 20
      vertex 1.40788 -4.64116 20
    endloop
  endfacet
  facet normal 0 0 1
    outer loop
      vertex 0.475383 4.82665 20
      vertex 0.946188 -4.75681 20
      vertex 0.946188 4.75681 20
    endloop
  endfacet
  facet normal 0 0 1
    outer loop
      vertex 0.475383 4.82665 20
      vertex 0.475383 -4.82665 20
      vertex 0.946188 -4.75681 20
    endloop
  endfacet
  facet normal 0 0 1
    outer loop
      vertex 0 4.85 20
      vertex 0.475383 -4.82665 20
      vertex 0.475383 4.82665 20
    endloop
  endfacet
  facet normal 0 0 1
    outer loop
      vertex 0 4.85 20
      vertex 0 -4.85 20
      vertex 0.475383 -4.82665 20
    endloop
  endfacet
  facet normal -0 0 1
    outer loop
      vertex -0.475383 4.82665 20
      vertex 0 -4.85 20
      vertex 0 4.85 20
    endloop
  endfacet
  facet normal 0 0 1
    outer loop
      vertex -0.475383 4.82665 20
      vertex -0.475383 -4.82665 20
      vertex 0 -4.85 20
    endloop
  endfacet
  facet normal -0 0 1
    outer loop
      vertex -0.946188 4.75681 20
      vertex -0.475383 -4.82665 20
      vertex -0.475383 4.82665 20
    endloop
  endfacet
  facet normal 0 0 1
    outer loop
      vertex -0.946188 4.75681 20
      vertex -0.946188 -4.75681 20
      vertex -0.475383 -4.82665 20
    endloop
  endfacet
  facet normal -0 0 1
    outer loop
      vertex -1.40788 4.64116 20
      vertex -0.946188 -4.75681 20
      vertex -0.946188 4.75681 20
    endloop
  endfacet
  facet normal 0 0 1
    outer loop
      vertex -1.40788 4.64116 20
      vertex -1.40788 -4.64116 20
      vertex -0.946188 -4.75681 20
    endloop
  endfacet
  facet normal -0 0 1
    outer loop
      vertex -1.85601 4.48081 20
      vertex -1.40788 -4.64116 20
      vertex -1.40788 4.64116 20
    endloop
  endfacet
  facet normal 0 0 1
    outer loop
      vertex -1.85601 4.48081 20
      vertex -1.85601 -4.48081 20
      vertex -1.40788 -4.64116 20
    endloop
  endfacet
  facet normal -0 0 1
    outer loop
      vertex -2.28627 4.27732 20
      vertex -1.85601 -4.48081 20
      vertex -1.85601 4.48081 20
    endloop
  endfacet
  facet normal 0 0 1
    outer loop
      vertex -2.28627 4.27732 20
      vertex -2.28627 -4.27732 20
      vertex -1.85601 -4.48081 20
    endloop
  endfacet
  facet normal -0 0 1
    outer loop
      vertex -2.69452 4.03263 20
      vertex -2.28627 -4.27732 20
      vertex -2.28627 4.27732 20
    endloop
  endfacet
  facet normal 0 0 1
    outer loop
      vertex -2.69452 4.03263 20
      vertex -2.69452 -4.03263 20
      vertex -2.28627 -4.27732 20
    endloop
  endfacet
  facet normal -0 0 1
    outer loop
      vertex -3.07681 3.7491 20
      vertex -2.69452 -4.03263 20
      vertex -2.69452 4.03263 20
    endloop
  endfacet
  facet normal 0 0 1
    outer loop
      vertex -3.07681 3.7491 20
      vertex -3.07681 -3.7491 20
      vertex -2.69452 -4.03263 20
    endloop
  endfacet
  facet normal -0 0 1
    outer loop
      vertex -3.42947 3.42947 20
      vertex -3.07681 -3.7491 20
      vertex -3.07681 3.7491 20
    endloop
  endfacet
  facet normal 0 0 1
    outer loop
      vertex -3.42947 3.42947 20
      vertex -3.42947 -3.42947 20
      vertex -3.07681 -3.7491 20
    endloop
  endfacet
  facet normal -0 0 1
    outer loop
      vertex -3.7491 3.07681 20
      vertex -3.42947 -3.42947 20
      vertex -3.42947 3.42947 20
    endloop
  endfacet
  facet normal 0 0 1
    outer loop
      vertex -3.7491 3.07681 20
      vertex -3.7491 -3.07681 20
      vertex -3.42947 -3.42947 20
    endloop
  endfacet
  facet normal -0 0 1
    outer loop
      vertex -4.03263 2.69452 20
      vertex -3.7491 -3.07681 20
      vertex -3.7491 3.07681 20
    endloop
  endfacet
  facet normal 0 0 1
    outer loop
      vertex -4.03263 2.69452 20
      vertex -4.03263 -2.69452 20
      vertex -3.7491 -3.07681 20
    endloop
  endfacet
  facet normal -0 0 1
    outer loop
      vertex -4.27732 2.28627 20
      vertex -4.03263 -2.69452 20
      vertex -4.03263 2.69452 20
    endloop
  endfacet
  facet normal 0 0 1
    outer loop
      vertex -4.27732 2.28627 20
      vertex -4.27732 -2.28627 20
      vertex -4.03263 -2.69452 20
    endloop
  endfacet
  facet normal -0 0 1
    outer loop
      vertex -4.48081 1.85601 20
      vertex -4.27732 -2.28627 20
      vertex -4.27732 2.28627 20
    endloop
  endfacet
  facet normal 0 0 1
    outer loop
      vertex -4.48081 1.85601 20
      vertex -4.48081 -1.85601 20
      vertex -4.27732 -2.28627 20
    endloop
  endfacet
  facet normal -0 0 1
    outer loop
      vertex -4.64116 1.40788 20
      vertex -4.48081 -1.85601 20
      vertex -4.48081 1.85601 20
    endloop
  endfacet
  facet normal 0 0 1
    outer loop
      vertex -4.64116 1.40788 20
      vertex -4.64116 -1.40788 20
      vertex -4.48081 -1.85601 20
    endloop
  endfacet
  facet normal -0 0 1
    outer loop
      vertex -4.75681 0.946188 20
      vertex -4.64116 -1.40788 20
      vertex -4.64116 1.40788 20
    endloop
  endfacet
  facet normal 0 0 1
    outer loop
      vertex -4.75681 0.946188 20
      vertex -4.75681 -0.946188 20
      vertex -4.64116 -1.40788 20
    endloop
  endfacet
  facet normal -0 0 1
    outer loop
      vertex -4.82665 0.475383 20
      vertex -4.75681 -0.946188 20
      vertex -4.75681 0.946188 20
    endloop
  endfacet
  facet normal 0 0 1
    outer loop
      vertex -4.82665 0.475383 20
      vertex -4.82665 -0.475383 20
      vertex -4.75681 -0.946188 20
    endloop
  endfacet
  facet normal 0 -0 1
    outer loop
      vertex -4.82665 -0.475383 20
      vertex -4.82665 0.475383 20
      vertex -4.85 0 20
    endloop
  endfacet
  facet normal 0.989176 0.146731 0
    outer loop
      vertex -4.75681 -0.946188 40
      vertex -4.82665 -0.475383 20
      vertex -4.82665 -0.475383 40
    endloop
  endfacet
  facet normal 0.989176 0.146731 0
    outer loop
      vertex -4.82665 -0.475383 20
      vertex -4.75681 -0.946188 40
      vertex -4.75681 -0.946188 20
    endloop
  endfacet
  facet normal 0.941544 0.33689 0
    outer loop
      vertex -4.48081 -1.85601 40
      vertex -4.64116 -1.40788 20
      vertex -4.64116 -1.40788 40
    endloop
  endfacet
  facet normal 0.941544 0.33689 0
    outer loop
      vertex -4.64116 -1.40788 20
      vertex -4.48081 -1.85601 40
      vertex -4.48081 -1.85601 20
    endloop
  endfacet
  facet normal 0.970031 0.242981 0
    outer loop
      vertex -4.64116 -1.40788 40
      vertex -4.75681 -0.946188 20
      vertex -4.75681 -0.946188 40
    endloop
  endfacet
  facet normal 0.970031 0.242981 0
    outer loop
      vertex -4.75681 -0.946188 20
      vertex -4.64116 -1.40788 40
      vertex -4.64116 -1.40788 20
    endloop
  endfacet
  facet normal 0.67156 0.74095 -0
    outer loop
      vertex -3.07681 -3.7491 20
      vertex -3.42947 -3.42947 40
      vertex -3.07681 -3.7491 40
    endloop
  endfacet
  facet normal 0.67156 0.74095 0
    outer loop
      vertex -3.42947 -3.42947 40
      vertex -3.07681 -3.7491 20
      vertex -3.42947 -3.42947 20
    endloop
  endfacet
  facet normal 0.803208 0.595699 0
    outer loop
      vertex -3.7491 -3.07681 40
      vertex -4.03263 -2.69452 20
      vertex -4.03263 -2.69452 40
    endloop
  endfacet
  facet normal 0.803208 0.595699 0
    outer loop
      vertex -4.03263 -2.69452 20
      vertex -3.7491 -3.07681 40
      vertex -3.7491 -3.07681 20
    endloop
  endfacet
  facet normal -0.427554 0.90399 0
    outer loop
      vertex 2.28627 -4.27732 20
      vertex 1.85601 -4.48081 40
      vertex 2.28627 -4.27732 40
    endloop
  endfacet
  facet normal -0.427554 0.90399 0
    outer loop
      vertex 1.85601 -4.48081 40
      vertex 2.28627 -4.27732 20
      vertex 1.85601 -4.48081 20
    endloop
  endfacet
  facet normal -0.595699 0.803208 0
    outer loop
      vertex 3.07681 -3.7491 20
      vertex 2.69452 -4.03263 40
      vertex 3.07681 -3.7491 40
    endloop
  endfacet
  facet normal -0.595699 0.803208 0
    outer loop
      vertex 2.69452 -4.03263 40
      vertex 3.07681 -3.7491 20
      vertex 2.69452 -4.03263 20
    endloop
  endfacet
  facet normal -0.74095 0.67156 0
    outer loop
      vertex 3.42947 -3.42947 20
      vertex 3.7491 -3.07681 40
      vertex 3.7491 -3.07681 20
    endloop
  endfacet
  facet normal -0.74095 0.67156 0
    outer loop
      vertex 3.7491 -3.07681 40
      vertex 3.42947 -3.42947 20
      vertex 3.42947 -3.42947 40
    endloop
  endfacet
  facet normal 0.242981 0.970031 -0
    outer loop
      vertex -0.946188 -4.75681 20
      vertex -1.40788 -4.64116 40
      vertex -0.946188 -4.75681 40
    endloop
  endfacet
  facet normal 0.242981 0.970031 0
    outer loop
      vertex -1.40788 -4.64116 40
      vertex -0.946188 -4.75681 20
      vertex -1.40788 -4.64116 20
    endloop
  endfacet
  facet normal 0.514104 0.857728 -0
    outer loop
      vertex -2.28627 -4.27732 20
      vertex -2.69452 -4.03263 40
      vertex -2.28627 -4.27732 40
    endloop
  endfacet
  facet normal 0.514104 0.857728 0
    outer loop
      vertex -2.69452 -4.03263 40
      vertex -2.28627 -4.27732 20
      vertex -2.69452 -4.03263 20
    endloop
  endfacet
  facet normal 0.90399 0.427554 0
    outer loop
      vertex -4.27732 -2.28627 40
      vertex -4.48081 -1.85601 20
      vertex -4.48081 -1.85601 40
    endloop
  endfacet
  facet normal 0.90399 0.427554 0
    outer loop
      vertex -4.48081 -1.85601 20
      vertex -4.27732 -2.28627 40
      vertex -4.27732 -2.28627 20
    endloop
  endfacet
  facet normal 0.857728 0.514104 0
    outer loop
      vertex -4.03263 -2.69452 40
      vertex -4.27732 -2.28627 20
      vertex -4.27732 -2.28627 40
    endloop
  endfacet
  facet normal 0.857728 0.514104 0
    outer loop
      vertex -4.27732 -2.28627 20
      vertex -4.03263 -2.69452 40
      vertex -4.03263 -2.69452 20
    endloop
  endfacet
  facet normal 0.33689 0.941544 -0
    outer loop
      vertex -1.40788 -4.64116 20
      vertex -1.85601 -4.48081 40
      vertex -1.40788 -4.64116 40
    endloop
  endfacet
  facet normal 0.33689 0.941544 0
    outer loop
      vertex -1.85601 -4.48081 40
      vertex -1.40788 -4.64116 20
      vertex -1.85601 -4.48081 20
    endloop
  endfacet
endsolid OpenSCAD_Model
